<svg width="32" height="31" viewBox="0 0 32 31" fill="rgba(124, 58, 237, 0.7)" xmlns="http://www.w3.org/2000/svg">
<rect x="0.87793" width="30.2439" height="30.2439" rx="15.122" fill="#3D4C60"/>
<mask id="mask0_625_1023" style="mask-type:alpha" maskUnits="userSpaceOnUse" x="0" y="0" width="32" height="31">
<rect x="0.87793" width="30.2439" height="30.2439" rx="15.122" fill="#D8E9FE"/>
</mask>
<g mask="url(#mask0_625_1023)">
</g>
<g clip-path="url(#clip0_625_1023)">
<path d="M15.9998 18.0674C10.8628 18.0674 6.46614 21.4226 4.6582 26.1752C7.52217 29.1495 11.5449 31 15.9998 31C20.4548 31 24.4772 29.1495 27.3415 26.1752C25.5339 21.4222 21.1373 18.0674 15.9998 18.0674Z" fill="white"/>
<path fill-rule="evenodd" clip-rule="evenodd" d="M9.97949 19.7794C10.713 20.8894 12.5598 22.2868 17.2109 22.2868C20.5102 22.2868 22.398 21.5834 23.479 20.7786C21.419 19.0882 18.8328 18.082 16.0244 18.082C13.8245 18.082 11.7611 18.6993 9.97984 19.7794H9.97949Z" fill="#E5E5E6"/>
<path fill-rule="evenodd" clip-rule="evenodd" d="M16.0161 7.56104C20.1645 7.56104 22.3054 9.223 23.1993 10.7655C23.1993 10.7655 23.7579 11.7654 23.7579 13.0049V17.2075C23.7579 17.2075 23.7579 21.0661 16.0161 21.0661C8.27441 21.0661 8.27441 17.2075 8.27441 17.2075V13.0132C8.37613 11.6217 8.91386 10.7655 8.91386 10.7655C9.80741 9.223 11.8677 7.56104 16.0161 7.56104Z" fill="white"/>
<path d="M18.9348 18.1476H13.1096C11.5114 18.1476 10.2158 16.8519 10.2158 15.2535C10.2158 13.6551 11.5114 12.3594 13.1096 12.3594H18.9348C20.533 12.3594 21.8286 13.6551 21.8286 15.2535C21.8286 16.8519 20.533 18.1476 18.9348 18.1476Z" fill="#231300"/>
<path d="M18.9144 16.3364C19.5122 16.3364 19.9968 15.8518 19.9968 15.2539C19.9968 14.656 19.5122 14.1714 18.9144 14.1714C18.3166 14.1714 17.832 14.656 17.832 15.2539C17.832 15.8518 18.3166 16.3364 18.9144 16.3364Z" fill="white"/>
<path d="M14.1464 15.4295C14.2431 14.8395 13.8432 14.2828 13.2533 14.1861C12.6634 14.0894 12.1068 14.4892 12.0101 15.0792C11.9134 15.6692 12.3132 16.2259 12.9031 16.3226C13.493 16.4193 14.0497 16.0194 14.1464 15.4295Z" fill="white"/>
</g>
<defs>
<clipPath id="clip0_625_1023">
<rect width="22.6829" height="23.439" fill="white" transform="translate(4.6582 7.56104)"/>
</clipPath>
</defs>
</svg>
