<svg width="40" height="41" viewBox="0 0 40 41"  fill="none" xmlns="http://www.w3.org/2000/svg">
<rect width="40" height="40" rx="20" style="border-color:green" fill="transparent"/>
<mask id="mask0_476_7493" style="mask-type:alpha" maskUnits="userSpaceOnUse" x="0" y="0" width="40" height="40">
<rect width="40" height="40" rx="20" fill="#D8E9FE"/>
</mask>
<g mask="url(#mask0_476_7493)">
</g>
<g clip-path="url(#clip0_476_7493)">
<path d="M20.0002 23.8955C13.206 23.8955 7.39115 28.333 5 34.6187C8.78782 38.5525 14.1082 40.9999 20.0002 40.9999C25.8922 40.9999 31.2122 38.5525 35.0005 34.6187C32.6098 28.3325 26.7949 23.8955 20.0002 23.8955Z" fill="rgb(0, 0, 255)"/>
<path fill-rule="evenodd" clip-rule="evenodd" d="M12.0381 26.16C13.0082 27.6279 15.4508 29.4761 21.6022 29.4761C25.9658 29.4761 28.4625 28.5458 29.8923 27.4815C27.1678 25.2457 23.7473 23.915 20.0329 23.915C17.1234 23.915 14.3943 24.7315 12.0385 26.16H12.0381Z" fill="rgb(0, 0, 255)"/>
<path fill-rule="evenodd" clip-rule="evenodd" d="M20.0213 10C25.5079 10 28.3393 12.1981 29.5216 14.2382C29.5216 14.2382 30.2603 15.5606 30.2603 17.1999V22.7583C30.2603 22.7583 30.2603 27.8615 20.0213 27.8615C9.78223 27.8615 9.78223 22.7583 9.78223 22.7583V17.2109C9.91675 15.3705 10.6279 14.2382 10.6279 14.2382C11.8097 12.1981 14.5347 10 20.0213 10Z" fill="rgb(0, 0, 255)"/>
<path d="M23.8811 24.0016H16.1769C14.0631 24.0016 12.3496 22.2879 12.3496 20.1739C12.3496 18.0598 14.0631 16.3462 16.1769 16.3462H23.8811C25.9949 16.3462 27.7084 18.0598 27.7084 20.1739C27.7084 22.2879 25.9949 24.0016 23.8811 24.0016Z" fill="#231300"/>
<path d="M23.8554 21.6056C24.646 21.6056 25.287 20.9646 25.287 20.1739C25.287 19.3832 24.646 18.7422 23.8554 18.7422C23.0648 18.7422 22.4238 19.3832 22.4238 20.1739C22.4238 20.9646 23.0648 21.6056 23.8554 21.6056Z" fill="white"/>
<path d="M17.5487 20.4058C17.6766 19.6255 17.1478 18.8893 16.3676 18.7614C15.5874 18.6335 14.8512 19.1623 14.7233 19.9426C14.5954 20.7229 15.1242 21.4592 15.9044 21.5871C16.6846 21.715 17.4208 21.1861 17.5487 20.4058Z" fill="white"/>
</g>
<defs>
<clipPath id="clip0_476_7493">
<rect width="30" height="31" fill="rgb(0, 0, 255)" transform="translate(5 10)"/>
</clipPath>
</defs>
</svg>
