<svg width="24" height="24" viewBox="0 0 24 24" fill="none" stroke="rgb(120, 239, 166,0.2)" xmlns="http://www.w3.org/2000/svg">
    <rect width="24" height="24" rx="4"  fill="#ccccdc26"/>
    <path d="M10.0742 14.3766V17.0186C10.0742 17.5441 10.283 18.0481 10.6546 18.4196C11.0262 18.7912 11.5302 19 12.0557 19L14.6976 13.0557V5.79039H7.24738C6.92881 5.78679 6.61968 5.89845 6.37693 6.10478C6.13418 6.31111 5.97419 6.59822 5.92642 6.91321L5.01496 12.8575C4.98622 13.0469 4.99899 13.2402 5.05238 13.4241C5.10577 13.608 5.1985 13.778 5.32416 13.9225C5.44981 14.067 5.60538 14.1825 5.78008 14.2609C5.95478 14.3393 6.14444 14.3788 6.33592 14.3766H10.0742ZM14.6976 5.79039H16.679C17.0294 5.79039 17.3654 5.92957 17.6131 6.1773C17.8608 6.42502 18 6.76101 18 7.11135V11.7347C18 12.0851 17.8608 12.421 17.6131 12.6688C17.3654 12.9165 17.0294 13.0557 16.679 13.0557H14.6976" fill="rgb(120, 239, 166, 0.7)"/>
    <path d="M14.6976 13.0557L12.0557 19C11.5302 19 11.0262 18.7912 10.6546 18.4196C10.283 18.0481 10.0742 17.5441 10.0742 17.0186V14.3766H6.33592C6.14444 14.3788 5.95478 14.3393 5.78008 14.2609C5.60537 14.1825 5.44981 14.067 5.32416 13.9225C5.1985 13.778 5.10577 13.608 5.05238 13.4241C4.99899 13.2402 4.98622 13.0469 5.01496 12.8575L5.92642 6.91321C5.97419 6.59822 6.13419 6.31111 6.37693 6.10478C6.61968 5.89845 6.92881 5.78679 7.24738 5.79039H14.6976M14.6976 13.0557V5.79039M14.6976 13.0557H16.679C17.0294 13.0557 17.3654 12.9165 17.6131 12.6688C17.8608 12.421 18 12.0851 18 11.7347V7.11136C18 6.76101 17.8608 6.42502 17.6131 6.1773C17.3654 5.92957 17.0294 5.79039 16.679 5.79039H14.6976" stroke="none" stroke-width="1.32096" stroke-linecap="round" stroke-linejoin="round"/>
    </svg>
    