<svg width="201" height="272" viewBox="0 0 201 272" fill="none" xmlns="http://www.w3.org/2000/svg">
<path d="M102.675 66.0955C64.5468 62.4785 47.0806 70.3365 28.5796 107.82C23.6335 117.84 21.2441 125.875 21.2847 132.313C21.4318 157.378 53.0768 158.276 63.6793 158.276H151.294C151.294 158.276 150.655 70.6459 102.675 66.0955Z" fill="#78C2B8"/>
<path d="M151.294 158.555H63.6791C35.859 158.555 21.1018 149.479 21.0004 132.312C20.9649 125.809 23.3593 117.753 28.3257 107.693C46.2231 71.432 62.908 62.0369 102.7 65.8162C122.444 67.6881 137.161 84.2868 145.252 113.816C151.35 136.071 151.578 158.053 151.578 158.271C151.578 158.347 151.548 158.418 151.497 158.474C151.446 158.529 151.37 158.555 151.294 158.555ZM87.9481 65.6032C58.6924 65.6032 44.2142 76.7687 28.833 107.937C23.9072 117.92 21.528 125.89 21.5635 132.307C21.6599 149.109 36.2243 157.987 63.674 157.987H151.005C150.959 155.338 150.401 134.763 144.699 113.948C139.104 93.5297 127.268 68.7027 102.644 66.3692C97.3533 65.867 92.4731 65.5981 87.9481 65.5981V65.6032Z" fill="#3D4D62"/>
<path d="M74.6475 43.5161C74.8453 55.1535 75.9867 66.0045 75.9867 66.0045C75.1649 73.6646 82.5714 72.437 88.314 71.4934C96.4561 70.1542 96.8365 65.7103 96.8365 65.7103C94.5841 63.5593 94.3711 56.5384 94.3711 56.5384L74.6475 43.5161Z" fill="white"/>
<path d="M82.064 72.4722C80.0501 72.4722 78.2339 72.112 77.057 70.9959C75.9207 69.9205 75.4692 68.2312 75.7076 65.9737C75.6975 65.923 74.5611 55.0314 74.3633 43.5158C74.3633 43.4092 74.4191 43.3129 74.5104 43.2621C74.6017 43.2114 74.7133 43.2165 74.8046 43.2723L94.5282 56.2945C94.6043 56.3453 94.65 56.4315 94.6551 56.5228C94.6551 56.5938 94.8884 63.4575 97.0343 65.5019C97.0952 65.5628 97.1256 65.644 97.1205 65.7302C97.1053 65.923 96.6284 70.4075 88.3646 71.767C86.3557 72.0968 84.1084 72.4671 82.0691 72.4671L82.064 72.4722ZM74.9416 44.0484C75.1648 55.3408 76.2606 65.8722 76.2707 65.9788C76.0475 68.1399 76.428 69.6262 77.4476 70.5901C79.6189 72.6446 84.4077 71.8533 88.253 71.2242C95.3146 70.0625 96.39 66.5216 96.5371 65.8165C94.4775 63.6655 94.1427 57.7403 94.097 56.7004L74.9416 44.0535V44.0484Z" fill="#3D4D62"/>
<path d="M91.566 13.266C72.7606 14.9706 75.1803 29.672 75.1803 29.672C71.3706 30.0981 69.874 33.5578 70.6857 37.5756C71.3553 40.9035 74.2571 42.121 74.2571 42.121C76.0123 56.5738 88.7251 59.648 94.3713 56.5383C100.017 53.4286 103.736 49.776 104.598 45.6822C105.461 41.5883 105.659 31.4881 106.475 26.826C107.348 21.819 106.917 11.871 91.566 13.266Z" fill="white"/>
<path d="M89.6178 57.9182C87.4212 57.9182 85.0623 57.3652 82.9418 56.2796C80.0705 54.8085 75.1091 51.0443 73.9982 42.3138C73.3691 42.0043 71.0204 40.6651 70.4065 37.6365C69.9144 35.1964 70.2493 33.01 71.3602 31.4932C72.177 30.3771 73.3843 29.6669 74.8656 29.4387C74.7287 28.2262 74.4497 23.4881 77.6608 19.3384C80.4662 15.7113 85.1384 13.5756 91.5404 12.9972C97.5519 12.4544 101.894 13.5806 104.446 16.3555C107.475 19.6479 107.19 24.3657 106.749 26.887C106.358 29.1089 106.105 32.6397 105.861 36.0538C105.598 39.7672 105.319 43.6023 104.867 45.7532C104.025 49.7558 100.535 53.4743 94.503 56.7971C93.1283 57.5529 91.4237 57.9283 89.6127 57.9283L89.6178 57.9182ZM91.5911 13.5502C85.3565 14.1133 80.8162 16.1729 78.1123 19.6682C74.6171 24.178 75.449 29.5756 75.4592 29.6264C75.4693 29.7024 75.4541 29.7785 75.4034 29.8445C75.3577 29.9054 75.2867 29.9459 75.2106 29.9561C73.7395 30.1235 72.598 30.7475 71.8168 31.8229C70.8022 33.2129 70.4978 35.237 70.9595 37.5249C71.5885 40.66 74.3381 41.8521 74.3634 41.8623C74.4547 41.9029 74.5207 41.9891 74.5359 42.0906C75.5809 50.674 80.4104 54.3519 83.1954 55.7825C86.9037 57.6848 91.3375 57.8877 94.2291 56.2999C100.114 53.0583 103.507 49.4717 104.314 45.6366C104.761 43.5262 105.034 39.7063 105.298 36.0132C105.542 32.5839 105.795 29.0379 106.191 26.7906C106.612 24.3708 106.891 19.8508 104.025 16.736C101.595 14.0981 97.4098 13.0277 91.5861 13.5603L91.5911 13.5502Z" fill="#3D4D62"/>
<path d="M93.6245 29.3468C93.4672 29.3366 89.7589 29.154 86.6796 32.0912C86.5274 32.2384 86.5223 32.4819 86.6644 32.6391C86.7658 32.7507 86.918 32.7862 87.0499 32.7457C87.1057 32.7304 87.1565 32.7 87.197 32.6594C90.0328 29.9555 93.5382 30.1179 93.5839 30.1179C93.7919 30.1331 93.9745 29.9657 93.9846 29.7526C93.9948 29.5396 93.8375 29.3569 93.6245 29.3468Z" fill="#3D4D62"/>
<path d="M99.6363 30.5188C98.8247 30.6101 98.571 30.0673 98.5457 29.9963C98.4696 29.7984 98.2514 29.702 98.0536 29.7832C97.8608 29.8593 97.7644 30.0876 97.8405 30.2854C97.9927 30.6862 98.5913 31.4116 99.7226 31.2848C101.067 31.1377 102.218 31.5283 103.142 32.4566C103.243 32.5581 103.39 32.5885 103.522 32.548C103.583 32.5277 103.634 32.4972 103.679 32.4516C103.827 32.2994 103.822 32.0559 103.679 31.9037C102.589 30.8029 101.224 30.3362 99.6414 30.5188H99.6363Z" fill="#3D4D62"/>
<path d="M90.3379 44.3475C90.1452 44.0634 90.1756 43.8757 90.1807 43.8504C90.2415 43.6525 90.135 43.4395 89.9422 43.3735C89.7444 43.3076 89.5263 43.4141 89.4603 43.612C89.44 43.6627 89.3031 44.1243 89.6632 44.7128C90.4546 45.9759 92.9099 46.8434 96.9683 47.2797C97.019 47.2797 97.0697 47.2797 97.1205 47.2645C97.2625 47.2188 97.369 47.092 97.3843 46.9347C97.4046 46.7217 97.2574 46.534 97.0444 46.5086C92.1439 45.981 90.7387 44.9258 90.3379 44.3425V44.3475Z" fill="#3D4D62"/>
<path d="M97.744 38.3969C97.0642 38.1787 96.2475 38.4882 95.3242 39.31C95.167 39.4521 95.1517 39.6956 95.2887 39.8579C95.4308 40.0202 95.6641 40.0354 95.8214 39.8934C96.5214 39.2694 97.1048 39.0056 97.5107 39.1325C97.9622 39.2745 98.1245 39.8782 98.1296 39.8883C98.1854 40.0912 98.3883 40.2181 98.5912 40.1673C98.5963 40.1673 98.6064 40.1673 98.6064 40.1673C98.8043 40.1065 98.9209 39.8985 98.8702 39.7006C98.8601 39.66 98.6064 38.6759 97.744 38.402V38.3969Z" fill="#3D4D62"/>
<path d="M73.4844 34.7139L73.9156 35.3481C74.2504 35.1147 75.2751 34.5719 76.0208 34.856C76.452 35.0234 76.7615 35.4647 76.9441 36.1648L77.6797 35.972C77.4362 35.0082 76.9695 34.3893 76.2897 34.1306C75.0265 33.6486 73.5503 34.6683 73.4894 34.7089L73.4844 34.7139Z" fill="#3D4D62"/>
<path d="M96.3541 1.72978C78.2539 -3.95699 73.7998 6.19904 73.7998 6.19904C54.4009 8.51738 59.3876 43.7541 59.9659 49.1009C60.5493 54.4428 58.9868 55.3255 58.9868 55.3255C66.3426 64.2843 79.9939 63.569 79.9939 63.569C75.0224 60.6216 81.0744 44.5657 74.4289 41.6539C71.2684 40.274 66.5354 33.0299 74.9514 30.3108C83.3623 27.5917 85.8887 27.9163 85.8887 27.9163C87.3649 25.4458 90.6166 22.5086 90.6166 22.5086C89.7441 24.9131 88.2831 27.4699 88.2831 27.4699L92.2349 26.9372C96.5216 22.2854 97.9369 16.8979 97.9369 16.8979C100.56 22.0216 98.9616 26.5263 98.9616 26.5263C104.476 24.1928 106.475 26.8307 106.475 26.8307C106.475 26.8307 105.348 41.8517 103.603 48.4465C101.655 52.7941 94.3706 56.543 94.3706 56.543L94.741 59.4498C107.652 59.7896 115.784 54.5747 115.784 54.5747C106.348 55.087 106.997 37.3622 108.681 31.6551C110.366 25.948 114.454 7.42162 96.3491 1.73485L96.3541 1.72978Z" fill="#3D4D62"/>
<path d="M89.6265 33.2985C89.0533 33.4761 88.7185 34.0341 88.8707 34.5414C89.0229 35.0487 89.6113 35.3125 90.1795 35.1349C90.7527 34.9574 91.0875 34.3993 90.9354 33.8921C90.7832 33.3848 90.1947 33.1159 89.6265 33.2985Z" fill="#3D4D62"/>
<path d="M99.5748 33.6182C99.0015 33.7958 98.6667 34.3538 98.8189 34.8611C98.9711 35.3633 99.5545 35.6322 100.128 35.4546C100.696 35.2771 101.036 34.719 100.884 34.2168C100.731 33.7095 100.143 33.4406 99.5748 33.6182Z" fill="#3D4D62"/>
<path d="M65.5052 136.077C61.1222 132.389 54.4056 128 47.2832 128V128.777C60.5084 128.777 72.6429 144.447 72.7697 144.604L73.3683 144.132C73.3379 144.092 70.2383 140.059 65.5103 136.082L65.5052 136.077Z" fill="#3D4D62"/>
<path d="M55.8262 130.131L56.1407 130.831C64.3842 127.042 65.9924 115.44 66.0532 114.948L65.3024 114.846C65.2872 114.963 63.6791 126.514 55.8262 130.131Z" fill="#3D4D62"/>
<path d="M99.3629 152.7C96.2734 150.504 91.2512 148.556 91.2512 148.556C93.2906 147.338 93.6457 146.364 93.9653 145.162C94.3407 143.772 93.5087 142.874 92.692 143.133C91.2766 143.574 88.8923 144.056 85.6761 143.736C80.2379 143.199 74.0337 144.817 74.0337 144.817L71.9893 158.265H103.756C103.756 158.265 102.452 154.892 99.3629 152.69V152.7Z" fill="white"/>
<path d="M103.756 158.555H71.9895C71.9084 158.555 71.8272 158.519 71.7765 158.458C71.7207 158.397 71.7004 158.311 71.7105 158.23L73.7549 144.782C73.7701 144.67 73.8513 144.579 73.9629 144.548C74.0238 144.533 80.2737 142.925 85.7017 143.458C88.852 143.772 91.1957 143.305 92.606 142.864C93.0372 142.727 93.4938 142.839 93.8286 143.163C94.3105 143.625 94.4627 144.401 94.2344 145.238C93.9148 146.43 93.5445 147.384 91.8653 148.5C93.235 149.063 97.0194 150.692 99.5204 152.467C102.645 154.689 103.959 158.027 104.015 158.169C104.051 158.255 104.035 158.357 103.985 158.433C103.934 158.509 103.843 158.555 103.751 158.555H103.756ZM72.3193 157.992H103.325C102.889 157.058 101.58 154.623 99.2008 152.929C96.1773 150.778 91.2008 148.84 91.1501 148.82C91.0486 148.779 90.9826 148.688 90.9725 148.581C90.9623 148.475 91.0182 148.368 91.1095 148.312C93.0169 147.171 93.372 146.293 93.6967 145.091C93.8996 144.345 93.6967 143.818 93.4481 143.574C93.2553 143.392 93.022 143.331 92.7835 143.407C91.3225 143.863 88.8977 144.34 85.656 144.021C80.8418 143.544 75.3478 144.797 74.2927 145.05L72.3243 157.986L72.3193 157.992Z" fill="#3D4D62"/>
<path d="M72.5261 143.757C65.8552 148.15 67.0676 158.271 67.0676 158.271H73.6168C78.0252 155.978 74.0125 152.269 74.0125 152.269C78.5223 150.737 74.8039 145.461 74.8039 145.461C78.1317 145.025 77.4874 142.621 77.4874 142.621L72.5261 143.757Z" fill="white"/>
<path d="M73.617 158.555H67.0678C66.9257 158.555 66.804 158.448 66.7888 158.306C66.7786 158.205 65.6321 147.963 72.3741 143.524C72.3995 143.504 72.435 143.493 72.4654 143.483L77.4267 142.347C77.5739 142.316 77.7261 142.403 77.7616 142.55C77.7717 142.59 78.0152 143.539 77.4267 144.422C77.0057 145.051 76.2853 145.472 75.2707 145.67C75.7983 146.527 76.9448 148.698 76.3614 150.479C76.0875 151.326 75.4635 151.965 74.5047 152.381C75.0577 152.99 76.1331 154.4 75.9353 155.902C75.7933 156.957 75.0577 157.84 73.7438 158.525C73.7032 158.545 73.6575 158.555 73.6119 158.555H73.617ZM67.3265 157.992H73.5459C74.6468 157.403 75.2657 156.678 75.3773 155.831C75.6005 154.162 73.8351 152.498 73.8148 152.483C73.7438 152.417 73.7083 152.315 73.7286 152.219C73.7489 152.122 73.8199 152.041 73.9163 152.011C74.9258 151.666 75.57 151.098 75.8237 150.316C76.4629 148.363 74.5859 145.66 74.5656 145.634C74.5098 145.553 74.4997 145.446 74.5402 145.355C74.5808 145.264 74.662 145.203 74.7635 145.188C75.8338 145.046 76.5745 144.686 76.955 144.112C77.234 143.691 77.2644 143.245 77.2492 142.971L72.6379 144.026C66.8141 147.907 67.1997 156.429 67.3265 157.992Z" fill="#3D4D62"/>
<path d="M77.7818 69.6161C75.8033 67.6478 75.986 66.0092 75.986 66.0092C75.986 66.0092 66.4488 63.3358 67.6004 69.611C68.2852 73.3498 73.414 71.625 73.414 71.625C73.414 71.625 73.4901 78.0828 80.2675 78.3821C86.979 78.6814 88.3183 71.4981 88.3183 71.4981C84.7571 72.4366 79.7095 71.5235 77.7869 69.6161H77.7818Z" fill="white"/>
<path d="M80.6628 78.6711C80.5259 78.6711 80.3889 78.6711 80.2469 78.6609C74.2405 78.392 73.2969 73.4003 73.1498 71.99C72.3178 72.2132 70.1923 72.6495 68.716 71.782C67.9653 71.3406 67.4935 70.6203 67.3159 69.6564C67.042 68.1548 67.3311 67.0033 68.1732 66.2373C70.4256 64.1827 75.8283 65.6691 76.0566 65.735C76.1885 65.7706 76.2747 65.9024 76.2595 66.0394C76.2595 66.0546 76.1327 67.5816 77.9742 69.4129C79.8207 71.2493 84.8024 72.127 88.2317 71.2189C88.323 71.1935 88.4244 71.2189 88.4955 71.2848C88.5665 71.3508 88.5969 71.4472 88.5817 71.5436C88.5665 71.6146 87.1765 78.6711 80.6527 78.6711H80.6628ZM73.4085 71.3406C73.4643 71.3406 73.5252 71.3559 73.5709 71.3914C73.6419 71.4421 73.6875 71.5283 73.6926 71.6197C73.6926 71.8733 73.8499 77.8137 80.2722 78.0978C85.7967 78.3464 87.5265 73.4003 87.9324 71.8733C84.3204 72.6545 79.5011 71.7211 77.5836 69.8137C75.9602 68.2005 75.7218 66.7801 75.7015 66.222C74.6971 65.9735 70.3495 65.0198 68.5588 66.6532C67.8689 67.2823 67.6406 68.2563 67.8739 69.555C68.0211 70.3514 68.4015 70.9399 69.0052 71.295C70.6083 72.2436 73.2918 71.3609 73.3172 71.3508C73.3476 71.3406 73.3781 71.3356 73.4085 71.3356V71.3406Z" fill="#3D4D62"/>
<path d="M96.8366 65.7101C96.8366 65.7101 95.6495 69.4032 88.314 71.4932C88.314 71.4932 87.6139 80.8224 96.0452 78.225C101.174 76.6473 97.8207 71.2041 97.8207 71.2041C97.8207 71.2041 104.583 71.9143 103.472 67.0087C102.513 62.7678 96.8315 65.7101 96.8315 65.7101H96.8366Z" fill="white"/>
<path d="M93.3414 78.9655C92.1188 78.9655 91.0839 78.6358 90.2519 77.9712C87.7256 75.9572 88.0198 71.6605 88.03 71.4778C88.0401 71.3612 88.1213 71.2597 88.2329 71.2293C95.3046 69.2153 96.5525 65.6642 96.5627 65.6287C96.583 65.5577 96.6337 65.5019 96.6997 65.4664C96.8315 65.3954 100.012 63.7771 102.123 64.7562C102.96 65.1468 103.508 65.8874 103.751 66.9528C104.045 68.2464 103.842 69.2965 103.152 70.0726C101.904 71.4778 99.4086 71.559 98.3179 71.5235C98.7694 72.4163 99.5912 74.4252 98.9419 76.1551C98.5259 77.2661 97.5773 78.0524 96.1315 78.4988C95.1169 78.8133 94.1835 78.9655 93.3464 78.9655H93.3414ZM88.588 71.7112C88.5626 72.5533 88.5982 75.9268 90.607 77.5299C91.855 78.5242 93.6559 78.6662 95.9641 77.956C97.2374 77.5654 98.0592 76.8907 98.4143 75.9522C99.1651 73.9636 97.6026 71.3764 97.5874 71.351C97.5316 71.2597 97.5316 71.143 97.5874 71.0517C97.6432 70.9604 97.7498 70.9097 97.8563 70.9198C97.8918 70.9198 101.336 71.2597 102.731 69.6871C103.294 69.053 103.452 68.1753 103.203 67.0694C103 66.1817 102.559 65.5729 101.889 65.2584C100.22 64.4822 97.5925 65.6592 97.0598 65.9128C96.791 66.5774 95.1727 69.7784 88.588 71.7061V71.7112Z" fill="#3D4D62"/>
<path d="M177.476 101.748H123.601C122.678 101.748 121.876 102.417 121.607 103.411L108.925 150.397C108.732 151.112 108.849 151.873 109.245 152.482C109.645 153.086 110.254 153.431 110.919 153.431H164.793C165.717 153.431 166.518 152.761 166.787 151.767L179.474 104.781C179.667 104.061 179.551 103.3 179.155 102.696C178.759 102.093 178.145 101.748 177.481 101.748H177.476Z" fill="#3D4D62"/>
<path d="M164.788 153.715H110.913C110.153 153.715 109.452 153.324 109.001 152.64C108.56 151.965 108.433 151.123 108.646 150.326L121.328 103.341C121.633 102.22 122.546 101.469 123.596 101.469H177.471C178.231 101.469 178.926 101.859 179.378 102.544C179.819 103.214 179.951 104.056 179.738 104.857L167.051 151.843C166.751 152.964 165.838 153.715 164.783 153.715H164.788ZM123.601 102.032C122.81 102.032 122.115 102.615 121.876 103.488L109.194 150.473C109.021 151.113 109.123 151.787 109.478 152.33C109.823 152.853 110.345 153.152 110.919 153.152H164.793C165.59 153.152 166.28 152.569 166.513 151.696L179.2 104.715C179.373 104.071 179.271 103.396 178.916 102.859C178.571 102.336 178.049 102.037 177.481 102.037H123.606L123.601 102.032Z" fill="#3D4D62"/>
<path d="M175.797 101.748H121.922C120.999 101.748 120.198 102.417 119.929 103.411L107.246 150.397C107.054 151.112 107.17 151.873 107.566 152.482C107.967 153.086 108.575 153.431 109.24 153.431H163.115C164.038 153.431 164.845 152.761 165.108 151.767L177.796 104.781C177.989 104.061 177.872 103.3 177.476 102.696C177.08 102.093 176.467 101.748 175.802 101.748H175.797Z" fill="white"/>
<path d="M163.109 153.715H109.235C108.474 153.715 107.774 153.324 107.322 152.64C106.881 151.965 106.754 151.123 106.967 150.326L119.65 103.341C119.954 102.22 120.867 101.469 121.917 101.469H175.792C176.553 101.469 177.248 101.859 177.699 102.544C178.141 103.214 178.273 104.056 178.054 104.857L165.367 151.843C165.068 152.964 164.154 153.715 163.099 153.715H163.109ZM121.922 102.032C121.131 102.032 120.436 102.615 120.197 103.488L107.515 150.473C107.343 151.113 107.444 151.787 107.799 152.33C108.144 152.853 108.667 153.152 109.24 153.152H163.115C163.911 153.152 164.601 152.569 164.834 151.696L177.522 104.715C177.694 104.071 177.593 103.396 177.238 102.859C176.893 102.336 176.37 102.037 175.802 102.037H121.927L121.922 102.032Z" fill="#3D4D62"/>
<path d="M80.6377 153.431C80.6377 156.105 82.6821 158.276 85.1983 158.276H152.988C155.509 158.276 157.549 156.105 157.549 153.431H80.6377Z" fill="#3D4D62"/>
<path d="M152.988 158.56H85.1982C82.5298 158.56 80.3535 156.262 80.3535 153.431C80.3535 153.274 80.4803 153.147 80.6376 153.147H157.549C157.706 153.147 157.833 153.274 157.833 153.431C157.833 156.257 155.661 158.56 152.988 158.56ZM80.9268 153.715C81.0637 156.099 82.9255 157.997 85.1982 157.997H152.988C155.261 157.997 157.122 156.099 157.259 153.715H80.9268Z" fill="#3D4D62"/>
<path d="M129.536 153.431C129.536 156.105 131.581 158.276 134.097 158.276H162.105C164.621 158.276 166.665 156.105 166.665 153.431H129.531H129.536Z" fill="#78C2B8"/>
<path d="M162.109 158.56H134.102C131.433 158.56 129.257 156.262 129.257 153.431C129.257 153.274 129.384 153.147 129.541 153.147H166.675C166.832 153.147 166.959 153.274 166.959 153.431C166.959 156.257 164.788 158.56 162.114 158.56H162.109ZM129.83 153.715C129.967 156.099 131.829 157.997 134.102 157.997H162.109C164.377 157.997 166.244 156.099 166.381 153.715H129.83Z" fill="#3D4D62"/>
<path d="M159.919 107.305C159.919 120.143 149.514 130.548 136.677 130.548C123.839 130.548 113.435 120.143 113.435 107.305C113.435 94.4678 123.839 84.063 136.677 84.063C149.514 84.063 159.919 94.4678 159.919 107.305Z" fill="#3D4D62"/>
<path d="M136.677 130.907C123.66 130.907 113.075 120.316 113.075 107.305C113.075 94.2946 123.666 83.7036 136.677 83.7036C149.688 83.7036 160.279 94.2946 160.279 107.305C160.279 120.316 149.688 130.907 136.677 130.907ZM136.677 84.4161C124.058 84.4161 113.788 94.6861 113.788 107.305C113.788 119.925 124.058 130.195 136.677 130.195C149.296 130.195 159.566 119.925 159.566 107.305C159.566 94.6861 149.296 84.4161 136.677 84.4161Z" fill="#3D4D62"/>
<path d="M146.809 101.459L134.602 113.296L129.054 107.915" stroke="white" stroke-width="4.29087" stroke-linecap="round" stroke-linejoin="round"/>
<path d="M32.7969 229.625L35.75 235.336L38.7109 229.625H40.4219L36.5 236.75V241H34.9922V236.75L31.0703 229.625H32.7969ZM40.7656 236.867V236.688C40.7656 236.078 40.8542 235.513 41.0312 234.992C41.2083 234.466 41.4635 234.01 41.7969 233.625C42.1302 233.234 42.5339 232.932 43.0078 232.719C43.4818 232.5 44.013 232.391 44.6016 232.391C45.1953 232.391 45.7292 232.5 46.2031 232.719C46.6823 232.932 47.0885 233.234 47.4219 233.625C47.7604 234.01 48.0182 234.466 48.1953 234.992C48.3724 235.513 48.4609 236.078 48.4609 236.688V236.867C48.4609 237.477 48.3724 238.042 48.1953 238.562C48.0182 239.083 47.7604 239.539 47.4219 239.93C47.0885 240.315 46.6849 240.617 46.2109 240.836C45.7422 241.049 45.2109 241.156 44.6172 241.156C44.0234 241.156 43.4896 241.049 43.0156 240.836C42.5417 240.617 42.1354 240.315 41.7969 239.93C41.4635 239.539 41.2083 239.083 41.0312 238.562C40.8542 238.042 40.7656 237.477 40.7656 236.867ZM42.2109 236.688V236.867C42.2109 237.289 42.2604 237.688 42.3594 238.062C42.4583 238.432 42.6068 238.76 42.8047 239.047C43.0078 239.333 43.2604 239.56 43.5625 239.727C43.8646 239.888 44.2161 239.969 44.6172 239.969C45.013 239.969 45.3594 239.888 45.6562 239.727C45.9583 239.56 46.2083 239.333 46.4062 239.047C46.6042 238.76 46.7526 238.432 46.8516 238.062C46.9557 237.688 47.0078 237.289 47.0078 236.867V236.688C47.0078 236.271 46.9557 235.878 46.8516 235.508C46.7526 235.133 46.6016 234.802 46.3984 234.516C46.2005 234.224 45.9505 233.995 45.6484 233.828C45.3516 233.661 45.0026 233.578 44.6016 233.578C44.2057 233.578 43.8568 233.661 43.5547 233.828C43.2578 233.995 43.0078 234.224 42.8047 234.516C42.6068 234.802 42.4583 235.133 42.3594 235.508C42.2604 235.878 42.2109 236.271 42.2109 236.688ZM55.4453 239.047V232.547H56.8984V241H55.5156L55.4453 239.047ZM55.7188 237.266L56.3203 237.25C56.3203 237.812 56.2604 238.333 56.1406 238.812C56.026 239.286 55.8385 239.698 55.5781 240.047C55.3177 240.396 54.9766 240.669 54.5547 240.867C54.1328 241.06 53.6198 241.156 53.0156 241.156C52.6042 241.156 52.2266 241.096 51.8828 240.977C51.5443 240.857 51.2526 240.672 51.0078 240.422C50.763 240.172 50.5729 239.846 50.4375 239.445C50.3073 239.044 50.2422 238.562 50.2422 238V232.547H51.6875V238.016C51.6875 238.396 51.7292 238.711 51.8125 238.961C51.901 239.206 52.0182 239.401 52.1641 239.547C52.3151 239.688 52.4818 239.786 52.6641 239.844C52.8516 239.901 53.0443 239.93 53.2422 239.93C53.8568 239.93 54.3438 239.812 54.7031 239.578C55.0625 239.339 55.3203 239.018 55.4766 238.617C55.638 238.211 55.7188 237.76 55.7188 237.266ZM60.5469 233.875V241H59.1016V232.547H60.5078L60.5469 233.875ZM63.1875 232.5L63.1797 233.844C63.0599 233.818 62.9453 233.802 62.8359 233.797C62.7318 233.786 62.612 233.781 62.4766 233.781C62.1432 233.781 61.849 233.833 61.5938 233.938C61.3385 234.042 61.1224 234.188 60.9453 234.375C60.7682 234.562 60.6276 234.786 60.5234 235.047C60.4245 235.302 60.3594 235.583 60.3281 235.891L59.9219 236.125C59.9219 235.615 59.9714 235.135 60.0703 234.688C60.1745 234.24 60.3333 233.844 60.5469 233.5C60.7604 233.151 61.0312 232.88 61.3594 232.688C61.6927 232.49 62.0885 232.391 62.5469 232.391C62.651 232.391 62.7708 232.404 62.9062 232.43C63.0417 232.451 63.1354 232.474 63.1875 232.5ZM70.6484 241H69.2031V231.656C69.2031 231.047 69.3125 230.534 69.5312 230.117C69.7552 229.695 70.0755 229.378 70.4922 229.164C70.9089 228.945 71.4036 228.836 71.9766 228.836C72.1432 228.836 72.3099 228.846 72.4766 228.867C72.6484 228.888 72.8151 228.919 72.9766 228.961L72.8984 230.141C72.7891 230.115 72.6641 230.096 72.5234 230.086C72.388 230.076 72.2526 230.07 72.1172 230.07C71.8099 230.07 71.5443 230.133 71.3203 230.258C71.1016 230.378 70.9349 230.555 70.8203 230.789C70.7057 231.023 70.6484 231.312 70.6484 231.656V241ZM72.4453 232.547V233.656H67.8672V232.547H72.4453ZM73.6719 236.867V236.688C73.6719 236.078 73.7604 235.513 73.9375 234.992C74.1146 234.466 74.3698 234.01 74.7031 233.625C75.0365 233.234 75.4401 232.932 75.9141 232.719C76.388 232.5 76.9193 232.391 77.5078 232.391C78.1016 232.391 78.6354 232.5 79.1094 232.719C79.5885 232.932 79.9948 233.234 80.3281 233.625C80.6667 234.01 80.9245 234.466 81.1016 234.992C81.2786 235.513 81.3672 236.078 81.3672 236.688V236.867C81.3672 237.477 81.2786 238.042 81.1016 238.562C80.9245 239.083 80.6667 239.539 80.3281 239.93C79.9948 240.315 79.5911 240.617 79.1172 240.836C78.6484 241.049 78.1172 241.156 77.5234 241.156C76.9297 241.156 76.3958 241.049 75.9219 240.836C75.4479 240.617 75.0417 240.315 74.7031 239.93C74.3698 239.539 74.1146 239.083 73.9375 238.562C73.7604 238.042 73.6719 237.477 73.6719 236.867ZM75.1172 236.688V236.867C75.1172 237.289 75.1667 237.688 75.2656 238.062C75.3646 238.432 75.513 238.76 75.7109 239.047C75.9141 239.333 76.1667 239.56 76.4688 239.727C76.7708 239.888 77.1224 239.969 77.5234 239.969C77.9193 239.969 78.2656 239.888 78.5625 239.727C78.8646 239.56 79.1146 239.333 79.3125 239.047C79.5104 238.76 79.6589 238.432 79.7578 238.062C79.862 237.688 79.9141 237.289 79.9141 236.867V236.688C79.9141 236.271 79.862 235.878 79.7578 235.508C79.6589 235.133 79.5078 234.802 79.3047 234.516C79.1068 234.224 78.8568 233.995 78.5547 233.828C78.2578 233.661 77.9089 233.578 77.5078 233.578C77.112 233.578 76.763 233.661 76.4609 233.828C76.1641 233.995 75.9141 234.224 75.7109 234.516C75.513 234.802 75.3646 235.133 75.2656 235.508C75.1667 235.878 75.1172 236.271 75.1172 236.688ZM84.625 233.875V241H83.1797V232.547H84.5859L84.625 233.875ZM87.2656 232.5L87.2578 233.844C87.138 233.818 87.0234 233.802 86.9141 233.797C86.8099 233.786 86.6901 233.781 86.5547 233.781C86.2214 233.781 85.9271 233.833 85.6719 233.938C85.4167 234.042 85.2005 234.188 85.0234 234.375C84.8464 234.562 84.7057 234.786 84.6016 235.047C84.5026 235.302 84.4375 235.583 84.4062 235.891L84 236.125C84 235.615 84.0495 235.135 84.1484 234.688C84.2526 234.24 84.4115 233.844 84.625 233.5C84.8385 233.151 85.1094 232.88 85.4375 232.688C85.7708 232.49 86.1667 232.391 86.625 232.391C86.7292 232.391 86.849 232.404 86.9844 232.43C87.1198 232.451 87.2135 232.474 87.2656 232.5ZM90.0391 234.227V241H88.5859V232.547H89.9609L90.0391 234.227ZM89.7422 236.453L89.0703 236.43C89.0755 235.852 89.151 235.318 89.2969 234.828C89.4427 234.333 89.6589 233.904 89.9453 233.539C90.2318 233.174 90.5885 232.893 91.0156 232.695C91.4427 232.492 91.9375 232.391 92.5 232.391C92.8958 232.391 93.2604 232.448 93.5938 232.562C93.9271 232.672 94.2161 232.846 94.4609 233.086C94.7057 233.326 94.8958 233.633 95.0312 234.008C95.1667 234.383 95.2344 234.836 95.2344 235.367V241H93.7891V235.438C93.7891 234.995 93.7135 234.641 93.5625 234.375C93.4167 234.109 93.2083 233.917 92.9375 233.797C92.6667 233.672 92.349 233.609 91.9844 233.609C91.5573 233.609 91.2005 233.685 90.9141 233.836C90.6276 233.987 90.3984 234.195 90.2266 234.461C90.0547 234.727 89.9297 235.031 89.8516 235.375C89.7786 235.714 89.7422 236.073 89.7422 236.453ZM95.2188 235.656L94.25 235.953C94.2552 235.49 94.3307 235.044 94.4766 234.617C94.6276 234.19 94.8438 233.81 95.125 233.477C95.4115 233.143 95.763 232.88 96.1797 232.688C96.5964 232.49 97.0729 232.391 97.6094 232.391C98.0625 232.391 98.4635 232.451 98.8125 232.57C99.1667 232.69 99.4635 232.875 99.7031 233.125C99.9479 233.37 100.133 233.685 100.258 234.07C100.383 234.456 100.445 234.914 100.445 235.445V241H98.9922V235.43C98.9922 234.956 98.9167 234.589 98.7656 234.328C98.6198 234.062 98.4115 233.878 98.1406 233.773C97.875 233.664 97.5573 233.609 97.1875 233.609C96.8698 233.609 96.5885 233.664 96.3438 233.773C96.099 233.883 95.8932 234.034 95.7266 234.227C95.5599 234.414 95.4323 234.63 95.3438 234.875C95.2604 235.12 95.2188 235.38 95.2188 235.656ZM108.047 229V241H106.602V229H108.047ZM107.703 236.453L107.102 236.43C107.107 235.852 107.193 235.318 107.359 234.828C107.526 234.333 107.76 233.904 108.062 233.539C108.365 233.174 108.724 232.893 109.141 232.695C109.562 232.492 110.029 232.391 110.539 232.391C110.956 232.391 111.331 232.448 111.664 232.562C111.997 232.672 112.281 232.849 112.516 233.094C112.755 233.339 112.938 233.656 113.062 234.047C113.188 234.432 113.25 234.904 113.25 235.461V241H111.797V235.445C111.797 235.003 111.732 234.648 111.602 234.383C111.471 234.112 111.281 233.917 111.031 233.797C110.781 233.672 110.474 233.609 110.109 233.609C109.75 233.609 109.422 233.685 109.125 233.836C108.833 233.987 108.581 234.195 108.367 234.461C108.159 234.727 107.995 235.031 107.875 235.375C107.76 235.714 107.703 236.073 107.703 236.453ZM120.398 239.555V235.203C120.398 234.87 120.331 234.581 120.195 234.336C120.065 234.086 119.867 233.893 119.602 233.758C119.336 233.622 119.008 233.555 118.617 233.555C118.253 233.555 117.932 233.617 117.656 233.742C117.385 233.867 117.172 234.031 117.016 234.234C116.865 234.438 116.789 234.656 116.789 234.891H115.344C115.344 234.589 115.422 234.289 115.578 233.992C115.734 233.695 115.958 233.427 116.25 233.188C116.547 232.943 116.901 232.75 117.312 232.609C117.729 232.464 118.193 232.391 118.703 232.391C119.318 232.391 119.859 232.495 120.328 232.703C120.802 232.911 121.172 233.227 121.438 233.648C121.708 234.065 121.844 234.589 121.844 235.219V239.156C121.844 239.438 121.867 239.737 121.914 240.055C121.966 240.372 122.042 240.646 122.141 240.875V241H120.633C120.56 240.833 120.503 240.612 120.461 240.336C120.419 240.055 120.398 239.794 120.398 239.555ZM120.648 235.875L120.664 236.891H119.203C118.792 236.891 118.424 236.924 118.102 236.992C117.779 237.055 117.508 237.151 117.289 237.281C117.07 237.411 116.904 237.576 116.789 237.773C116.674 237.966 116.617 238.193 116.617 238.453C116.617 238.719 116.677 238.961 116.797 239.18C116.917 239.398 117.096 239.573 117.336 239.703C117.581 239.828 117.88 239.891 118.234 239.891C118.677 239.891 119.068 239.797 119.406 239.609C119.745 239.422 120.013 239.193 120.211 238.922C120.414 238.651 120.523 238.388 120.539 238.133L121.156 238.828C121.12 239.047 121.021 239.289 120.859 239.555C120.698 239.82 120.482 240.076 120.211 240.32C119.945 240.56 119.628 240.76 119.258 240.922C118.893 241.078 118.482 241.156 118.023 241.156C117.451 241.156 116.948 241.044 116.516 240.82C116.089 240.596 115.755 240.297 115.516 239.922C115.281 239.542 115.164 239.117 115.164 238.648C115.164 238.195 115.253 237.797 115.43 237.453C115.607 237.104 115.862 236.815 116.195 236.586C116.529 236.352 116.93 236.174 117.398 236.055C117.867 235.935 118.391 235.875 118.969 235.875H120.648ZM129.039 238.758C129.039 238.549 128.992 238.357 128.898 238.18C128.81 237.997 128.625 237.833 128.344 237.688C128.068 237.536 127.651 237.406 127.094 237.297C126.625 237.198 126.201 237.081 125.82 236.945C125.445 236.81 125.125 236.646 124.859 236.453C124.599 236.26 124.398 236.034 124.258 235.773C124.117 235.513 124.047 235.208 124.047 234.859C124.047 234.526 124.12 234.211 124.266 233.914C124.417 233.617 124.628 233.354 124.898 233.125C125.174 232.896 125.505 232.716 125.891 232.586C126.276 232.456 126.706 232.391 127.18 232.391C127.857 232.391 128.435 232.51 128.914 232.75C129.393 232.99 129.76 233.31 130.016 233.711C130.271 234.107 130.398 234.547 130.398 235.031H128.953C128.953 234.797 128.883 234.57 128.742 234.352C128.607 234.128 128.406 233.943 128.141 233.797C127.88 233.651 127.56 233.578 127.18 233.578C126.779 233.578 126.453 233.641 126.203 233.766C125.958 233.885 125.779 234.039 125.664 234.227C125.555 234.414 125.5 234.612 125.5 234.82C125.5 234.977 125.526 235.117 125.578 235.242C125.635 235.362 125.734 235.474 125.875 235.578C126.016 235.677 126.214 235.771 126.469 235.859C126.724 235.948 127.049 236.036 127.445 236.125C128.138 236.281 128.708 236.469 129.156 236.688C129.604 236.906 129.938 237.174 130.156 237.492C130.375 237.81 130.484 238.195 130.484 238.648C130.484 239.018 130.406 239.357 130.25 239.664C130.099 239.971 129.878 240.237 129.586 240.461C129.299 240.68 128.956 240.852 128.555 240.977C128.159 241.096 127.714 241.156 127.219 241.156C126.474 241.156 125.844 241.023 125.328 240.758C124.812 240.492 124.422 240.148 124.156 239.727C123.891 239.305 123.758 238.859 123.758 238.391H125.211C125.232 238.786 125.346 239.102 125.555 239.336C125.763 239.565 126.018 239.729 126.32 239.828C126.622 239.922 126.922 239.969 127.219 239.969C127.615 239.969 127.945 239.917 128.211 239.812C128.482 239.708 128.688 239.565 128.828 239.383C128.969 239.201 129.039 238.992 129.039 238.758ZM136.344 229H137.797V239.359L137.672 241H136.344V229ZM143.508 236.703V236.867C143.508 237.482 143.435 238.052 143.289 238.578C143.143 239.099 142.93 239.552 142.648 239.938C142.367 240.323 142.023 240.622 141.617 240.836C141.211 241.049 140.745 241.156 140.219 241.156C139.682 241.156 139.211 241.065 138.805 240.883C138.404 240.695 138.065 240.427 137.789 240.078C137.513 239.729 137.292 239.307 137.125 238.812C136.964 238.318 136.852 237.76 136.789 237.141V236.422C136.852 235.797 136.964 235.237 137.125 234.742C137.292 234.247 137.513 233.826 137.789 233.477C138.065 233.122 138.404 232.854 138.805 232.672C139.206 232.484 139.672 232.391 140.203 232.391C140.734 232.391 141.206 232.495 141.617 232.703C142.029 232.906 142.372 233.198 142.648 233.578C142.93 233.958 143.143 234.414 143.289 234.945C143.435 235.471 143.508 236.057 143.508 236.703ZM142.055 236.867V236.703C142.055 236.281 142.016 235.885 141.938 235.516C141.859 235.141 141.734 234.812 141.562 234.531C141.391 234.245 141.164 234.021 140.883 233.859C140.602 233.693 140.255 233.609 139.844 233.609C139.479 233.609 139.161 233.672 138.891 233.797C138.625 233.922 138.398 234.091 138.211 234.305C138.023 234.513 137.87 234.753 137.75 235.023C137.635 235.289 137.549 235.565 137.492 235.852V237.734C137.576 238.099 137.711 238.451 137.898 238.789C138.091 239.122 138.346 239.396 138.664 239.609C138.987 239.823 139.385 239.93 139.859 239.93C140.25 239.93 140.583 239.852 140.859 239.695C141.141 239.534 141.367 239.312 141.539 239.031C141.716 238.75 141.846 238.424 141.93 238.055C142.013 237.685 142.055 237.289 142.055 236.867ZM148.844 241.156C148.255 241.156 147.721 241.057 147.242 240.859C146.768 240.656 146.359 240.372 146.016 240.008C145.677 239.643 145.417 239.211 145.234 238.711C145.052 238.211 144.961 237.664 144.961 237.07V236.742C144.961 236.055 145.062 235.443 145.266 234.906C145.469 234.365 145.745 233.906 146.094 233.531C146.443 233.156 146.839 232.872 147.281 232.68C147.724 232.487 148.182 232.391 148.656 232.391C149.26 232.391 149.781 232.495 150.219 232.703C150.661 232.911 151.023 233.203 151.305 233.578C151.586 233.948 151.794 234.385 151.93 234.891C152.065 235.391 152.133 235.938 152.133 236.531V237.18H145.82V236H150.688V235.891C150.667 235.516 150.589 235.151 150.453 234.797C150.323 234.443 150.115 234.151 149.828 233.922C149.542 233.693 149.151 233.578 148.656 233.578C148.328 233.578 148.026 233.648 147.75 233.789C147.474 233.924 147.237 234.128 147.039 234.398C146.841 234.669 146.688 235 146.578 235.391C146.469 235.781 146.414 236.232 146.414 236.742V237.07C146.414 237.471 146.469 237.849 146.578 238.203C146.693 238.552 146.857 238.859 147.07 239.125C147.289 239.391 147.552 239.599 147.859 239.75C148.172 239.901 148.526 239.977 148.922 239.977C149.432 239.977 149.865 239.872 150.219 239.664C150.573 239.456 150.883 239.177 151.148 238.828L152.023 239.523C151.841 239.799 151.609 240.062 151.328 240.312C151.047 240.562 150.701 240.766 150.289 240.922C149.883 241.078 149.401 241.156 148.844 241.156ZM157.328 241.156C156.74 241.156 156.206 241.057 155.727 240.859C155.253 240.656 154.844 240.372 154.5 240.008C154.161 239.643 153.901 239.211 153.719 238.711C153.536 238.211 153.445 237.664 153.445 237.07V236.742C153.445 236.055 153.547 235.443 153.75 234.906C153.953 234.365 154.229 233.906 154.578 233.531C154.927 233.156 155.323 232.872 155.766 232.68C156.208 232.487 156.667 232.391 157.141 232.391C157.745 232.391 158.266 232.495 158.703 232.703C159.146 232.911 159.508 233.203 159.789 233.578C160.07 233.948 160.279 234.385 160.414 234.891C160.549 235.391 160.617 235.938 160.617 236.531V237.18H154.305V236H159.172V235.891C159.151 235.516 159.073 235.151 158.938 234.797C158.807 234.443 158.599 234.151 158.312 233.922C158.026 233.693 157.635 233.578 157.141 233.578C156.812 233.578 156.51 233.648 156.234 233.789C155.958 233.924 155.721 234.128 155.523 234.398C155.326 234.669 155.172 235 155.062 235.391C154.953 235.781 154.898 236.232 154.898 236.742V237.07C154.898 237.471 154.953 237.849 155.062 238.203C155.177 238.552 155.341 238.859 155.555 239.125C155.773 239.391 156.036 239.599 156.344 239.75C156.656 239.901 157.01 239.977 157.406 239.977C157.917 239.977 158.349 239.872 158.703 239.664C159.057 239.456 159.367 239.177 159.633 238.828L160.508 239.523C160.326 239.799 160.094 240.062 159.812 240.312C159.531 240.562 159.185 240.766 158.773 240.922C158.367 241.078 157.885 241.156 157.328 241.156ZM163.75 234.352V241H162.305V232.547H163.672L163.75 234.352ZM163.406 236.453L162.805 236.43C162.81 235.852 162.896 235.318 163.062 234.828C163.229 234.333 163.464 233.904 163.766 233.539C164.068 233.174 164.427 232.893 164.844 232.695C165.266 232.492 165.732 232.391 166.242 232.391C166.659 232.391 167.034 232.448 167.367 232.562C167.701 232.672 167.984 232.849 168.219 233.094C168.458 233.339 168.641 233.656 168.766 234.047C168.891 234.432 168.953 234.904 168.953 235.461V241H167.5V235.445C167.5 235.003 167.435 234.648 167.305 234.383C167.174 234.112 166.984 233.917 166.734 233.797C166.484 233.672 166.177 233.609 165.812 233.609C165.453 233.609 165.125 233.685 164.828 233.836C164.536 233.987 164.284 234.195 164.07 234.461C163.862 234.727 163.698 235.031 163.578 235.375C163.464 235.714 163.406 236.073 163.406 236.453ZM22.5547 262.758C22.5547 262.549 22.5078 262.357 22.4141 262.18C22.3255 261.997 22.1406 261.833 21.8594 261.688C21.5833 261.536 21.1667 261.406 20.6094 261.297C20.1406 261.198 19.7161 261.081 19.3359 260.945C18.9609 260.81 18.6406 260.646 18.375 260.453C18.1146 260.26 17.9141 260.034 17.7734 259.773C17.6328 259.513 17.5625 259.208 17.5625 258.859C17.5625 258.526 17.6354 258.211 17.7812 257.914C17.9323 257.617 18.1432 257.354 18.4141 257.125C18.6901 256.896 19.0208 256.716 19.4062 256.586C19.7917 256.456 20.2214 256.391 20.6953 256.391C21.3724 256.391 21.9505 256.51 22.4297 256.75C22.9089 256.99 23.276 257.31 23.5312 257.711C23.7865 258.107 23.9141 258.547 23.9141 259.031H22.4688C22.4688 258.797 22.3984 258.57 22.2578 258.352C22.1224 258.128 21.9219 257.943 21.6562 257.797C21.3958 257.651 21.0755 257.578 20.6953 257.578C20.2943 257.578 19.9688 257.641 19.7188 257.766C19.474 257.885 19.2943 258.039 19.1797 258.227C19.0703 258.414 19.0156 258.612 19.0156 258.82C19.0156 258.977 19.0417 259.117 19.0938 259.242C19.151 259.362 19.25 259.474 19.3906 259.578C19.5312 259.677 19.7292 259.771 19.9844 259.859C20.2396 259.948 20.5651 260.036 20.9609 260.125C21.6536 260.281 22.224 260.469 22.6719 260.688C23.1198 260.906 23.4531 261.174 23.6719 261.492C23.8906 261.81 24 262.195 24 262.648C24 263.018 23.9219 263.357 23.7656 263.664C23.6146 263.971 23.3932 264.237 23.1016 264.461C22.8151 264.68 22.4714 264.852 22.0703 264.977C21.6745 265.096 21.2292 265.156 20.7344 265.156C19.9896 265.156 19.3594 265.023 18.8438 264.758C18.3281 264.492 17.9375 264.148 17.6719 263.727C17.4062 263.305 17.2734 262.859 17.2734 262.391H18.7266C18.7474 262.786 18.862 263.102 19.0703 263.336C19.2786 263.565 19.5339 263.729 19.8359 263.828C20.138 263.922 20.4375 263.969 20.7344 263.969C21.1302 263.969 21.4609 263.917 21.7266 263.812C21.9974 263.708 22.2031 263.565 22.3438 263.383C22.4844 263.201 22.5547 262.992 22.5547 262.758ZM31.0703 263.047V256.547H32.5234V265H31.1406L31.0703 263.047ZM31.3438 261.266L31.9453 261.25C31.9453 261.812 31.8854 262.333 31.7656 262.812C31.651 263.286 31.4635 263.698 31.2031 264.047C30.9427 264.396 30.6016 264.669 30.1797 264.867C29.7578 265.06 29.2448 265.156 28.6406 265.156C28.2292 265.156 27.8516 265.096 27.5078 264.977C27.1693 264.857 26.8776 264.672 26.6328 264.422C26.388 264.172 26.1979 263.846 26.0625 263.445C25.9323 263.044 25.8672 262.562 25.8672 262V256.547H27.3125V262.016C27.3125 262.396 27.3542 262.711 27.4375 262.961C27.526 263.206 27.6432 263.401 27.7891 263.547C27.9401 263.688 28.1068 263.786 28.2891 263.844C28.4766 263.901 28.6693 263.93 28.8672 263.93C29.4818 263.93 29.9688 263.812 30.3281 263.578C30.6875 263.339 30.9453 263.018 31.1016 262.617C31.263 262.211 31.3438 261.76 31.3438 261.266ZM34.7188 253H36.1719V263.359L36.0469 265H34.7188V253ZM41.8828 260.703V260.867C41.8828 261.482 41.8099 262.052 41.6641 262.578C41.5182 263.099 41.3047 263.552 41.0234 263.938C40.7422 264.323 40.3984 264.622 39.9922 264.836C39.5859 265.049 39.1198 265.156 38.5938 265.156C38.0573 265.156 37.5859 265.065 37.1797 264.883C36.7786 264.695 36.4401 264.427 36.1641 264.078C35.888 263.729 35.6667 263.307 35.5 262.812C35.3385 262.318 35.2266 261.76 35.1641 261.141V260.422C35.2266 259.797 35.3385 259.237 35.5 258.742C35.6667 258.247 35.888 257.826 36.1641 257.477C36.4401 257.122 36.7786 256.854 37.1797 256.672C37.5807 256.484 38.0469 256.391 38.5781 256.391C39.1094 256.391 39.5807 256.495 39.9922 256.703C40.4036 256.906 40.7474 257.198 41.0234 257.578C41.3047 257.958 41.5182 258.414 41.6641 258.945C41.8099 259.471 41.8828 260.057 41.8828 260.703ZM40.4297 260.867V260.703C40.4297 260.281 40.3906 259.885 40.3125 259.516C40.2344 259.141 40.1094 258.812 39.9375 258.531C39.7656 258.245 39.5391 258.021 39.2578 257.859C38.9766 257.693 38.6302 257.609 38.2188 257.609C37.8542 257.609 37.5365 257.672 37.2656 257.797C37 257.922 36.7734 258.091 36.5859 258.305C36.3984 258.513 36.2448 258.753 36.125 259.023C36.0104 259.289 35.9245 259.565 35.8672 259.852V261.734C35.9505 262.099 36.0859 262.451 36.2734 262.789C36.4661 263.122 36.7214 263.396 37.0391 263.609C37.362 263.823 37.7604 263.93 38.2344 263.93C38.625 263.93 38.9583 263.852 39.2344 263.695C39.5156 263.534 39.7422 263.312 39.9141 263.031C40.0911 262.75 40.2214 262.424 40.3047 262.055C40.388 261.685 40.4297 261.289 40.4297 260.867ZM45.1484 258.227V265H43.6953V256.547H45.0703L45.1484 258.227ZM44.8516 260.453L44.1797 260.43C44.1849 259.852 44.2604 259.318 44.4062 258.828C44.5521 258.333 44.7682 257.904 45.0547 257.539C45.3411 257.174 45.6979 256.893 46.125 256.695C46.5521 256.492 47.0469 256.391 47.6094 256.391C48.0052 256.391 48.3698 256.448 48.7031 256.562C49.0365 256.672 49.3255 256.846 49.5703 257.086C49.8151 257.326 50.0052 257.633 50.1406 258.008C50.276 258.383 50.3438 258.836 50.3438 259.367V265H48.8984V259.438C48.8984 258.995 48.8229 258.641 48.6719 258.375C48.526 258.109 48.3177 257.917 48.0469 257.797C47.776 257.672 47.4583 257.609 47.0938 257.609C46.6667 257.609 46.3099 257.685 46.0234 257.836C45.737 257.987 45.5078 258.195 45.3359 258.461C45.1641 258.727 45.0391 259.031 44.9609 259.375C44.888 259.714 44.8516 260.073 44.8516 260.453ZM50.3281 259.656L49.3594 259.953C49.3646 259.49 49.4401 259.044 49.5859 258.617C49.737 258.19 49.9531 257.81 50.2344 257.477C50.5208 257.143 50.8724 256.88 51.2891 256.688C51.7057 256.49 52.1823 256.391 52.7188 256.391C53.1719 256.391 53.5729 256.451 53.9219 256.57C54.276 256.69 54.5729 256.875 54.8125 257.125C55.0573 257.37 55.2422 257.685 55.3672 258.07C55.4922 258.456 55.5547 258.914 55.5547 259.445V265H54.1016V259.43C54.1016 258.956 54.026 258.589 53.875 258.328C53.7292 258.062 53.5208 257.878 53.25 257.773C52.9844 257.664 52.6667 257.609 52.2969 257.609C51.9792 257.609 51.6979 257.664 51.4531 257.773C51.2083 257.883 51.0026 258.034 50.8359 258.227C50.6693 258.414 50.5417 258.63 50.4531 258.875C50.3698 259.12 50.3281 259.38 50.3281 259.656ZM59.3125 256.547V265H57.8594V256.547H59.3125ZM57.75 254.305C57.75 254.07 57.8203 253.872 57.9609 253.711C58.1068 253.549 58.3203 253.469 58.6016 253.469C58.8776 253.469 59.0885 253.549 59.2344 253.711C59.3854 253.872 59.4609 254.07 59.4609 254.305C59.4609 254.529 59.3854 254.721 59.2344 254.883C59.0885 255.039 58.8776 255.117 58.6016 255.117C58.3203 255.117 58.1068 255.039 57.9609 254.883C57.8203 254.721 57.75 254.529 57.75 254.305ZM65.1719 256.547V257.656H60.6016V256.547H65.1719ZM62.1484 254.492H63.5938V262.906C63.5938 263.193 63.638 263.409 63.7266 263.555C63.8151 263.701 63.9297 263.797 64.0703 263.844C64.2109 263.891 64.362 263.914 64.5234 263.914C64.6432 263.914 64.7682 263.904 64.8984 263.883C65.0339 263.857 65.1354 263.836 65.2031 263.82L65.2109 265C65.0964 265.036 64.9453 265.07 64.7578 265.102C64.5755 265.138 64.3542 265.156 64.0938 265.156C63.7396 265.156 63.4141 265.086 63.1172 264.945C62.8203 264.805 62.5833 264.57 62.4062 264.242C62.2344 263.909 62.1484 263.461 62.1484 262.898V254.492ZM70.4062 256.547V257.656H65.8359V256.547H70.4062ZM67.3828 254.492H68.8281V262.906C68.8281 263.193 68.8724 263.409 68.9609 263.555C69.0495 263.701 69.1641 263.797 69.3047 263.844C69.4453 263.891 69.5964 263.914 69.7578 263.914C69.8776 263.914 70.0026 263.904 70.1328 263.883C70.2682 263.857 70.3698 263.836 70.4375 263.82L70.4453 265C70.3307 265.036 70.1797 265.07 69.9922 265.102C69.8099 265.138 69.5885 265.156 69.3281 265.156C68.974 265.156 68.6484 265.086 68.3516 264.945C68.0547 264.805 67.8177 264.57 67.6406 264.242C67.4688 263.909 67.3828 263.461 67.3828 262.898V254.492ZM75.6094 265.156C75.0208 265.156 74.487 265.057 74.0078 264.859C73.5339 264.656 73.125 264.372 72.7812 264.008C72.4427 263.643 72.1823 263.211 72 262.711C71.8177 262.211 71.7266 261.664 71.7266 261.07V260.742C71.7266 260.055 71.8281 259.443 72.0312 258.906C72.2344 258.365 72.5104 257.906 72.8594 257.531C73.2083 257.156 73.6042 256.872 74.0469 256.68C74.4896 256.487 74.9479 256.391 75.4219 256.391C76.026 256.391 76.5469 256.495 76.9844 256.703C77.4271 256.911 77.7891 257.203 78.0703 257.578C78.3516 257.948 78.5599 258.385 78.6953 258.891C78.8307 259.391 78.8984 259.938 78.8984 260.531V261.18H72.5859V260H77.4531V259.891C77.4323 259.516 77.3542 259.151 77.2188 258.797C77.0885 258.443 76.8802 258.151 76.5938 257.922C76.3073 257.693 75.9167 257.578 75.4219 257.578C75.0938 257.578 74.7917 257.648 74.5156 257.789C74.2396 257.924 74.0026 258.128 73.8047 258.398C73.6068 258.669 73.4531 259 73.3438 259.391C73.2344 259.781 73.1797 260.232 73.1797 260.742V261.07C73.1797 261.471 73.2344 261.849 73.3438 262.203C73.4583 262.552 73.6224 262.859 73.8359 263.125C74.0547 263.391 74.3177 263.599 74.625 263.75C74.9375 263.901 75.2917 263.977 75.6875 263.977C76.1979 263.977 76.6302 263.872 76.9844 263.664C77.3385 263.456 77.6484 263.177 77.9141 262.828L78.7891 263.523C78.6068 263.799 78.375 264.062 78.0938 264.312C77.8125 264.562 77.4661 264.766 77.0547 264.922C76.6484 265.078 76.1667 265.156 75.6094 265.156ZM85.9141 263.359V253H87.3672V265H86.0391L85.9141 263.359ZM80.2266 260.867V260.703C80.2266 260.057 80.3047 259.471 80.4609 258.945C80.6224 258.414 80.849 257.958 81.1406 257.578C81.4375 257.198 81.7891 256.906 82.1953 256.703C82.6068 256.495 83.0651 256.391 83.5703 256.391C84.1016 256.391 84.5651 256.484 84.9609 256.672C85.362 256.854 85.7005 257.122 85.9766 257.477C86.2578 257.826 86.4792 258.247 86.6406 258.742C86.8021 259.237 86.9141 259.797 86.9766 260.422V261.141C86.9193 261.76 86.8073 262.318 86.6406 262.812C86.4792 263.307 86.2578 263.729 85.9766 264.078C85.7005 264.427 85.362 264.695 84.9609 264.883C84.5599 265.065 84.0911 265.156 83.5547 265.156C83.0599 265.156 82.6068 265.049 82.1953 264.836C81.7891 264.622 81.4375 264.323 81.1406 263.938C80.849 263.552 80.6224 263.099 80.4609 262.578C80.3047 262.052 80.2266 261.482 80.2266 260.867ZM81.6797 260.703V260.867C81.6797 261.289 81.7214 261.685 81.8047 262.055C81.8932 262.424 82.0286 262.75 82.2109 263.031C82.3932 263.312 82.625 263.534 82.9062 263.695C83.1875 263.852 83.5234 263.93 83.9141 263.93C84.3932 263.93 84.7865 263.828 85.0938 263.625C85.4062 263.422 85.6562 263.154 85.8438 262.82C86.0312 262.487 86.1771 262.125 86.2812 261.734V259.852C86.2188 259.565 86.1276 259.289 86.0078 259.023C85.8932 258.753 85.7422 258.513 85.5547 258.305C85.3724 258.091 85.1458 257.922 84.875 257.797C84.6094 257.672 84.2943 257.609 83.9297 257.609C83.5339 257.609 83.1927 257.693 82.9062 257.859C82.625 258.021 82.3932 258.245 82.2109 258.531C82.0286 258.812 81.8932 259.141 81.8047 259.516C81.7214 259.885 81.6797 260.281 81.6797 260.703ZM98.5078 262.758C98.5078 262.549 98.4609 262.357 98.3672 262.18C98.2786 261.997 98.0938 261.833 97.8125 261.688C97.5365 261.536 97.1198 261.406 96.5625 261.297C96.0938 261.198 95.6693 261.081 95.2891 260.945C94.9141 260.81 94.5938 260.646 94.3281 260.453C94.0677 260.26 93.8672 260.034 93.7266 259.773C93.5859 259.513 93.5156 259.208 93.5156 258.859C93.5156 258.526 93.5885 258.211 93.7344 257.914C93.8854 257.617 94.0964 257.354 94.3672 257.125C94.6432 256.896 94.974 256.716 95.3594 256.586C95.7448 256.456 96.1745 256.391 96.6484 256.391C97.3255 256.391 97.9036 256.51 98.3828 256.75C98.862 256.99 99.2292 257.31 99.4844 257.711C99.7396 258.107 99.8672 258.547 99.8672 259.031H98.4219C98.4219 258.797 98.3516 258.57 98.2109 258.352C98.0755 258.128 97.875 257.943 97.6094 257.797C97.349 257.651 97.0286 257.578 96.6484 257.578C96.2474 257.578 95.9219 257.641 95.6719 257.766C95.4271 257.885 95.2474 258.039 95.1328 258.227C95.0234 258.414 94.9688 258.612 94.9688 258.82C94.9688 258.977 94.9948 259.117 95.0469 259.242C95.1042 259.362 95.2031 259.474 95.3438 259.578C95.4844 259.677 95.6823 259.771 95.9375 259.859C96.1927 259.948 96.5182 260.036 96.9141 260.125C97.6068 260.281 98.1771 260.469 98.625 260.688C99.0729 260.906 99.4062 261.174 99.625 261.492C99.8438 261.81 99.9531 262.195 99.9531 262.648C99.9531 263.018 99.875 263.357 99.7188 263.664C99.5677 263.971 99.3464 264.237 99.0547 264.461C98.7682 264.68 98.4245 264.852 98.0234 264.977C97.6276 265.096 97.1823 265.156 96.6875 265.156C95.9427 265.156 95.3125 265.023 94.7969 264.758C94.2812 264.492 93.8906 264.148 93.625 263.727C93.3594 263.305 93.2266 262.859 93.2266 262.391H94.6797C94.7005 262.786 94.8151 263.102 95.0234 263.336C95.2318 263.565 95.487 263.729 95.7891 263.828C96.0911 263.922 96.3906 263.969 96.6875 263.969C97.0833 263.969 97.4141 263.917 97.6797 263.812C97.9505 263.708 98.1562 263.565 98.2969 263.383C98.4375 263.201 98.5078 262.992 98.5078 262.758ZM107.023 263.047V256.547H108.477V265H107.094L107.023 263.047ZM107.297 261.266L107.898 261.25C107.898 261.812 107.839 262.333 107.719 262.812C107.604 263.286 107.417 263.698 107.156 264.047C106.896 264.396 106.555 264.669 106.133 264.867C105.711 265.06 105.198 265.156 104.594 265.156C104.182 265.156 103.805 265.096 103.461 264.977C103.122 264.857 102.831 264.672 102.586 264.422C102.341 264.172 102.151 263.846 102.016 263.445C101.885 263.044 101.82 262.562 101.82 262V256.547H103.266V262.016C103.266 262.396 103.307 262.711 103.391 262.961C103.479 263.206 103.596 263.401 103.742 263.547C103.893 263.688 104.06 263.786 104.242 263.844C104.43 263.901 104.622 263.93 104.82 263.93C105.435 263.93 105.922 263.812 106.281 263.578C106.641 263.339 106.898 263.018 107.055 262.617C107.216 262.211 107.297 261.76 107.297 261.266ZM114.062 263.969C114.406 263.969 114.724 263.898 115.016 263.758C115.307 263.617 115.547 263.424 115.734 263.18C115.922 262.93 116.029 262.646 116.055 262.328H117.43C117.404 262.828 117.234 263.294 116.922 263.727C116.615 264.154 116.211 264.5 115.711 264.766C115.211 265.026 114.661 265.156 114.062 265.156C113.427 265.156 112.872 265.044 112.398 264.82C111.93 264.596 111.539 264.289 111.227 263.898C110.919 263.508 110.688 263.06 110.531 262.555C110.38 262.044 110.305 261.505 110.305 260.938V260.609C110.305 260.042 110.38 259.505 110.531 259C110.688 258.49 110.919 258.039 111.227 257.648C111.539 257.258 111.93 256.951 112.398 256.727C112.872 256.503 113.427 256.391 114.062 256.391C114.724 256.391 115.302 256.526 115.797 256.797C116.292 257.062 116.68 257.427 116.961 257.891C117.247 258.349 117.404 258.87 117.43 259.453H116.055C116.029 259.104 115.93 258.789 115.758 258.508C115.591 258.227 115.362 258.003 115.07 257.836C114.784 257.664 114.448 257.578 114.062 257.578C113.62 257.578 113.247 257.667 112.945 257.844C112.648 258.016 112.411 258.25 112.234 258.547C112.062 258.839 111.938 259.164 111.859 259.523C111.786 259.878 111.75 260.24 111.75 260.609V260.938C111.75 261.307 111.786 261.672 111.859 262.031C111.932 262.391 112.055 262.716 112.227 263.008C112.404 263.299 112.641 263.534 112.938 263.711C113.24 263.883 113.615 263.969 114.062 263.969ZM122.438 263.969C122.781 263.969 123.099 263.898 123.391 263.758C123.682 263.617 123.922 263.424 124.109 263.18C124.297 262.93 124.404 262.646 124.43 262.328H125.805C125.779 262.828 125.609 263.294 125.297 263.727C124.99 264.154 124.586 264.5 124.086 264.766C123.586 265.026 123.036 265.156 122.438 265.156C121.802 265.156 121.247 265.044 120.773 264.82C120.305 264.596 119.914 264.289 119.602 263.898C119.294 263.508 119.062 263.06 118.906 262.555C118.755 262.044 118.68 261.505 118.68 260.938V260.609C118.68 260.042 118.755 259.505 118.906 259C119.062 258.49 119.294 258.039 119.602 257.648C119.914 257.258 120.305 256.951 120.773 256.727C121.247 256.503 121.802 256.391 122.438 256.391C123.099 256.391 123.677 256.526 124.172 256.797C124.667 257.062 125.055 257.427 125.336 257.891C125.622 258.349 125.779 258.87 125.805 259.453H124.43C124.404 259.104 124.305 258.789 124.133 258.508C123.966 258.227 123.737 258.003 123.445 257.836C123.159 257.664 122.823 257.578 122.438 257.578C121.995 257.578 121.622 257.667 121.32 257.844C121.023 258.016 120.786 258.25 120.609 258.547C120.438 258.839 120.312 259.164 120.234 259.523C120.161 259.878 120.125 260.24 120.125 260.609V260.938C120.125 261.307 120.161 261.672 120.234 262.031C120.307 262.391 120.43 262.716 120.602 263.008C120.779 263.299 121.016 263.534 121.312 263.711C121.615 263.883 121.99 263.969 122.438 263.969ZM130.938 265.156C130.349 265.156 129.815 265.057 129.336 264.859C128.862 264.656 128.453 264.372 128.109 264.008C127.771 263.643 127.51 263.211 127.328 262.711C127.146 262.211 127.055 261.664 127.055 261.07V260.742C127.055 260.055 127.156 259.443 127.359 258.906C127.562 258.365 127.839 257.906 128.188 257.531C128.536 257.156 128.932 256.872 129.375 256.68C129.818 256.487 130.276 256.391 130.75 256.391C131.354 256.391 131.875 256.495 132.312 256.703C132.755 256.911 133.117 257.203 133.398 257.578C133.68 257.948 133.888 258.385 134.023 258.891C134.159 259.391 134.227 259.938 134.227 260.531V261.18H127.914V260H132.781V259.891C132.76 259.516 132.682 259.151 132.547 258.797C132.417 258.443 132.208 258.151 131.922 257.922C131.635 257.693 131.245 257.578 130.75 257.578C130.422 257.578 130.12 257.648 129.844 257.789C129.568 257.924 129.331 258.128 129.133 258.398C128.935 258.669 128.781 259 128.672 259.391C128.562 259.781 128.508 260.232 128.508 260.742V261.07C128.508 261.471 128.562 261.849 128.672 262.203C128.786 262.552 128.951 262.859 129.164 263.125C129.383 263.391 129.646 263.599 129.953 263.75C130.266 263.901 130.62 263.977 131.016 263.977C131.526 263.977 131.958 263.872 132.312 263.664C132.667 263.456 132.977 263.177 133.242 262.828L134.117 263.523C133.935 263.799 133.703 264.062 133.422 264.312C133.141 264.562 132.794 264.766 132.383 264.922C131.977 265.078 131.495 265.156 130.938 265.156ZM140.836 262.758C140.836 262.549 140.789 262.357 140.695 262.18C140.607 261.997 140.422 261.833 140.141 261.688C139.865 261.536 139.448 261.406 138.891 261.297C138.422 261.198 137.997 261.081 137.617 260.945C137.242 260.81 136.922 260.646 136.656 260.453C136.396 260.26 136.195 260.034 136.055 259.773C135.914 259.513 135.844 259.208 135.844 258.859C135.844 258.526 135.917 258.211 136.062 257.914C136.214 257.617 136.424 257.354 136.695 257.125C136.971 256.896 137.302 256.716 137.688 256.586C138.073 256.456 138.503 256.391 138.977 256.391C139.654 256.391 140.232 256.51 140.711 256.75C141.19 256.99 141.557 257.31 141.812 257.711C142.068 258.107 142.195 258.547 142.195 259.031H140.75C140.75 258.797 140.68 258.57 140.539 258.352C140.404 258.128 140.203 257.943 139.938 257.797C139.677 257.651 139.357 257.578 138.977 257.578C138.576 257.578 138.25 257.641 138 257.766C137.755 257.885 137.576 258.039 137.461 258.227C137.352 258.414 137.297 258.612 137.297 258.82C137.297 258.977 137.323 259.117 137.375 259.242C137.432 259.362 137.531 259.474 137.672 259.578C137.812 259.677 138.01 259.771 138.266 259.859C138.521 259.948 138.846 260.036 139.242 260.125C139.935 260.281 140.505 260.469 140.953 260.688C141.401 260.906 141.734 261.174 141.953 261.492C142.172 261.81 142.281 262.195 142.281 262.648C142.281 263.018 142.203 263.357 142.047 263.664C141.896 263.971 141.674 264.237 141.383 264.461C141.096 264.68 140.753 264.852 140.352 264.977C139.956 265.096 139.51 265.156 139.016 265.156C138.271 265.156 137.641 265.023 137.125 264.758C136.609 264.492 136.219 264.148 135.953 263.727C135.688 263.305 135.555 262.859 135.555 262.391H137.008C137.029 262.786 137.143 263.102 137.352 263.336C137.56 263.565 137.815 263.729 138.117 263.828C138.419 263.922 138.719 263.969 139.016 263.969C139.411 263.969 139.742 263.917 140.008 263.812C140.279 263.708 140.484 263.565 140.625 263.383C140.766 263.201 140.836 262.992 140.836 262.758ZM149.102 262.758C149.102 262.549 149.055 262.357 148.961 262.18C148.872 261.997 148.688 261.833 148.406 261.688C148.13 261.536 147.714 261.406 147.156 261.297C146.688 261.198 146.263 261.081 145.883 260.945C145.508 260.81 145.188 260.646 144.922 260.453C144.661 260.26 144.461 260.034 144.32 259.773C144.18 259.513 144.109 259.208 144.109 258.859C144.109 258.526 144.182 258.211 144.328 257.914C144.479 257.617 144.69 257.354 144.961 257.125C145.237 256.896 145.568 256.716 145.953 256.586C146.339 256.456 146.768 256.391 147.242 256.391C147.919 256.391 148.497 256.51 148.977 256.75C149.456 256.99 149.823 257.31 150.078 257.711C150.333 258.107 150.461 258.547 150.461 259.031H149.016C149.016 258.797 148.945 258.57 148.805 258.352C148.669 258.128 148.469 257.943 148.203 257.797C147.943 257.651 147.622 257.578 147.242 257.578C146.841 257.578 146.516 257.641 146.266 257.766C146.021 257.885 145.841 258.039 145.727 258.227C145.617 258.414 145.562 258.612 145.562 258.82C145.562 258.977 145.589 259.117 145.641 259.242C145.698 259.362 145.797 259.474 145.938 259.578C146.078 259.677 146.276 259.771 146.531 259.859C146.786 259.948 147.112 260.036 147.508 260.125C148.201 260.281 148.771 260.469 149.219 260.688C149.667 260.906 150 261.174 150.219 261.492C150.438 261.81 150.547 262.195 150.547 262.648C150.547 263.018 150.469 263.357 150.312 263.664C150.161 263.971 149.94 264.237 149.648 264.461C149.362 264.68 149.018 264.852 148.617 264.977C148.221 265.096 147.776 265.156 147.281 265.156C146.536 265.156 145.906 265.023 145.391 264.758C144.875 264.492 144.484 264.148 144.219 263.727C143.953 263.305 143.82 262.859 143.82 262.391H145.273C145.294 262.786 145.409 263.102 145.617 263.336C145.826 263.565 146.081 263.729 146.383 263.828C146.685 263.922 146.984 263.969 147.281 263.969C147.677 263.969 148.008 263.917 148.273 263.812C148.544 263.708 148.75 263.565 148.891 263.383C149.031 263.201 149.102 262.992 149.102 262.758ZM154.602 265H153.156V255.656C153.156 255.047 153.266 254.534 153.484 254.117C153.708 253.695 154.029 253.378 154.445 253.164C154.862 252.945 155.357 252.836 155.93 252.836C156.096 252.836 156.263 252.846 156.43 252.867C156.602 252.888 156.768 252.919 156.93 252.961L156.852 254.141C156.742 254.115 156.617 254.096 156.477 254.086C156.341 254.076 156.206 254.07 156.07 254.07C155.763 254.07 155.497 254.133 155.273 254.258C155.055 254.378 154.888 254.555 154.773 254.789C154.659 255.023 154.602 255.312 154.602 255.656V265ZM156.398 256.547V257.656H151.82V256.547H156.398ZM163.18 263.047V256.547H164.633V265H163.25L163.18 263.047ZM163.453 261.266L164.055 261.25C164.055 261.812 163.995 262.333 163.875 262.812C163.76 263.286 163.573 263.698 163.312 264.047C163.052 264.396 162.711 264.669 162.289 264.867C161.867 265.06 161.354 265.156 160.75 265.156C160.339 265.156 159.961 265.096 159.617 264.977C159.279 264.857 158.987 264.672 158.742 264.422C158.497 264.172 158.307 263.846 158.172 263.445C158.042 263.044 157.977 262.562 157.977 262V256.547H159.422V262.016C159.422 262.396 159.464 262.711 159.547 262.961C159.635 263.206 159.753 263.401 159.898 263.547C160.049 263.688 160.216 263.786 160.398 263.844C160.586 263.901 160.779 263.93 160.977 263.93C161.591 263.93 162.078 263.812 162.438 263.578C162.797 263.339 163.055 263.018 163.211 262.617C163.372 262.211 163.453 261.76 163.453 261.266ZM168.406 253V265H166.953V253H168.406ZM172.297 253V265H170.844V253H172.297ZM176.992 264.125L179.344 256.547H180.891L177.5 266.305C177.422 266.513 177.318 266.737 177.188 266.977C177.062 267.221 176.901 267.453 176.703 267.672C176.505 267.891 176.266 268.068 175.984 268.203C175.708 268.344 175.378 268.414 174.992 268.414C174.878 268.414 174.732 268.398 174.555 268.367C174.378 268.336 174.253 268.31 174.18 268.289L174.172 267.117C174.214 267.122 174.279 267.128 174.367 267.133C174.461 267.143 174.526 267.148 174.562 267.148C174.891 267.148 175.169 267.104 175.398 267.016C175.628 266.932 175.82 266.789 175.977 266.586C176.138 266.388 176.276 266.115 176.391 265.766L176.992 264.125ZM175.266 256.547L177.461 263.109L177.836 264.633L176.797 265.164L173.688 256.547H175.266ZM181.375 264.234C181.375 263.99 181.451 263.784 181.602 263.617C181.758 263.445 181.982 263.359 182.273 263.359C182.565 263.359 182.786 263.445 182.938 263.617C183.094 263.784 183.172 263.99 183.172 264.234C183.172 264.474 183.094 264.677 182.938 264.844C182.786 265.01 182.565 265.094 182.273 265.094C181.982 265.094 181.758 265.01 181.602 264.844C181.451 264.677 181.375 264.474 181.375 264.234Z" fill="#3D4D62"/>
<path d="M37.6028 185.83V207H32.8773V185.83H37.6028ZM44.0439 185.83V189.509H26.5671V185.83H44.0439ZM50.5868 184.667V207H46.0504V184.667H50.5868ZM49.9907 198.581L48.8566 198.611C48.8566 197.506 48.9923 196.493 49.2637 195.572C49.5448 194.641 49.9422 193.832 50.456 193.144C50.9697 192.455 51.5852 191.922 52.3025 191.544C53.0295 191.166 53.8292 190.977 54.7016 190.977C55.477 190.977 56.1847 191.089 56.8244 191.312C57.4642 191.534 58.0167 191.888 58.4819 192.373C58.9472 192.858 59.3059 193.493 59.5579 194.278C59.8099 195.063 59.9359 196.018 59.9359 197.142V207H55.3704V197.113C55.3704 196.444 55.2735 195.921 55.0796 195.543C54.8955 195.165 54.624 194.898 54.2654 194.743C53.9164 194.588 53.4899 194.51 52.9859 194.51C52.3946 194.51 51.9051 194.617 51.5174 194.83C51.1296 195.034 50.8243 195.32 50.6014 195.688C50.3784 196.056 50.2185 196.488 50.1216 196.982C50.0343 197.476 49.9907 198.01 49.9907 198.581ZM71.2334 203.249V196.502C71.2334 196.027 71.1607 195.62 71.0153 195.281C70.8699 194.942 70.6421 194.675 70.3319 194.481C70.0217 194.287 69.6194 194.19 69.1251 194.19C68.7083 194.19 68.3448 194.263 68.0346 194.409C67.7341 194.554 67.5015 194.762 67.3367 195.034C67.1816 195.305 67.1041 195.64 67.1041 196.037H62.5676C62.5676 195.329 62.7276 194.67 63.0474 194.06C63.3673 193.449 63.8229 192.911 64.4142 192.446C65.0152 191.98 65.7325 191.622 66.5661 191.37C67.3997 191.108 68.3351 190.977 69.3723 190.977C70.6033 190.977 71.6986 191.186 72.6583 191.602C73.6276 192.009 74.3933 192.625 74.9556 193.449C75.5178 194.263 75.7989 195.291 75.7989 196.531V203.118C75.7989 204.068 75.8522 204.814 75.9588 205.357C76.0751 205.89 76.2399 206.355 76.4532 206.753V207H71.8731C71.6599 206.544 71.4999 205.982 71.3933 205.313C71.2867 204.635 71.2334 203.947 71.2334 203.249ZM71.8004 197.404L71.8295 199.905H69.5758C69.0718 199.905 68.6356 199.968 68.2672 200.094C67.9086 200.22 67.6178 200.394 67.3949 200.617C67.1719 200.83 67.0071 201.082 66.9005 201.373C66.8036 201.654 66.7551 201.964 66.7551 202.304C66.7551 202.624 66.8326 202.914 66.9877 203.176C67.1428 203.428 67.3561 203.627 67.6275 203.772C67.8989 203.918 68.2139 203.99 68.5726 203.99C69.1639 203.99 69.6679 203.874 70.0847 203.641C70.5112 203.409 70.8408 203.128 71.0734 202.798C71.3061 202.459 71.4224 202.144 71.4224 201.853L72.5129 203.743C72.3384 204.131 72.1251 204.533 71.8731 204.95C71.6211 205.357 71.3012 205.74 70.9135 206.099C70.5258 206.447 70.0556 206.733 69.5031 206.956C68.9603 207.179 68.306 207.291 67.5402 207.291C66.5515 207.291 65.6549 207.092 64.8504 206.695C64.0458 206.288 63.4012 205.73 62.9166 205.023C62.4416 204.315 62.2041 203.501 62.2041 202.58C62.2041 201.756 62.3544 201.024 62.6549 200.384C62.9554 199.745 63.4061 199.202 64.0071 198.756C64.6177 198.31 65.3835 197.976 66.3044 197.753C67.2252 197.52 68.3012 197.404 69.5322 197.404H71.8004ZM83.2287 194.627V207H78.6777V191.268H82.9525L83.2287 194.627ZM82.6326 198.581L81.4985 198.611C81.4985 197.428 81.6439 196.367 81.9347 195.426C82.2255 194.486 82.6374 193.686 83.1705 193.027C83.7134 192.358 84.358 191.85 85.1043 191.501C85.8604 191.152 86.694 190.977 87.6052 190.977C88.3419 190.977 89.0156 191.084 89.6262 191.297C90.2369 191.51 90.7603 191.854 91.1965 192.329C91.6424 192.795 91.9817 193.415 92.2143 194.19C92.4469 194.956 92.5633 195.901 92.5633 197.026V207H87.9978V197.011C87.9978 196.352 87.9057 195.843 87.7215 195.484C87.5373 195.126 87.2659 194.874 86.9073 194.728C86.5583 194.583 86.1318 194.51 85.6278 194.51C85.0946 194.51 84.6391 194.617 84.261 194.83C83.883 195.034 83.5728 195.32 83.3305 195.688C83.0882 196.056 82.9088 196.488 82.7925 196.982C82.6859 197.476 82.6326 198.01 82.6326 198.581ZM100.095 184.652V207H95.5439V184.652H100.095ZM110.084 191.268L103.235 199.178L99.6151 202.813L97.7976 199.745L100.735 195.95L104.617 191.268H110.084ZM105.286 207L100.851 199.774L104.108 197.229L110.491 207H105.286ZM123.795 205.183L127.91 191.268H132.795L126.47 209.355C126.334 209.753 126.15 210.179 125.918 210.635C125.695 211.091 125.389 211.527 125.002 211.944C124.624 212.36 124.139 212.7 123.548 212.961C122.956 213.223 122.229 213.354 121.367 213.354C120.93 213.354 120.591 213.33 120.349 213.281C120.116 213.242 119.806 213.175 119.418 213.078L119.404 209.777C119.53 209.777 119.641 209.777 119.738 209.777C119.845 209.787 119.951 209.792 120.058 209.792C120.601 209.792 121.037 209.733 121.367 209.617C121.706 209.501 121.968 209.326 122.152 209.094C122.346 208.871 122.501 208.585 122.617 208.236L123.795 205.183ZM122.414 191.268L125.67 202.464L126.223 207.276L123.155 207.436L117.528 191.268H122.414ZM133.377 199.294V198.989C133.377 197.835 133.541 196.774 133.871 195.804C134.2 194.825 134.685 193.977 135.325 193.26C135.965 192.543 136.75 191.985 137.68 191.588C138.611 191.181 139.677 190.977 140.879 190.977C142.1 190.977 143.176 191.181 144.107 191.588C145.047 191.985 145.837 192.543 146.477 193.26C147.117 193.977 147.601 194.825 147.931 195.804C148.26 196.774 148.425 197.835 148.425 198.989V199.294C148.425 200.438 148.26 201.499 147.931 202.478C147.601 203.447 147.117 204.296 146.477 205.023C145.837 205.74 145.052 206.297 144.121 206.695C143.191 207.092 142.12 207.291 140.908 207.291C139.706 207.291 138.635 207.092 137.695 206.695C136.755 206.297 135.965 205.74 135.325 205.023C134.685 204.296 134.2 203.447 133.871 202.478C133.541 201.499 133.377 200.438 133.377 199.294ZM137.927 198.989V199.294C137.927 199.914 137.976 200.496 138.073 201.039C138.18 201.581 138.349 202.056 138.582 202.464C138.814 202.871 139.12 203.191 139.498 203.423C139.886 203.646 140.356 203.758 140.908 203.758C141.461 203.758 141.926 203.646 142.304 203.423C142.682 203.191 142.987 202.871 143.22 202.464C143.453 202.056 143.617 201.581 143.714 201.039C143.821 200.496 143.874 199.914 143.874 199.294V198.989C143.874 198.378 143.821 197.806 143.714 197.273C143.617 196.73 143.453 196.25 143.22 195.833C142.987 195.417 142.677 195.092 142.289 194.859C141.911 194.627 141.441 194.51 140.879 194.51C140.336 194.51 139.876 194.627 139.498 194.859C139.12 195.092 138.814 195.417 138.582 195.833C138.349 196.25 138.18 196.73 138.073 197.273C137.976 197.806 137.927 198.378 137.927 198.989ZM160.043 203.205V191.268H164.608V207H160.333L160.043 203.205ZM160.522 199.992L161.773 199.963C161.773 201.019 161.647 201.993 161.395 202.885C161.152 203.777 160.784 204.552 160.29 205.212C159.805 205.871 159.199 206.384 158.472 206.753C157.755 207.111 156.916 207.291 155.957 207.291C155.181 207.291 154.469 207.184 153.819 206.971C153.18 206.748 152.627 206.404 152.162 205.939C151.697 205.464 151.338 204.858 151.086 204.121C150.834 203.375 150.708 202.483 150.708 201.446V191.268H155.244V201.475C155.244 201.882 155.293 202.231 155.39 202.522C155.496 202.803 155.637 203.035 155.811 203.22C155.996 203.404 156.219 203.54 156.48 203.627C156.752 203.714 157.047 203.758 157.367 203.758C158.172 203.758 158.802 203.593 159.257 203.263C159.723 202.924 160.047 202.473 160.232 201.911C160.425 201.339 160.522 200.699 160.522 199.992ZM172.663 185.83L172.111 200.413H168.374L167.821 185.83H172.663ZM167.69 204.935C167.69 204.286 167.923 203.738 168.388 203.292C168.854 202.846 169.469 202.624 170.235 202.624C170.991 202.624 171.597 202.846 172.052 203.292C172.518 203.738 172.75 204.286 172.75 204.935C172.75 205.594 172.518 206.147 172.052 206.593C171.597 207.029 170.991 207.247 170.235 207.247C169.469 207.247 168.854 207.029 168.388 206.593C167.923 206.147 167.69 205.594 167.69 204.935Z" fill="#3D4D62"/>
</svg>
