<svg width="178" height="227" viewBox="0 0 178 227" fill="none" xmlns="http://www.w3.org/2000/svg">
<path d="M40.3516 153.938V171H36.543V153.938H40.3516ZM45.543 153.938V156.902H31.457V153.938H45.543ZM50.8164 153V171H47.1602V153H50.8164ZM50.3359 164.215L49.4219 164.238C49.4219 163.348 49.5312 162.531 49.75 161.789C49.9766 161.039 50.2969 160.387 50.7109 159.832C51.125 159.277 51.6211 158.848 52.1992 158.543C52.7852 158.238 53.4297 158.086 54.1328 158.086C54.7578 158.086 55.3281 158.176 55.8438 158.355C56.3594 158.535 56.8047 158.82 57.1797 159.211C57.5547 159.602 57.8438 160.113 58.0469 160.746C58.25 161.379 58.3516 162.148 58.3516 163.055V171H54.6719V163.031C54.6719 162.492 54.5938 162.07 54.4375 161.766C54.2891 161.461 54.0703 161.246 53.7812 161.121C53.5 160.996 53.1562 160.934 52.75 160.934C52.2734 160.934 51.8789 161.02 51.5664 161.191C51.2539 161.355 51.0078 161.586 50.8281 161.883C50.6484 162.18 50.5195 162.527 50.4414 162.926C50.3711 163.324 50.3359 163.754 50.3359 164.215ZM67.457 167.977V162.539C67.457 162.156 67.3984 161.828 67.2812 161.555C67.1641 161.281 66.9805 161.066 66.7305 160.91C66.4805 160.754 66.1562 160.676 65.7578 160.676C65.4219 160.676 65.1289 160.734 64.8789 160.852C64.6367 160.969 64.4492 161.137 64.3164 161.355C64.1914 161.574 64.1289 161.844 64.1289 162.164H60.4727C60.4727 161.594 60.6016 161.062 60.8594 160.57C61.1172 160.078 61.4844 159.645 61.9609 159.27C62.4453 158.895 63.0234 158.605 63.6953 158.402C64.3672 158.191 65.1211 158.086 65.957 158.086C66.9492 158.086 67.832 158.254 68.6055 158.59C69.3867 158.918 70.0039 159.414 70.457 160.078C70.9102 160.734 71.1367 161.562 71.1367 162.562V167.871C71.1367 168.637 71.1797 169.238 71.2656 169.676C71.3594 170.105 71.4922 170.48 71.6641 170.801V171H67.9727C67.8008 170.633 67.6719 170.18 67.5859 169.641C67.5 169.094 67.457 168.539 67.457 167.977ZM67.9141 163.266L67.9375 165.281H66.1211C65.7148 165.281 65.3633 165.332 65.0664 165.434C64.7773 165.535 64.543 165.676 64.3633 165.855C64.1836 166.027 64.0508 166.23 63.9648 166.465C63.8867 166.691 63.8477 166.941 63.8477 167.215C63.8477 167.473 63.9102 167.707 64.0352 167.918C64.1602 168.121 64.332 168.281 64.5508 168.398C64.7695 168.516 65.0234 168.574 65.3125 168.574C65.7891 168.574 66.1953 168.48 66.5312 168.293C66.875 168.105 67.1406 167.879 67.3281 167.613C67.5156 167.34 67.6094 167.086 67.6094 166.852L68.4883 168.375C68.3477 168.688 68.1758 169.012 67.9727 169.348C67.7695 169.676 67.5117 169.984 67.1992 170.273C66.8867 170.555 66.5078 170.785 66.0625 170.965C65.625 171.145 65.0977 171.234 64.4805 171.234C63.6836 171.234 62.9609 171.074 62.3125 170.754C61.6641 170.426 61.1445 169.977 60.7539 169.406C60.3711 168.836 60.1797 168.18 60.1797 167.438C60.1797 166.773 60.3008 166.184 60.543 165.668C60.7852 165.152 61.1484 164.715 61.6328 164.355C62.125 163.996 62.7422 163.727 63.4844 163.547C64.2266 163.359 65.0938 163.266 66.0859 163.266H67.9141ZM77.125 161.027V171H73.457V158.32H76.9023L77.125 161.027ZM76.6445 164.215L75.7305 164.238C75.7305 163.285 75.8477 162.43 76.082 161.672C76.3164 160.914 76.6484 160.27 77.0781 159.738C77.5156 159.199 78.0352 158.789 78.6367 158.508C79.2461 158.227 79.918 158.086 80.6523 158.086C81.2461 158.086 81.7891 158.172 82.2812 158.344C82.7734 158.516 83.1953 158.793 83.5469 159.176C83.9062 159.551 84.1797 160.051 84.3672 160.676C84.5547 161.293 84.6484 162.055 84.6484 162.961V171H80.9688V162.949C80.9688 162.418 80.8945 162.008 80.7461 161.719C80.5977 161.43 80.3789 161.227 80.0898 161.109C79.8086 160.992 79.4648 160.934 79.0586 160.934C78.6289 160.934 78.2617 161.02 77.957 161.191C77.6523 161.355 77.4023 161.586 77.207 161.883C77.0117 162.18 76.8672 162.527 76.7734 162.926C76.6875 163.324 76.6445 163.754 76.6445 164.215ZM90.7188 152.988V171H87.0508V152.988H90.7188ZM98.7695 158.32L93.25 164.695L90.332 167.625L88.8672 165.152L91.2344 162.094L94.3633 158.32H98.7695ZM94.9023 171L91.3281 165.176L93.9531 163.125L99.0977 171H94.9023ZM109.82 169.535L113.137 158.32H117.074L111.977 172.898C111.867 173.219 111.719 173.562 111.531 173.93C111.352 174.297 111.105 174.648 110.793 174.984C110.488 175.32 110.098 175.594 109.621 175.805C109.145 176.016 108.559 176.121 107.863 176.121C107.512 176.121 107.238 176.102 107.043 176.062C106.855 176.031 106.605 175.977 106.293 175.898L106.281 173.238C106.383 173.238 106.473 173.238 106.551 173.238C106.637 173.246 106.723 173.25 106.809 173.25C107.246 173.25 107.598 173.203 107.863 173.109C108.137 173.016 108.348 172.875 108.496 172.688C108.652 172.508 108.777 172.277 108.871 171.996L109.82 169.535ZM108.707 158.32L111.332 167.344L111.777 171.223L109.305 171.352L104.77 158.32H108.707ZM117.543 164.789V164.543C117.543 163.613 117.676 162.758 117.941 161.977C118.207 161.188 118.598 160.504 119.113 159.926C119.629 159.348 120.262 158.898 121.012 158.578C121.762 158.25 122.621 158.086 123.59 158.086C124.574 158.086 125.441 158.25 126.191 158.578C126.949 158.898 127.586 159.348 128.102 159.926C128.617 160.504 129.008 161.188 129.273 161.977C129.539 162.758 129.672 163.613 129.672 164.543V164.789C129.672 165.711 129.539 166.566 129.273 167.355C129.008 168.137 128.617 168.82 128.102 169.406C127.586 169.984 126.953 170.434 126.203 170.754C125.453 171.074 124.59 171.234 123.613 171.234C122.645 171.234 121.781 171.074 121.023 170.754C120.266 170.434 119.629 169.984 119.113 169.406C118.598 168.82 118.207 168.137 117.941 167.355C117.676 166.566 117.543 165.711 117.543 164.789ZM121.211 164.543V164.789C121.211 165.289 121.25 165.758 121.328 166.195C121.414 166.633 121.551 167.016 121.738 167.344C121.926 167.672 122.172 167.93 122.477 168.117C122.789 168.297 123.168 168.387 123.613 168.387C124.059 168.387 124.434 168.297 124.738 168.117C125.043 167.93 125.289 167.672 125.477 167.344C125.664 167.016 125.797 166.633 125.875 166.195C125.961 165.758 126.004 165.289 126.004 164.789V164.543C126.004 164.051 125.961 163.59 125.875 163.16C125.797 162.723 125.664 162.336 125.477 162C125.289 161.664 125.039 161.402 124.727 161.215C124.422 161.027 124.043 160.934 123.59 160.934C123.152 160.934 122.781 161.027 122.477 161.215C122.172 161.402 121.926 161.664 121.738 162C121.551 162.336 121.414 162.723 121.328 163.16C121.25 163.59 121.211 164.051 121.211 164.543ZM139.035 167.941V158.32H142.715V171H139.27L139.035 167.941ZM139.422 165.352L140.43 165.328C140.43 166.18 140.328 166.965 140.125 167.684C139.93 168.402 139.633 169.027 139.234 169.559C138.844 170.09 138.355 170.504 137.77 170.801C137.191 171.09 136.516 171.234 135.742 171.234C135.117 171.234 134.543 171.148 134.02 170.977C133.504 170.797 133.059 170.52 132.684 170.145C132.309 169.762 132.02 169.273 131.816 168.68C131.613 168.078 131.512 167.359 131.512 166.523V158.32H135.168V166.547C135.168 166.875 135.207 167.156 135.285 167.391C135.371 167.617 135.484 167.805 135.625 167.953C135.773 168.102 135.953 168.211 136.164 168.281C136.383 168.352 136.621 168.387 136.879 168.387C137.527 168.387 138.035 168.254 138.402 167.988C138.777 167.715 139.039 167.352 139.188 166.898C139.344 166.438 139.422 165.922 139.422 165.352ZM149.207 153.938L148.762 165.691H145.75L145.305 153.938H149.207ZM145.199 169.336C145.199 168.812 145.387 168.371 145.762 168.012C146.137 167.652 146.633 167.473 147.25 167.473C147.859 167.473 148.348 167.652 148.715 168.012C149.09 168.371 149.277 168.812 149.277 169.336C149.277 169.867 149.09 170.312 148.715 170.672C148.348 171.023 147.859 171.199 147.25 171.199C146.633 171.199 146.137 171.023 145.762 170.672C145.387 170.312 145.199 169.867 145.199 169.336Z" fill="#3D4D62"/>
<path d="M29.7598 192.047L32.3438 197.044L34.9346 192.047H36.4316L33 198.281V202H31.6807V198.281L28.249 192.047H29.7598ZM36.7324 198.384V198.227C36.7324 197.693 36.8099 197.199 36.9648 196.743C37.1198 196.283 37.3431 195.884 37.6348 195.547C37.9264 195.205 38.2796 194.941 38.6943 194.754C39.109 194.562 39.5739 194.467 40.0889 194.467C40.6084 194.467 41.0755 194.562 41.4902 194.754C41.9095 194.941 42.265 195.205 42.5566 195.547C42.8529 195.884 43.0785 196.283 43.2334 196.743C43.3883 197.199 43.4658 197.693 43.4658 198.227V198.384C43.4658 198.917 43.3883 199.411 43.2334 199.867C43.0785 200.323 42.8529 200.722 42.5566 201.063C42.265 201.401 41.9118 201.665 41.4971 201.856C41.0869 202.043 40.6221 202.137 40.1025 202.137C39.583 202.137 39.1159 202.043 38.7012 201.856C38.2865 201.665 37.931 201.401 37.6348 201.063C37.3431 200.722 37.1198 200.323 36.9648 199.867C36.8099 199.411 36.7324 198.917 36.7324 198.384ZM37.9971 198.227V198.384C37.9971 198.753 38.0404 199.102 38.127 199.43C38.2135 199.753 38.3434 200.04 38.5166 200.291C38.6943 200.542 38.9154 200.74 39.1797 200.886C39.444 201.027 39.7516 201.098 40.1025 201.098C40.4489 201.098 40.752 201.027 41.0117 200.886C41.276 200.74 41.4948 200.542 41.668 200.291C41.8411 200.04 41.971 199.753 42.0576 199.43C42.1488 199.102 42.1943 198.753 42.1943 198.384V198.227C42.1943 197.862 42.1488 197.518 42.0576 197.194C41.971 196.866 41.8389 196.577 41.6611 196.326C41.488 196.071 41.2692 195.87 41.0049 195.725C40.7451 195.579 40.4398 195.506 40.0889 195.506C39.7425 195.506 39.4372 195.579 39.1729 195.725C38.9131 195.87 38.6943 196.071 38.5166 196.326C38.3434 196.577 38.2135 196.866 38.127 197.194C38.0404 197.518 37.9971 197.862 37.9971 198.227ZM49.5771 200.291V194.604H50.8486V202H49.6387L49.5771 200.291ZM49.8164 198.732L50.3428 198.719C50.3428 199.211 50.2904 199.667 50.1855 200.086C50.0853 200.501 49.9212 200.861 49.6934 201.166C49.4655 201.471 49.167 201.711 48.7979 201.884C48.4287 202.052 47.9798 202.137 47.4512 202.137C47.0911 202.137 46.7607 202.084 46.46 201.979C46.1637 201.875 45.9085 201.713 45.6943 201.494C45.4801 201.275 45.3138 200.991 45.1953 200.64C45.0814 200.289 45.0244 199.867 45.0244 199.375V194.604H46.2891V199.389C46.2891 199.721 46.3255 199.997 46.3984 200.216C46.4759 200.43 46.5785 200.601 46.7061 200.729C46.8382 200.852 46.984 200.938 47.1436 200.988C47.3076 201.038 47.4762 201.063 47.6494 201.063C48.1872 201.063 48.6133 200.961 48.9277 200.756C49.2422 200.546 49.4678 200.266 49.6045 199.915C49.7458 199.56 49.8164 199.165 49.8164 198.732ZM54.041 195.766V202H52.7764V194.604H54.0068L54.041 195.766ZM56.3516 194.562L56.3447 195.738C56.2399 195.715 56.1396 195.702 56.0439 195.697C55.9528 195.688 55.848 195.684 55.7295 195.684C55.4378 195.684 55.1803 195.729 54.957 195.82C54.7337 195.911 54.5446 196.039 54.3896 196.203C54.2347 196.367 54.1117 196.563 54.0205 196.791C53.9339 197.014 53.877 197.26 53.8496 197.529L53.4941 197.734C53.4941 197.288 53.5374 196.868 53.624 196.477C53.7152 196.085 53.8542 195.738 54.041 195.438C54.2279 195.132 54.4648 194.895 54.752 194.727C55.0436 194.553 55.39 194.467 55.791 194.467C55.8822 194.467 55.987 194.478 56.1055 194.501C56.224 194.519 56.306 194.54 56.3516 194.562ZM62.8799 202H61.6152V193.824C61.6152 193.291 61.7109 192.842 61.9023 192.478C62.0983 192.108 62.3786 191.83 62.7432 191.644C63.1077 191.452 63.5407 191.356 64.042 191.356C64.1878 191.356 64.3337 191.366 64.4795 191.384C64.6299 191.402 64.7757 191.429 64.917 191.466L64.8486 192.498C64.7529 192.475 64.6436 192.459 64.5205 192.45C64.402 192.441 64.2835 192.437 64.165 192.437C63.8962 192.437 63.6637 192.491 63.4678 192.601C63.2764 192.705 63.1305 192.86 63.0303 193.065C62.93 193.271 62.8799 193.523 62.8799 193.824V202ZM64.4521 194.604V195.574H60.4463V194.604H64.4521ZM65.5254 198.384V198.227C65.5254 197.693 65.6029 197.199 65.7578 196.743C65.9128 196.283 66.1361 195.884 66.4277 195.547C66.7194 195.205 67.0726 194.941 67.4873 194.754C67.902 194.562 68.3669 194.467 68.8818 194.467C69.4014 194.467 69.8685 194.562 70.2832 194.754C70.7025 194.941 71.0579 195.205 71.3496 195.547C71.6458 195.884 71.8714 196.283 72.0264 196.743C72.1813 197.199 72.2588 197.693 72.2588 198.227V198.384C72.2588 198.917 72.1813 199.411 72.0264 199.867C71.8714 200.323 71.6458 200.722 71.3496 201.063C71.0579 201.401 70.7048 201.665 70.29 201.856C69.8799 202.043 69.415 202.137 68.8955 202.137C68.376 202.137 67.9089 202.043 67.4941 201.856C67.0794 201.665 66.724 201.401 66.4277 201.063C66.1361 200.722 65.9128 200.323 65.7578 199.867C65.6029 199.411 65.5254 198.917 65.5254 198.384ZM66.79 198.227V198.384C66.79 198.753 66.8333 199.102 66.9199 199.43C67.0065 199.753 67.1364 200.04 67.3096 200.291C67.4873 200.542 67.7083 200.74 67.9727 200.886C68.237 201.027 68.5446 201.098 68.8955 201.098C69.2419 201.098 69.5449 201.027 69.8047 200.886C70.069 200.74 70.2878 200.542 70.4609 200.291C70.6341 200.04 70.764 199.753 70.8506 199.43C70.9417 199.102 70.9873 198.753 70.9873 198.384V198.227C70.9873 197.862 70.9417 197.518 70.8506 197.194C70.764 196.866 70.6318 196.577 70.4541 196.326C70.2809 196.071 70.0622 195.87 69.7979 195.725C69.5381 195.579 69.2327 195.506 68.8818 195.506C68.5355 195.506 68.2301 195.579 67.9658 195.725C67.7061 195.87 67.4873 196.071 67.3096 196.326C67.1364 196.577 67.0065 196.866 66.9199 197.194C66.8333 197.518 66.79 197.862 66.79 198.227ZM75.1094 195.766V202H73.8447V194.604H75.0752L75.1094 195.766ZM77.4199 194.562L77.4131 195.738C77.3083 195.715 77.208 195.702 77.1123 195.697C77.0212 195.688 76.9163 195.684 76.7979 195.684C76.5062 195.684 76.2487 195.729 76.0254 195.82C75.8021 195.911 75.613 196.039 75.458 196.203C75.3031 196.367 75.18 196.563 75.0889 196.791C75.0023 197.014 74.9453 197.26 74.918 197.529L74.5625 197.734C74.5625 197.288 74.6058 196.868 74.6924 196.477C74.7835 196.085 74.9225 195.738 75.1094 195.438C75.2962 195.132 75.5332 194.895 75.8203 194.727C76.112 194.553 76.4583 194.467 76.8594 194.467C76.9505 194.467 77.0553 194.478 77.1738 194.501C77.2923 194.519 77.3743 194.54 77.4199 194.562ZM79.8467 196.073V202H78.5752V194.604H79.7783L79.8467 196.073ZM79.5869 198.021L78.999 198.001C79.0036 197.495 79.0697 197.028 79.1973 196.6C79.3249 196.167 79.514 195.791 79.7646 195.472C80.0153 195.153 80.3275 194.907 80.7012 194.733C81.0749 194.556 81.5078 194.467 82 194.467C82.3464 194.467 82.6654 194.517 82.957 194.617C83.2487 194.713 83.5016 194.866 83.7158 195.075C83.93 195.285 84.0964 195.554 84.2148 195.882C84.3333 196.21 84.3926 196.606 84.3926 197.071V202H83.1279V197.133C83.1279 196.745 83.0618 196.436 82.9297 196.203C82.8021 195.971 82.6198 195.802 82.3828 195.697C82.1458 195.588 81.8678 195.533 81.5488 195.533C81.1751 195.533 80.863 195.599 80.6123 195.731C80.3617 195.864 80.1611 196.046 80.0107 196.278C79.8604 196.511 79.751 196.777 79.6826 197.078C79.6188 197.374 79.5869 197.689 79.5869 198.021ZM84.3789 197.324L83.5312 197.584C83.5358 197.178 83.6019 196.789 83.7295 196.415C83.8617 196.041 84.0508 195.709 84.2969 195.417C84.5475 195.125 84.8551 194.895 85.2197 194.727C85.5843 194.553 86.0013 194.467 86.4707 194.467C86.8672 194.467 87.2181 194.519 87.5234 194.624C87.8333 194.729 88.0931 194.891 88.3027 195.109C88.5169 195.324 88.6787 195.599 88.7881 195.937C88.8975 196.274 88.9521 196.675 88.9521 197.14V202H87.6807V197.126C87.6807 196.711 87.6146 196.39 87.4824 196.162C87.3548 195.93 87.1725 195.768 86.9355 195.677C86.7031 195.581 86.4251 195.533 86.1016 195.533C85.8236 195.533 85.5775 195.581 85.3633 195.677C85.1491 195.772 84.9691 195.905 84.8232 196.073C84.6774 196.237 84.5658 196.426 84.4883 196.641C84.4154 196.855 84.3789 197.083 84.3789 197.324ZM95.6035 191.5V202H94.3389V191.5H95.6035ZM95.3027 198.021L94.7764 198.001C94.7809 197.495 94.8561 197.028 95.002 196.6C95.1478 196.167 95.3529 195.791 95.6172 195.472C95.8815 195.153 96.196 194.907 96.5605 194.733C96.9297 194.556 97.3376 194.467 97.7842 194.467C98.1488 194.467 98.4769 194.517 98.7686 194.617C99.0602 194.713 99.3086 194.868 99.5137 195.082C99.7233 195.296 99.8828 195.574 99.9922 195.916C100.102 196.253 100.156 196.666 100.156 197.153V202H98.8848V197.14C98.8848 196.752 98.8278 196.442 98.7139 196.21C98.5999 195.973 98.4336 195.802 98.2148 195.697C97.9961 195.588 97.7272 195.533 97.4082 195.533C97.0938 195.533 96.8066 195.599 96.5469 195.731C96.2917 195.864 96.0706 196.046 95.8838 196.278C95.7015 196.511 95.5579 196.777 95.4531 197.078C95.3529 197.374 95.3027 197.689 95.3027 198.021ZM106.411 200.735V196.928C106.411 196.636 106.352 196.383 106.233 196.169C106.119 195.95 105.946 195.782 105.714 195.663C105.481 195.545 105.194 195.485 104.853 195.485C104.534 195.485 104.253 195.54 104.012 195.649C103.775 195.759 103.588 195.902 103.451 196.08C103.319 196.258 103.253 196.449 103.253 196.654H101.988C101.988 196.39 102.057 196.128 102.193 195.868C102.33 195.608 102.526 195.374 102.781 195.164C103.041 194.95 103.351 194.781 103.711 194.658C104.076 194.531 104.481 194.467 104.928 194.467C105.465 194.467 105.939 194.558 106.35 194.74C106.764 194.923 107.088 195.198 107.32 195.567C107.557 195.932 107.676 196.39 107.676 196.941V200.387C107.676 200.633 107.696 200.895 107.737 201.173C107.783 201.451 107.849 201.69 107.936 201.891V202H106.616C106.552 201.854 106.502 201.66 106.466 201.419C106.429 201.173 106.411 200.945 106.411 200.735ZM106.63 197.516L106.644 198.404H105.365C105.005 198.404 104.684 198.434 104.401 198.493C104.119 198.548 103.882 198.632 103.69 198.746C103.499 198.86 103.353 199.004 103.253 199.177C103.153 199.345 103.103 199.544 103.103 199.771C103.103 200.004 103.155 200.216 103.26 200.407C103.365 200.599 103.522 200.751 103.731 200.865C103.946 200.975 104.208 201.029 104.518 201.029C104.905 201.029 105.247 200.947 105.543 200.783C105.839 200.619 106.074 200.419 106.247 200.182C106.425 199.945 106.521 199.715 106.534 199.491L107.074 200.1C107.042 200.291 106.956 200.503 106.814 200.735C106.673 200.968 106.484 201.191 106.247 201.405C106.015 201.615 105.737 201.79 105.413 201.932C105.094 202.068 104.734 202.137 104.333 202.137C103.832 202.137 103.392 202.039 103.014 201.843C102.64 201.647 102.348 201.385 102.139 201.057C101.934 200.724 101.831 200.353 101.831 199.942C101.831 199.546 101.909 199.197 102.063 198.896C102.218 198.591 102.442 198.338 102.733 198.138C103.025 197.933 103.376 197.778 103.786 197.673C104.196 197.568 104.654 197.516 105.16 197.516H106.63ZM113.972 200.038C113.972 199.856 113.931 199.687 113.849 199.532C113.771 199.373 113.609 199.229 113.363 199.102C113.122 198.969 112.757 198.855 112.27 198.76C111.859 198.673 111.488 198.571 111.155 198.452C110.827 198.334 110.547 198.19 110.314 198.021C110.087 197.853 109.911 197.655 109.788 197.427C109.665 197.199 109.604 196.932 109.604 196.627C109.604 196.335 109.667 196.06 109.795 195.8C109.927 195.54 110.112 195.31 110.349 195.109C110.59 194.909 110.88 194.752 111.217 194.638C111.554 194.524 111.93 194.467 112.345 194.467C112.937 194.467 113.443 194.572 113.862 194.781C114.282 194.991 114.603 195.271 114.826 195.622C115.049 195.968 115.161 196.354 115.161 196.777H113.896C113.896 196.572 113.835 196.374 113.712 196.183C113.593 195.987 113.418 195.825 113.186 195.697C112.958 195.57 112.677 195.506 112.345 195.506C111.994 195.506 111.709 195.561 111.49 195.67C111.276 195.775 111.119 195.909 111.019 196.073C110.923 196.237 110.875 196.41 110.875 196.593C110.875 196.729 110.898 196.853 110.943 196.962C110.993 197.067 111.08 197.165 111.203 197.256C111.326 197.342 111.499 197.424 111.723 197.502C111.946 197.579 112.231 197.657 112.577 197.734C113.183 197.871 113.682 198.035 114.074 198.227C114.466 198.418 114.758 198.653 114.949 198.931C115.141 199.209 115.236 199.546 115.236 199.942C115.236 200.266 115.168 200.562 115.031 200.831C114.899 201.1 114.705 201.332 114.45 201.528C114.2 201.72 113.899 201.87 113.548 201.979C113.201 202.084 112.812 202.137 112.379 202.137C111.727 202.137 111.176 202.021 110.725 201.788C110.273 201.556 109.932 201.255 109.699 200.886C109.467 200.517 109.351 200.127 109.351 199.717H110.622C110.64 200.063 110.741 200.339 110.923 200.544C111.105 200.744 111.328 200.888 111.593 200.975C111.857 201.057 112.119 201.098 112.379 201.098C112.725 201.098 113.015 201.052 113.247 200.961C113.484 200.87 113.664 200.744 113.787 200.585C113.91 200.425 113.972 200.243 113.972 200.038ZM120.363 191.5H121.635V200.564L121.525 202H120.363V191.5ZM126.632 198.24V198.384C126.632 198.922 126.568 199.421 126.44 199.881C126.313 200.337 126.126 200.733 125.88 201.07C125.634 201.408 125.333 201.67 124.978 201.856C124.622 202.043 124.214 202.137 123.754 202.137C123.285 202.137 122.872 202.057 122.517 201.897C122.166 201.733 121.869 201.499 121.628 201.193C121.386 200.888 121.193 200.519 121.047 200.086C120.906 199.653 120.808 199.165 120.753 198.623V197.994C120.808 197.447 120.906 196.957 121.047 196.524C121.193 196.091 121.386 195.722 121.628 195.417C121.869 195.107 122.166 194.872 122.517 194.713C122.868 194.549 123.275 194.467 123.74 194.467C124.205 194.467 124.618 194.558 124.978 194.74C125.338 194.918 125.638 195.173 125.88 195.506C126.126 195.839 126.313 196.237 126.44 196.702C126.568 197.162 126.632 197.675 126.632 198.24ZM125.36 198.384V198.24C125.36 197.871 125.326 197.525 125.258 197.201C125.189 196.873 125.08 196.586 124.93 196.34C124.779 196.089 124.581 195.893 124.335 195.752C124.089 195.606 123.786 195.533 123.426 195.533C123.107 195.533 122.829 195.588 122.592 195.697C122.359 195.807 122.161 195.955 121.997 196.142C121.833 196.324 121.699 196.534 121.594 196.771C121.493 197.003 121.418 197.244 121.368 197.495V199.143C121.441 199.462 121.56 199.769 121.724 200.065C121.892 200.357 122.116 200.596 122.394 200.783C122.676 200.97 123.025 201.063 123.439 201.063C123.781 201.063 124.073 200.995 124.314 200.858C124.561 200.717 124.759 200.523 124.909 200.277C125.064 200.031 125.178 199.746 125.251 199.423C125.324 199.099 125.36 198.753 125.36 198.384ZM131.301 202.137C130.786 202.137 130.319 202.05 129.899 201.877C129.485 201.699 129.127 201.451 128.826 201.132C128.53 200.813 128.302 200.435 128.143 199.997C127.983 199.56 127.903 199.081 127.903 198.562V198.274C127.903 197.673 127.992 197.137 128.17 196.668C128.348 196.194 128.589 195.793 128.895 195.465C129.2 195.137 129.546 194.888 129.934 194.72C130.321 194.551 130.722 194.467 131.137 194.467C131.665 194.467 132.121 194.558 132.504 194.74C132.891 194.923 133.208 195.178 133.454 195.506C133.7 195.829 133.882 196.212 134.001 196.654C134.119 197.092 134.179 197.57 134.179 198.09V198.657H128.655V197.625H132.914V197.529C132.896 197.201 132.827 196.882 132.709 196.572C132.595 196.262 132.413 196.007 132.162 195.807C131.911 195.606 131.57 195.506 131.137 195.506C130.85 195.506 130.585 195.567 130.344 195.69C130.102 195.809 129.895 195.987 129.722 196.224C129.549 196.461 129.414 196.75 129.318 197.092C129.223 197.434 129.175 197.828 129.175 198.274V198.562C129.175 198.912 129.223 199.243 129.318 199.553C129.419 199.858 129.562 200.127 129.749 200.359C129.94 200.592 130.171 200.774 130.439 200.906C130.713 201.038 131.023 201.104 131.369 201.104C131.816 201.104 132.194 201.013 132.504 200.831C132.814 200.649 133.085 200.405 133.317 200.1L134.083 200.708C133.924 200.95 133.721 201.18 133.475 201.398C133.229 201.617 132.925 201.795 132.565 201.932C132.21 202.068 131.788 202.137 131.301 202.137ZM138.725 202.137C138.21 202.137 137.743 202.05 137.323 201.877C136.909 201.699 136.551 201.451 136.25 201.132C135.954 200.813 135.726 200.435 135.566 199.997C135.407 199.56 135.327 199.081 135.327 198.562V198.274C135.327 197.673 135.416 197.137 135.594 196.668C135.771 196.194 136.013 195.793 136.318 195.465C136.624 195.137 136.97 194.888 137.357 194.72C137.745 194.551 138.146 194.467 138.561 194.467C139.089 194.467 139.545 194.558 139.928 194.74C140.315 194.923 140.632 195.178 140.878 195.506C141.124 195.829 141.306 196.212 141.425 196.654C141.543 197.092 141.603 197.57 141.603 198.09V198.657H136.079V197.625H140.338V197.529C140.32 197.201 140.251 196.882 140.133 196.572C140.019 196.262 139.837 196.007 139.586 195.807C139.335 195.606 138.993 195.506 138.561 195.506C138.273 195.506 138.009 195.567 137.768 195.69C137.526 195.809 137.319 195.987 137.146 196.224C136.972 196.461 136.838 196.75 136.742 197.092C136.646 197.434 136.599 197.828 136.599 198.274V198.562C136.599 198.912 136.646 199.243 136.742 199.553C136.842 199.858 136.986 200.127 137.173 200.359C137.364 200.592 137.594 200.774 137.863 200.906C138.137 201.038 138.447 201.104 138.793 201.104C139.24 201.104 139.618 201.013 139.928 200.831C140.238 200.649 140.509 200.405 140.741 200.1L141.507 200.708C141.347 200.95 141.145 201.18 140.898 201.398C140.652 201.617 140.349 201.795 139.989 201.932C139.634 202.068 139.212 202.137 138.725 202.137ZM144.344 196.183V202H143.079V194.604H144.275L144.344 196.183ZM144.043 198.021L143.517 198.001C143.521 197.495 143.596 197.028 143.742 196.6C143.888 196.167 144.093 195.791 144.357 195.472C144.622 195.153 144.936 194.907 145.301 194.733C145.67 194.556 146.078 194.467 146.524 194.467C146.889 194.467 147.217 194.517 147.509 194.617C147.8 194.713 148.049 194.868 148.254 195.082C148.464 195.296 148.623 195.574 148.732 195.916C148.842 196.253 148.896 196.666 148.896 197.153V202H147.625V197.14C147.625 196.752 147.568 196.442 147.454 196.21C147.34 195.973 147.174 195.802 146.955 195.697C146.736 195.588 146.467 195.533 146.148 195.533C145.834 195.533 145.547 195.599 145.287 195.731C145.032 195.864 144.811 196.046 144.624 196.278C144.442 196.511 144.298 196.777 144.193 197.078C144.093 197.374 144.043 197.689 144.043 198.021ZM20.7979 220.038C20.7979 219.856 20.7568 219.687 20.6748 219.532C20.5973 219.373 20.4355 219.229 20.1895 219.102C19.9479 218.969 19.5833 218.855 19.0957 218.76C18.6855 218.673 18.3141 218.571 17.9814 218.452C17.6533 218.334 17.373 218.19 17.1406 218.021C16.9128 217.853 16.7373 217.655 16.6143 217.427C16.4912 217.199 16.4297 216.932 16.4297 216.627C16.4297 216.335 16.4935 216.06 16.6211 215.8C16.7533 215.54 16.9378 215.31 17.1748 215.109C17.4163 214.909 17.7057 214.752 18.043 214.638C18.3802 214.524 18.7562 214.467 19.1709 214.467C19.7633 214.467 20.2692 214.572 20.6885 214.781C21.1077 214.991 21.429 215.271 21.6523 215.622C21.8757 215.968 21.9873 216.354 21.9873 216.777H20.7227C20.7227 216.572 20.6611 216.374 20.5381 216.183C20.4196 215.987 20.2441 215.825 20.0117 215.697C19.7839 215.57 19.5036 215.506 19.1709 215.506C18.82 215.506 18.5352 215.561 18.3164 215.67C18.1022 215.775 17.945 215.909 17.8447 216.073C17.749 216.237 17.7012 216.41 17.7012 216.593C17.7012 216.729 17.724 216.853 17.7695 216.962C17.8197 217.067 17.9062 217.165 18.0293 217.256C18.1523 217.342 18.3255 217.424 18.5488 217.502C18.7721 217.579 19.057 217.657 19.4033 217.734C20.0094 217.871 20.5085 218.035 20.9004 218.227C21.2923 218.418 21.584 218.653 21.7754 218.931C21.9668 219.209 22.0625 219.546 22.0625 219.942C22.0625 220.266 21.9941 220.562 21.8574 220.831C21.7253 221.1 21.5316 221.332 21.2764 221.528C21.0257 221.72 20.7249 221.87 20.374 221.979C20.0277 222.084 19.638 222.137 19.2051 222.137C18.5534 222.137 18.002 222.021 17.5508 221.788C17.0996 221.556 16.7578 221.255 16.5254 220.886C16.293 220.517 16.1768 220.127 16.1768 219.717H17.4482C17.4665 220.063 17.5667 220.339 17.749 220.544C17.9313 220.744 18.1546 220.888 18.4189 220.975C18.6833 221.057 18.9453 221.098 19.2051 221.098C19.5514 221.098 19.8408 221.052 20.0732 220.961C20.3102 220.87 20.4902 220.744 20.6133 220.585C20.7363 220.425 20.7979 220.243 20.7979 220.038ZM28.249 220.291V214.604H29.5205V222H28.3105L28.249 220.291ZM28.4883 218.732L29.0146 218.719C29.0146 219.211 28.9622 219.667 28.8574 220.086C28.7572 220.501 28.5931 220.861 28.3652 221.166C28.1374 221.471 27.8389 221.711 27.4697 221.884C27.1006 222.052 26.6517 222.137 26.123 222.137C25.763 222.137 25.4326 222.084 25.1318 221.979C24.8356 221.875 24.5804 221.713 24.3662 221.494C24.152 221.275 23.9857 220.991 23.8672 220.64C23.7533 220.289 23.6963 219.867 23.6963 219.375V214.604H24.9609V219.389C24.9609 219.721 24.9974 219.997 25.0703 220.216C25.1478 220.43 25.2503 220.601 25.3779 220.729C25.5101 220.852 25.6559 220.938 25.8154 220.988C25.9795 221.038 26.1481 221.063 26.3213 221.063C26.859 221.063 27.2852 220.961 27.5996 220.756C27.9141 220.546 28.1396 220.266 28.2764 219.915C28.4176 219.56 28.4883 219.165 28.4883 218.732ZM31.4414 211.5H32.7129V220.564L32.6035 222H31.4414V211.5ZM37.71 218.24V218.384C37.71 218.922 37.6462 219.421 37.5186 219.881C37.391 220.337 37.2041 220.733 36.958 221.07C36.7119 221.408 36.4111 221.67 36.0557 221.856C35.7002 222.043 35.2923 222.137 34.832 222.137C34.3626 222.137 33.9502 222.057 33.5947 221.897C33.2438 221.733 32.9476 221.499 32.7061 221.193C32.4645 220.888 32.2708 220.519 32.125 220.086C31.9837 219.653 31.8857 219.165 31.8311 218.623V217.994C31.8857 217.447 31.9837 216.957 32.125 216.524C32.2708 216.091 32.4645 215.722 32.7061 215.417C32.9476 215.107 33.2438 214.872 33.5947 214.713C33.9456 214.549 34.3535 214.467 34.8184 214.467C35.2832 214.467 35.6956 214.558 36.0557 214.74C36.4157 214.918 36.7165 215.173 36.958 215.506C37.2041 215.839 37.391 216.237 37.5186 216.702C37.6462 217.162 37.71 217.675 37.71 218.24ZM36.4385 218.384V218.24C36.4385 217.871 36.4043 217.525 36.3359 217.201C36.2676 216.873 36.1582 216.586 36.0078 216.34C35.8574 216.089 35.6592 215.893 35.4131 215.752C35.167 215.606 34.8639 215.533 34.5039 215.533C34.1849 215.533 33.9069 215.588 33.6699 215.697C33.4375 215.807 33.2393 215.955 33.0752 216.142C32.9111 216.324 32.7767 216.534 32.6719 216.771C32.5716 217.003 32.4964 217.244 32.4463 217.495V219.143C32.5192 219.462 32.6377 219.769 32.8018 220.065C32.9704 220.357 33.1937 220.596 33.4717 220.783C33.7542 220.97 34.1029 221.063 34.5176 221.063C34.8594 221.063 35.151 220.995 35.3926 220.858C35.6387 220.717 35.8369 220.523 35.9873 220.277C36.1423 220.031 36.2562 219.746 36.3291 219.423C36.402 219.099 36.4385 218.753 36.4385 218.384ZM40.5674 216.073V222H39.2959V214.604H40.499L40.5674 216.073ZM40.3076 218.021L39.7197 218.001C39.7243 217.495 39.7904 217.028 39.918 216.6C40.0456 216.167 40.2347 215.791 40.4854 215.472C40.736 215.153 41.0482 214.907 41.4219 214.733C41.7956 214.556 42.2285 214.467 42.7207 214.467C43.0671 214.467 43.3861 214.517 43.6777 214.617C43.9694 214.713 44.2223 214.866 44.4365 215.075C44.6507 215.285 44.8171 215.554 44.9355 215.882C45.054 216.21 45.1133 216.606 45.1133 217.071V222H43.8486V217.133C43.8486 216.745 43.7826 216.436 43.6504 216.203C43.5228 215.971 43.3405 215.802 43.1035 215.697C42.8665 215.588 42.5885 215.533 42.2695 215.533C41.8958 215.533 41.5837 215.599 41.333 215.731C41.0824 215.864 40.8818 216.046 40.7314 216.278C40.5811 216.511 40.4717 216.777 40.4033 217.078C40.3395 217.374 40.3076 217.689 40.3076 218.021ZM45.0996 217.324L44.252 217.584C44.2565 217.178 44.3226 216.789 44.4502 216.415C44.5824 216.041 44.7715 215.709 45.0176 215.417C45.2682 215.125 45.5758 214.895 45.9404 214.727C46.305 214.553 46.722 214.467 47.1914 214.467C47.5879 214.467 47.9388 214.519 48.2441 214.624C48.554 214.729 48.8138 214.891 49.0234 215.109C49.2376 215.324 49.3994 215.599 49.5088 215.937C49.6182 216.274 49.6729 216.675 49.6729 217.14V222H48.4014V217.126C48.4014 216.711 48.3353 216.39 48.2031 216.162C48.0755 215.93 47.8932 215.768 47.6562 215.677C47.4238 215.581 47.1458 215.533 46.8223 215.533C46.5443 215.533 46.2982 215.581 46.084 215.677C45.8698 215.772 45.6898 215.905 45.5439 216.073C45.3981 216.237 45.2865 216.426 45.209 216.641C45.1361 216.855 45.0996 217.083 45.0996 217.324ZM52.9609 214.604V222H51.6895V214.604H52.9609ZM51.5938 212.642C51.5938 212.437 51.6553 212.263 51.7783 212.122C51.9059 211.981 52.0928 211.91 52.3389 211.91C52.5804 211.91 52.765 211.981 52.8926 212.122C53.0247 212.263 53.0908 212.437 53.0908 212.642C53.0908 212.838 53.0247 213.006 52.8926 213.147C52.765 213.284 52.5804 213.353 52.3389 213.353C52.0928 213.353 51.9059 213.284 51.7783 213.147C51.6553 213.006 51.5938 212.838 51.5938 212.642ZM58.0879 214.604V215.574H54.0889V214.604H58.0879ZM55.4424 212.806H56.707V220.168C56.707 220.419 56.7458 220.608 56.8232 220.735C56.9007 220.863 57.001 220.947 57.124 220.988C57.2471 221.029 57.3792 221.05 57.5205 221.05C57.6253 221.05 57.7347 221.041 57.8486 221.022C57.9671 221 58.056 220.981 58.1152 220.968L58.1221 222C58.0218 222.032 57.8896 222.062 57.7256 222.089C57.5661 222.121 57.3724 222.137 57.1445 222.137C56.8346 222.137 56.5498 222.075 56.29 221.952C56.0303 221.829 55.8229 221.624 55.668 221.337C55.5176 221.045 55.4424 220.653 55.4424 220.161V212.806ZM62.668 214.604V215.574H58.6689V214.604H62.668ZM60.0225 212.806H61.2871V220.168C61.2871 220.419 61.3258 220.608 61.4033 220.735C61.4808 220.863 61.5811 220.947 61.7041 220.988C61.8271 221.029 61.9593 221.05 62.1006 221.05C62.2054 221.05 62.3148 221.041 62.4287 221.022C62.5472 221 62.6361 220.981 62.6953 220.968L62.7021 222C62.6019 222.032 62.4697 222.062 62.3057 222.089C62.1462 222.121 61.9525 222.137 61.7246 222.137C61.4147 222.137 61.1299 222.075 60.8701 221.952C60.6104 221.829 60.403 221.624 60.248 221.337C60.0977 221.045 60.0225 220.653 60.0225 220.161V212.806ZM67.2207 222.137C66.7057 222.137 66.2386 222.05 65.8193 221.877C65.4046 221.699 65.0469 221.451 64.7461 221.132C64.4499 220.813 64.222 220.435 64.0625 219.997C63.903 219.56 63.8232 219.081 63.8232 218.562V218.274C63.8232 217.673 63.9121 217.137 64.0898 216.668C64.2676 216.194 64.5091 215.793 64.8145 215.465C65.1198 215.137 65.4661 214.888 65.8535 214.72C66.2409 214.551 66.6419 214.467 67.0566 214.467C67.5853 214.467 68.041 214.558 68.4238 214.74C68.8112 214.923 69.1279 215.178 69.374 215.506C69.6201 215.829 69.8024 216.212 69.9209 216.654C70.0394 217.092 70.0986 217.57 70.0986 218.09V218.657H64.5752V217.625H68.834V217.529C68.8158 217.201 68.7474 216.882 68.6289 216.572C68.515 216.262 68.3327 216.007 68.082 215.807C67.8314 215.606 67.4896 215.506 67.0566 215.506C66.7695 215.506 66.5052 215.567 66.2637 215.69C66.0221 215.809 65.8148 215.987 65.6416 216.224C65.4684 216.461 65.334 216.75 65.2383 217.092C65.1426 217.434 65.0947 217.828 65.0947 218.274V218.562C65.0947 218.912 65.1426 219.243 65.2383 219.553C65.3385 219.858 65.4821 220.127 65.6689 220.359C65.8604 220.592 66.0905 220.774 66.3594 220.906C66.6328 221.038 66.9427 221.104 67.2891 221.104C67.7357 221.104 68.1139 221.013 68.4238 220.831C68.7337 220.649 69.0049 220.405 69.2373 220.1L70.0029 220.708C69.8434 220.95 69.6406 221.18 69.3945 221.398C69.1484 221.617 68.8454 221.795 68.4854 221.932C68.1299 222.068 67.7083 222.137 67.2207 222.137ZM76.2373 220.564V211.5H77.5088V222H76.3467L76.2373 220.564ZM71.2607 218.384V218.24C71.2607 217.675 71.3291 217.162 71.4658 216.702C71.6071 216.237 71.8053 215.839 72.0605 215.506C72.3203 215.173 72.6279 214.918 72.9834 214.74C73.3434 214.558 73.7445 214.467 74.1865 214.467C74.6514 214.467 75.057 214.549 75.4033 214.713C75.7542 214.872 76.0505 215.107 76.292 215.417C76.5381 215.722 76.7318 216.091 76.873 216.524C77.0143 216.957 77.1123 217.447 77.167 217.994V218.623C77.1169 219.165 77.0189 219.653 76.873 220.086C76.7318 220.519 76.5381 220.888 76.292 221.193C76.0505 221.499 75.7542 221.733 75.4033 221.897C75.0524 222.057 74.6423 222.137 74.1729 222.137C73.7399 222.137 73.3434 222.043 72.9834 221.856C72.6279 221.67 72.3203 221.408 72.0605 221.07C71.8053 220.733 71.6071 220.337 71.4658 219.881C71.3291 219.421 71.2607 218.922 71.2607 218.384ZM72.5322 218.24V218.384C72.5322 218.753 72.5687 219.099 72.6416 219.423C72.7191 219.746 72.8376 220.031 72.9971 220.277C73.1566 220.523 73.3594 220.717 73.6055 220.858C73.8516 220.995 74.1455 221.063 74.4873 221.063C74.9066 221.063 75.2507 220.975 75.5195 220.797C75.793 220.619 76.0117 220.384 76.1758 220.093C76.3398 219.801 76.4674 219.484 76.5586 219.143V217.495C76.5039 217.244 76.4242 217.003 76.3193 216.771C76.2191 216.534 76.0869 216.324 75.9229 216.142C75.7633 215.955 75.5651 215.807 75.3281 215.697C75.0957 215.588 74.82 215.533 74.501 215.533C74.1546 215.533 73.8561 215.606 73.6055 215.752C73.3594 215.893 73.1566 216.089 72.9971 216.34C72.8376 216.586 72.7191 216.873 72.6416 217.201C72.5687 217.525 72.5322 217.871 72.5322 218.24ZM87.2568 220.038C87.2568 219.856 87.2158 219.687 87.1338 219.532C87.0563 219.373 86.8945 219.229 86.6484 219.102C86.4069 218.969 86.0423 218.855 85.5547 218.76C85.1445 218.673 84.7731 218.571 84.4404 218.452C84.1123 218.334 83.832 218.19 83.5996 218.021C83.3717 217.853 83.1963 217.655 83.0732 217.427C82.9502 217.199 82.8887 216.932 82.8887 216.627C82.8887 216.335 82.9525 216.06 83.0801 215.8C83.2122 215.54 83.3968 215.31 83.6338 215.109C83.8753 214.909 84.1647 214.752 84.502 214.638C84.8392 214.524 85.2152 214.467 85.6299 214.467C86.2223 214.467 86.7282 214.572 87.1475 214.781C87.5667 214.991 87.888 215.271 88.1113 215.622C88.3346 215.968 88.4463 216.354 88.4463 216.777H87.1816C87.1816 216.572 87.1201 216.374 86.9971 216.183C86.8786 215.987 86.7031 215.825 86.4707 215.697C86.2428 215.57 85.9626 215.506 85.6299 215.506C85.279 215.506 84.9941 215.561 84.7754 215.67C84.5612 215.775 84.404 215.909 84.3037 216.073C84.208 216.237 84.1602 216.41 84.1602 216.593C84.1602 216.729 84.1829 216.853 84.2285 216.962C84.2786 217.067 84.3652 217.165 84.4883 217.256C84.6113 217.342 84.7845 217.424 85.0078 217.502C85.2311 217.579 85.516 217.657 85.8623 217.734C86.4684 217.871 86.9674 218.035 87.3594 218.227C87.7513 218.418 88.043 218.653 88.2344 218.931C88.4258 219.209 88.5215 219.546 88.5215 219.942C88.5215 220.266 88.4531 220.562 88.3164 220.831C88.1842 221.1 87.9906 221.332 87.7354 221.528C87.4847 221.72 87.1839 221.87 86.833 221.979C86.4867 222.084 86.097 222.137 85.6641 222.137C85.0124 222.137 84.4609 222.021 84.0098 221.788C83.5586 221.556 83.2168 221.255 82.9844 220.886C82.752 220.517 82.6357 220.127 82.6357 219.717H83.9072C83.9255 220.063 84.0257 220.339 84.208 220.544C84.3903 220.744 84.6136 220.888 84.8779 220.975C85.1423 221.057 85.4043 221.098 85.6641 221.098C86.0104 221.098 86.2998 221.052 86.5322 220.961C86.7692 220.87 86.9492 220.744 87.0723 220.585C87.1953 220.425 87.2568 220.243 87.2568 220.038ZM94.708 220.291V214.604H95.9795V222H94.7695L94.708 220.291ZM94.9473 218.732L95.4736 218.719C95.4736 219.211 95.4212 219.667 95.3164 220.086C95.2161 220.501 95.0521 220.861 94.8242 221.166C94.5964 221.471 94.2979 221.711 93.9287 221.884C93.5596 222.052 93.1107 222.137 92.582 222.137C92.222 222.137 91.8916 222.084 91.5908 221.979C91.2946 221.875 91.0394 221.713 90.8252 221.494C90.611 221.275 90.4447 220.991 90.3262 220.64C90.2122 220.289 90.1553 219.867 90.1553 219.375V214.604H91.4199V219.389C91.4199 219.721 91.4564 219.997 91.5293 220.216C91.6068 220.43 91.7093 220.601 91.8369 220.729C91.9691 220.852 92.1149 220.938 92.2744 220.988C92.4385 221.038 92.6071 221.063 92.7803 221.063C93.318 221.063 93.7441 220.961 94.0586 220.756C94.373 220.546 94.5986 220.266 94.7354 219.915C94.8766 219.56 94.9473 219.165 94.9473 218.732ZM100.867 221.098C101.168 221.098 101.446 221.036 101.701 220.913C101.956 220.79 102.166 220.621 102.33 220.407C102.494 220.188 102.588 219.94 102.61 219.662H103.813C103.791 220.1 103.643 220.507 103.369 220.886C103.1 221.259 102.747 221.562 102.31 221.795C101.872 222.023 101.391 222.137 100.867 222.137C100.311 222.137 99.8258 222.039 99.4111 221.843C99.001 221.647 98.6592 221.378 98.3857 221.036C98.1169 220.694 97.9141 220.302 97.7773 219.86C97.6452 219.414 97.5791 218.942 97.5791 218.445V218.158C97.5791 217.661 97.6452 217.192 97.7773 216.75C97.9141 216.303 98.1169 215.909 98.3857 215.567C98.6592 215.226 99.001 214.957 99.4111 214.761C99.8258 214.565 100.311 214.467 100.867 214.467C101.446 214.467 101.952 214.585 102.385 214.822C102.818 215.055 103.157 215.374 103.403 215.779C103.654 216.18 103.791 216.636 103.813 217.146H102.61C102.588 216.841 102.501 216.565 102.351 216.319C102.205 216.073 102.004 215.877 101.749 215.731C101.498 215.581 101.204 215.506 100.867 215.506C100.48 215.506 100.154 215.583 99.8896 215.738C99.6299 215.889 99.4225 216.094 99.2676 216.354C99.1172 216.609 99.0078 216.894 98.9395 217.208C98.8757 217.518 98.8438 217.835 98.8438 218.158V218.445C98.8438 218.769 98.8757 219.088 98.9395 219.402C99.0033 219.717 99.1104 220.002 99.2607 220.257C99.4157 220.512 99.623 220.717 99.8828 220.872C100.147 221.022 100.475 221.098 100.867 221.098ZM108.195 221.098C108.496 221.098 108.774 221.036 109.029 220.913C109.285 220.79 109.494 220.621 109.658 220.407C109.822 220.188 109.916 219.94 109.938 219.662H111.142C111.119 220.1 110.971 220.507 110.697 220.886C110.428 221.259 110.075 221.562 109.638 221.795C109.2 222.023 108.719 222.137 108.195 222.137C107.639 222.137 107.154 222.039 106.739 221.843C106.329 221.647 105.987 221.378 105.714 221.036C105.445 220.694 105.242 220.302 105.105 219.86C104.973 219.414 104.907 218.942 104.907 218.445V218.158C104.907 217.661 104.973 217.192 105.105 216.75C105.242 216.303 105.445 215.909 105.714 215.567C105.987 215.226 106.329 214.957 106.739 214.761C107.154 214.565 107.639 214.467 108.195 214.467C108.774 214.467 109.28 214.585 109.713 214.822C110.146 215.055 110.485 215.374 110.731 215.779C110.982 216.18 111.119 216.636 111.142 217.146H109.938C109.916 216.841 109.829 216.565 109.679 216.319C109.533 216.073 109.332 215.877 109.077 215.731C108.826 215.581 108.533 215.506 108.195 215.506C107.808 215.506 107.482 215.583 107.218 215.738C106.958 215.889 106.751 216.094 106.596 216.354C106.445 216.609 106.336 216.894 106.268 217.208C106.204 217.518 106.172 217.835 106.172 218.158V218.445C106.172 218.769 106.204 219.088 106.268 219.402C106.331 219.717 106.438 220.002 106.589 220.257C106.744 220.512 106.951 220.717 107.211 220.872C107.475 221.022 107.803 221.098 108.195 221.098ZM115.633 222.137C115.118 222.137 114.651 222.05 114.231 221.877C113.817 221.699 113.459 221.451 113.158 221.132C112.862 220.813 112.634 220.435 112.475 219.997C112.315 219.56 112.235 219.081 112.235 218.562V218.274C112.235 217.673 112.324 217.137 112.502 216.668C112.68 216.194 112.921 215.793 113.227 215.465C113.532 215.137 113.878 214.888 114.266 214.72C114.653 214.551 115.054 214.467 115.469 214.467C115.997 214.467 116.453 214.558 116.836 214.74C117.223 214.923 117.54 215.178 117.786 215.506C118.032 215.829 118.215 216.212 118.333 216.654C118.451 217.092 118.511 217.57 118.511 218.09V218.657H112.987V217.625H117.246V217.529C117.228 217.201 117.16 216.882 117.041 216.572C116.927 216.262 116.745 216.007 116.494 215.807C116.243 215.606 115.902 215.506 115.469 215.506C115.182 215.506 114.917 215.567 114.676 215.69C114.434 215.809 114.227 215.987 114.054 216.224C113.881 216.461 113.746 216.75 113.65 217.092C113.555 217.434 113.507 217.828 113.507 218.274V218.562C113.507 218.912 113.555 219.243 113.65 219.553C113.751 219.858 113.894 220.127 114.081 220.359C114.272 220.592 114.503 220.774 114.771 220.906C115.045 221.038 115.355 221.104 115.701 221.104C116.148 221.104 116.526 221.013 116.836 220.831C117.146 220.649 117.417 220.405 117.649 220.1L118.415 220.708C118.256 220.95 118.053 221.18 117.807 221.398C117.561 221.617 117.257 221.795 116.897 221.932C116.542 222.068 116.12 222.137 115.633 222.137ZM124.294 220.038C124.294 219.856 124.253 219.687 124.171 219.532C124.093 219.373 123.932 219.229 123.686 219.102C123.444 218.969 123.079 218.855 122.592 218.76C122.182 218.673 121.81 218.571 121.478 218.452C121.149 218.334 120.869 218.19 120.637 218.021C120.409 217.853 120.233 217.655 120.11 217.427C119.987 217.199 119.926 216.932 119.926 216.627C119.926 216.335 119.99 216.06 120.117 215.8C120.249 215.54 120.434 215.31 120.671 215.109C120.912 214.909 121.202 214.752 121.539 214.638C121.876 214.524 122.252 214.467 122.667 214.467C123.259 214.467 123.765 214.572 124.185 214.781C124.604 214.991 124.925 215.271 125.148 215.622C125.372 215.968 125.483 216.354 125.483 216.777H124.219C124.219 216.572 124.157 216.374 124.034 216.183C123.916 215.987 123.74 215.825 123.508 215.697C123.28 215.57 123 215.506 122.667 215.506C122.316 215.506 122.031 215.561 121.812 215.67C121.598 215.775 121.441 215.909 121.341 216.073C121.245 216.237 121.197 216.41 121.197 216.593C121.197 216.729 121.22 216.853 121.266 216.962C121.316 217.067 121.402 217.165 121.525 217.256C121.648 217.342 121.822 217.424 122.045 217.502C122.268 217.579 122.553 217.657 122.899 217.734C123.506 217.871 124.005 218.035 124.396 218.227C124.788 218.418 125.08 218.653 125.271 218.931C125.463 219.209 125.559 219.546 125.559 219.942C125.559 220.266 125.49 220.562 125.354 220.831C125.221 221.1 125.028 221.332 124.772 221.528C124.522 221.72 124.221 221.87 123.87 221.979C123.524 222.084 123.134 222.137 122.701 222.137C122.049 222.137 121.498 222.021 121.047 221.788C120.596 221.556 120.254 221.255 120.021 220.886C119.789 220.517 119.673 220.127 119.673 219.717H120.944C120.963 220.063 121.063 220.339 121.245 220.544C121.427 220.744 121.651 220.888 121.915 220.975C122.179 221.057 122.441 221.098 122.701 221.098C123.048 221.098 123.337 221.052 123.569 220.961C123.806 220.87 123.986 220.744 124.109 220.585C124.232 220.425 124.294 220.243 124.294 220.038ZM131.526 220.038C131.526 219.856 131.485 219.687 131.403 219.532C131.326 219.373 131.164 219.229 130.918 219.102C130.676 218.969 130.312 218.855 129.824 218.76C129.414 218.673 129.043 218.571 128.71 218.452C128.382 218.334 128.102 218.19 127.869 218.021C127.641 217.853 127.466 217.655 127.343 217.427C127.22 217.199 127.158 216.932 127.158 216.627C127.158 216.335 127.222 216.06 127.35 215.8C127.482 215.54 127.666 215.31 127.903 215.109C128.145 214.909 128.434 214.752 128.771 214.638C129.109 214.524 129.485 214.467 129.899 214.467C130.492 214.467 130.998 214.572 131.417 214.781C131.836 214.991 132.158 215.271 132.381 215.622C132.604 215.968 132.716 216.354 132.716 216.777H131.451C131.451 216.572 131.39 216.374 131.267 216.183C131.148 215.987 130.973 215.825 130.74 215.697C130.512 215.57 130.232 215.506 129.899 215.506C129.549 215.506 129.264 215.561 129.045 215.67C128.831 215.775 128.674 215.909 128.573 216.073C128.478 216.237 128.43 216.41 128.43 216.593C128.43 216.729 128.452 216.853 128.498 216.962C128.548 217.067 128.635 217.165 128.758 217.256C128.881 217.342 129.054 217.424 129.277 217.502C129.501 217.579 129.785 217.657 130.132 217.734C130.738 217.871 131.237 218.035 131.629 218.227C132.021 218.418 132.312 218.653 132.504 218.931C132.695 219.209 132.791 219.546 132.791 219.942C132.791 220.266 132.723 220.562 132.586 220.831C132.454 221.1 132.26 221.332 132.005 221.528C131.754 221.72 131.453 221.87 131.103 221.979C130.756 222.084 130.367 222.137 129.934 222.137C129.282 222.137 128.73 222.021 128.279 221.788C127.828 221.556 127.486 221.255 127.254 220.886C127.021 220.517 126.905 220.127 126.905 219.717H128.177C128.195 220.063 128.295 220.339 128.478 220.544C128.66 220.744 128.883 220.888 129.147 220.975C129.412 221.057 129.674 221.098 129.934 221.098C130.28 221.098 130.569 221.052 130.802 220.961C131.039 220.87 131.219 220.744 131.342 220.585C131.465 220.425 131.526 220.243 131.526 220.038ZM136.339 222H135.074V213.824C135.074 213.291 135.17 212.842 135.361 212.478C135.557 212.108 135.838 211.83 136.202 211.644C136.567 211.452 137 211.356 137.501 211.356C137.647 211.356 137.793 211.366 137.938 211.384C138.089 211.402 138.235 211.429 138.376 211.466L138.308 212.498C138.212 212.475 138.103 212.459 137.979 212.45C137.861 212.441 137.743 212.437 137.624 212.437C137.355 212.437 137.123 212.491 136.927 212.601C136.735 212.705 136.59 212.86 136.489 213.065C136.389 213.271 136.339 213.523 136.339 213.824V222ZM137.911 214.604V215.574H133.905V214.604H137.911ZM143.845 220.291V214.604H145.116V222H143.906L143.845 220.291ZM144.084 218.732L144.61 218.719C144.61 219.211 144.558 219.667 144.453 220.086C144.353 220.501 144.189 220.861 143.961 221.166C143.733 221.471 143.435 221.711 143.065 221.884C142.696 222.052 142.247 222.137 141.719 222.137C141.359 222.137 141.028 222.084 140.728 221.979C140.431 221.875 140.176 221.713 139.962 221.494C139.748 221.275 139.581 220.991 139.463 220.64C139.349 220.289 139.292 219.867 139.292 219.375V214.604H140.557V219.389C140.557 219.721 140.593 219.997 140.666 220.216C140.743 220.43 140.846 220.601 140.974 220.729C141.106 220.852 141.252 220.938 141.411 220.988C141.575 221.038 141.744 221.063 141.917 221.063C142.455 221.063 142.881 220.961 143.195 220.756C143.51 220.546 143.735 220.266 143.872 219.915C144.013 219.56 144.084 219.165 144.084 218.732ZM148.418 211.5V222H147.146V211.5H148.418ZM151.822 211.5V222H150.551V211.5H151.822ZM155.931 221.234L157.988 214.604H159.342L156.375 223.142C156.307 223.324 156.215 223.52 156.102 223.729C155.992 223.944 155.851 224.146 155.678 224.338C155.505 224.529 155.295 224.684 155.049 224.803C154.807 224.926 154.518 224.987 154.181 224.987C154.08 224.987 153.953 224.974 153.798 224.946C153.643 224.919 153.534 224.896 153.47 224.878L153.463 223.853C153.499 223.857 153.556 223.862 153.634 223.866C153.716 223.875 153.773 223.88 153.805 223.88C154.092 223.88 154.336 223.841 154.536 223.764C154.737 223.691 154.905 223.565 155.042 223.388C155.183 223.215 155.304 222.975 155.404 222.67L155.931 221.234ZM154.42 214.604L156.341 220.346L156.669 221.679L155.76 222.144L153.039 214.604H154.42ZM159.766 221.33C159.766 221.116 159.832 220.936 159.964 220.79C160.101 220.64 160.297 220.564 160.552 220.564C160.807 220.564 161.001 220.64 161.133 220.79C161.27 220.936 161.338 221.116 161.338 221.33C161.338 221.54 161.27 221.717 161.133 221.863C161.001 222.009 160.807 222.082 160.552 222.082C160.297 222.082 160.101 222.009 159.964 221.863C159.832 221.717 159.766 221.54 159.766 221.33Z" fill="#3D4D62"/>
<path d="M90.1618 51.9222C60.2094 49.0808 46.4885 55.2538 31.9547 84.7001C28.0692 92.5707 26.1922 98.8832 26.224 103.94C26.3396 123.631 51.199 124.336 59.528 124.336H128.356C128.356 124.336 127.853 55.4969 90.1618 51.9222Z" fill="#78C2B8"/>
<path d="M128.355 124.555H59.5274C37.6728 124.555 26.08 117.426 26.0003 103.94C25.9724 98.8313 27.8534 92.5029 31.7549 84.6003C45.8145 56.1145 58.9217 48.734 90.1812 51.7029C105.691 53.1734 117.252 66.2128 123.609 89.4104C128.399 106.893 128.578 124.161 128.578 124.332C128.578 124.392 128.554 124.448 128.514 124.492C128.475 124.536 128.415 124.555 128.355 124.555ZM78.5924 51.5355C55.61 51.5355 44.2364 60.3068 32.1534 84.7916C28.2838 92.6344 26.4148 98.8951 26.4427 103.936C26.5184 117.135 37.9598 124.109 59.5234 124.109H128.128C128.092 122.029 127.654 105.865 123.174 89.514C118.779 73.4738 109.481 53.9705 90.1374 52.1373C85.9808 51.7428 82.1471 51.5315 78.5924 51.5315V51.5355Z" fill="#3D4D62"/>
<path d="M68.1445 34.1851C68.3 43.327 69.1966 51.8512 69.1966 51.8512C68.551 57.8688 74.3693 56.9044 78.8805 56.1632C85.2767 55.1111 85.5756 51.6201 85.5756 51.6201C83.8062 49.9304 83.6388 44.4149 83.6388 44.4149L68.1445 34.1851Z" fill="white"/>
<path d="M73.9704 56.9321C72.3883 56.9321 70.9616 56.6491 70.037 55.7724C69.1443 54.9275 68.7897 53.6005 68.977 51.8271C68.969 51.7872 68.0763 43.2311 67.9209 34.1848C67.9209 34.1011 67.9647 34.0254 68.0365 33.9856C68.1082 33.9457 68.1959 33.9497 68.2676 33.9935L83.7619 44.2234C83.8217 44.2633 83.8575 44.331 83.8615 44.4028C83.8615 44.4585 84.0448 49.8505 85.7305 51.4565C85.7784 51.5043 85.8023 51.5681 85.7983 51.6358C85.7863 51.7872 85.4117 55.3101 78.9199 56.3781C77.3418 56.6372 75.5764 56.9281 73.9743 56.9281L73.9704 56.9321ZM68.3752 34.6033C68.5506 43.4742 69.4113 51.7474 69.4193 51.8311C69.244 53.5288 69.5429 54.6964 70.3439 55.4536C72.0495 57.0676 75.8115 56.4459 78.8322 55.9517C84.3796 55.0391 85.2244 52.2575 85.34 51.7036C83.722 50.0139 83.459 45.3592 83.4231 44.5422L68.3752 34.6072V34.6033Z" fill="#3D4D62"/>
<path d="M81.4343 10.4217C66.6614 11.7607 68.5623 23.3096 68.5623 23.3096C65.5694 23.6444 64.3938 26.3623 65.0314 29.5185C65.5575 32.1328 67.837 33.0892 67.837 33.0892C69.2158 44.4429 79.2026 46.8579 83.6381 44.415C88.0736 41.9721 90.9947 39.1028 91.6722 35.8868C92.3496 32.6708 92.5051 24.7363 93.1467 21.074C93.8321 17.1406 93.4934 9.32574 81.4343 10.4217Z" fill="white"/>
<path d="M79.904 45.4991C78.1785 45.4991 76.3254 45.0647 74.6596 44.2118C72.404 43.0562 68.5065 40.0992 67.6338 33.2407C67.1396 32.9976 65.2945 31.9455 64.8123 29.5664C64.4257 27.6496 64.6887 25.932 65.5615 24.7404C66.2031 23.8637 67.1516 23.3057 68.3152 23.1264C68.2076 22.174 67.9884 18.4518 70.511 15.192C72.7148 12.3426 76.3851 10.6648 81.4144 10.2105C86.1368 9.78411 89.5481 10.6688 91.5526 12.8487C93.9318 15.4351 93.7086 19.1413 93.3619 21.1219C93.055 22.8674 92.8558 25.641 92.6645 28.323C92.4573 31.2402 92.2381 34.253 91.8834 35.9427C91.2219 39.0869 88.4801 42.0081 83.7417 44.6183C82.6618 45.2121 81.3228 45.507 79.9001 45.507L79.904 45.4991ZM81.4543 10.6449C76.5565 11.0873 72.9898 12.7052 70.8657 15.451C68.1199 18.9938 68.7735 23.234 68.7815 23.2739C68.7894 23.3336 68.7775 23.3934 68.7376 23.4452C68.7018 23.493 68.646 23.5249 68.5862 23.5329C67.4305 23.6644 66.5339 24.1546 65.9201 24.9994C65.1231 26.0914 64.884 27.6814 65.2466 29.4787C65.7408 31.9416 67.9008 32.8781 67.9207 32.886C67.9924 32.9179 68.0442 32.9857 68.0562 33.0654C68.8771 39.8083 72.671 42.6975 74.8588 43.8213C77.772 45.3157 81.255 45.4751 83.5265 44.2278C88.1493 41.6813 90.8154 38.8638 91.449 35.851C91.7997 34.1932 92.0149 31.1924 92.2221 28.2912C92.4134 25.5972 92.6127 22.8116 92.9235 21.0462C93.2543 19.1452 93.4735 15.5945 91.2219 13.1476C89.313 11.0753 86.0252 10.2344 81.4503 10.6529L81.4543 10.6449Z" fill="#3D4D62"/>
<path d="M83.0523 23.0541C82.9288 23.0461 80.0157 22.9027 77.5967 25.2101C77.4771 25.3256 77.4731 25.5169 77.5847 25.6405C77.6644 25.7281 77.784 25.756 77.8876 25.7242C77.9314 25.7122 77.9713 25.6883 78.0032 25.6564C80.2309 23.5323 82.9846 23.6598 83.0205 23.6598C83.1838 23.6718 83.3273 23.5403 83.3353 23.3729C83.3433 23.2055 83.2197 23.0621 83.0523 23.0541Z" fill="#3D4D62"/>
<path d="M87.775 23.9745C87.1373 24.0462 86.9381 23.6198 86.9182 23.564C86.8584 23.4086 86.687 23.3329 86.5316 23.3967C86.3802 23.4564 86.3044 23.6358 86.3642 23.7912C86.4838 24.106 86.954 24.6759 87.8427 24.5763C88.8988 24.4607 89.8034 24.7675 90.5287 25.4968C90.6084 25.5765 90.724 25.6004 90.8276 25.5686C90.8754 25.5526 90.9153 25.5287 90.9511 25.4928C91.0667 25.3733 91.0627 25.182 90.9511 25.0625C90.0943 24.1977 89.0223 23.831 87.779 23.9745H87.775Z" fill="#3D4D62"/>
<path d="M80.4707 34.8381C80.3193 34.6149 80.3432 34.4675 80.3472 34.4476C80.395 34.2921 80.3113 34.1248 80.1599 34.073C80.0045 34.0211 79.8331 34.1048 79.7813 34.2603C79.7654 34.3001 79.6578 34.6628 79.9407 35.125C80.5624 36.1173 82.4912 36.7988 85.6793 37.1415C85.7192 37.1415 85.759 37.1415 85.7989 37.1296C85.9105 37.0937 85.9942 36.9941 86.0061 36.8705C86.0221 36.7032 85.9065 36.5557 85.7391 36.5358C81.8895 36.1213 80.7856 35.2924 80.4707 34.8341V34.8381Z" fill="#3D4D62"/>
<path d="M86.2883 30.1636C85.7543 29.9922 85.1127 30.2353 84.3874 30.8809C84.2639 30.9925 84.2519 31.1838 84.3595 31.3113C84.4711 31.4388 84.6544 31.4508 84.7779 31.3392C85.3279 30.849 85.7862 30.6418 86.105 30.7414C86.4597 30.853 86.5872 31.3273 86.5912 31.3352C86.635 31.4946 86.7944 31.5943 86.9538 31.5544C86.9578 31.5544 86.9658 31.5544 86.9658 31.5544C87.1212 31.5066 87.2129 31.3432 87.173 31.1878C87.1651 31.1559 86.9658 30.3828 86.2883 30.1676V30.1636Z" fill="#3D4D62"/>
<path d="M67.2305 27.2702L67.5692 27.7683C67.8322 27.585 68.6372 27.1586 69.223 27.3817C69.5618 27.5132 69.8049 27.86 69.9483 28.4099L70.5262 28.2585C70.3349 27.5013 69.9683 27.0151 69.4343 26.8119C68.442 26.4333 67.2823 27.2343 67.2345 27.2662L67.2305 27.2702Z" fill="#3D4D62"/>
<path d="M85.1964 1.35886C70.9774 -3.10849 67.4784 4.86978 67.4784 4.86978C52.2392 6.691 56.1566 34.3719 56.6109 38.5722C57.0692 42.7686 55.8418 43.462 55.8418 43.462C61.6202 50.4998 72.3443 49.9379 72.3443 49.9379C68.4388 47.6225 73.1931 35.0095 67.9726 32.722C65.4898 31.6381 61.7717 25.9473 68.383 23.8112C74.9904 21.6752 76.975 21.9302 76.975 21.9302C78.1347 19.9894 80.6892 17.682 80.6892 17.682C80.0037 19.571 78.856 21.5795 78.856 21.5795L81.9605 21.1611C85.3279 17.5067 86.4398 13.2745 86.4398 13.2745C88.5001 17.2995 87.2448 20.8383 87.2448 20.8383C91.5766 19.0051 93.1468 21.0774 93.1468 21.0774C93.1468 21.0774 92.2621 32.8774 90.8912 38.0581C89.3609 41.4734 83.6382 44.4184 83.6382 44.4184L83.9291 46.7019C94.0713 46.9689 100.46 42.8722 100.46 42.8722C93.0472 43.2747 93.5573 29.3506 94.8803 24.8673C96.2034 20.384 99.4154 5.8302 85.1924 1.36285L85.1964 1.35886Z" fill="#3D4D62"/>
<path d="M79.9117 26.1583C79.4613 26.2978 79.1983 26.7361 79.3179 27.1347C79.4374 27.5332 79.8997 27.7404 80.346 27.6009C80.7964 27.4614 81.0594 27.0231 80.9398 26.6246C80.8203 26.226 80.358 26.0148 79.9117 26.1583Z" fill="#3D4D62"/>
<path d="M87.7261 26.4092C87.2758 26.5487 87.0128 26.987 87.1323 27.3856C87.2519 27.7801 87.7102 27.9913 88.1605 27.8518C88.6068 27.7123 88.8738 27.274 88.7543 26.8794C88.6347 26.4809 88.1725 26.2697 87.7261 26.4092Z" fill="#3D4D62"/>
<path d="M60.9621 106.898C57.519 104 52.2426 100.553 46.6475 100.553V101.163C57.0368 101.163 66.5692 113.473 66.6689 113.597L67.1391 113.226C67.1152 113.194 64.6803 110.026 60.9661 106.902L60.9621 106.898Z" fill="#3D4D62"/>
<path d="M53.3584 102.227L53.6055 102.777C60.0813 99.8 61.3446 90.686 61.3925 90.2994L60.8027 90.2197C60.7907 90.3114 59.5274 99.3856 53.3584 102.227Z" fill="#3D4D62"/>
<path d="M87.5595 119.957C85.1326 118.231 81.1873 116.701 81.1873 116.701C82.7893 115.744 83.0683 114.979 83.3193 114.035C83.6142 112.943 82.9607 112.237 82.3191 112.441C81.2072 112.787 79.3342 113.166 76.8076 112.915C72.5355 112.492 67.6617 113.764 67.6617 113.764L66.0557 124.328H91.0107C91.0107 124.328 89.9865 121.678 87.5595 119.949V119.957Z" fill="white"/>
<path d="M91.0111 124.556H66.0561C65.9924 124.556 65.9286 124.528 65.8887 124.48C65.8449 124.432 65.829 124.364 65.8369 124.301L67.443 113.736C67.4549 113.648 67.5187 113.577 67.6063 113.553C67.6542 113.541 72.5639 112.277 76.828 112.696C79.3028 112.943 81.1439 112.576 82.2518 112.23C82.5905 112.122 82.9492 112.21 83.2122 112.465C83.5908 112.827 83.7103 113.437 83.531 114.095C83.28 115.031 82.989 115.78 81.6699 116.657C82.7459 117.1 85.7189 118.379 87.6835 119.774C90.1384 121.519 91.1706 124.141 91.2144 124.253C91.2423 124.321 91.2303 124.4 91.1905 124.46C91.1506 124.52 91.0789 124.556 91.0072 124.556H91.0111ZM66.3152 124.113H90.6724C90.3297 123.38 89.3015 121.467 87.4325 120.136C85.0573 118.446 81.1479 116.924 81.108 116.908C81.0283 116.876 80.9765 116.805 80.9686 116.721C80.9606 116.637 81.0044 116.554 81.0762 116.51C82.5746 115.613 82.8535 114.924 83.1086 113.979C83.268 113.393 83.1086 112.979 82.9133 112.788C82.7619 112.644 82.5786 112.596 82.3913 112.656C81.2435 113.015 79.3386 113.389 76.7921 113.138C73.0102 112.764 68.6943 113.748 67.8654 113.947L66.3191 124.109L66.3152 124.113Z" fill="#3D4D62"/>
<path d="M66.4778 112.931C61.2373 116.382 62.1898 124.333 62.1898 124.333H67.3346C70.7977 122.531 67.6454 119.618 67.6454 119.618C71.1882 118.415 68.2671 114.27 68.2671 114.27C70.8814 113.928 70.3753 112.039 70.3753 112.039L66.4778 112.931Z" fill="white"/>
<path d="M67.3349 124.556H62.1901C62.0785 124.556 61.9828 124.472 61.9709 124.361C61.9629 124.281 61.0623 116.235 66.3585 112.748C66.3785 112.732 66.4064 112.724 66.4303 112.716L70.3278 111.824C70.4433 111.8 70.5629 111.867 70.5908 111.983C70.5987 112.015 70.79 112.76 70.3278 113.454C69.997 113.948 69.4311 114.278 68.6341 114.434C69.0485 115.107 69.9492 116.813 69.4909 118.212C69.2757 118.877 68.7855 119.379 68.0323 119.706C68.4667 120.184 69.3115 121.292 69.1561 122.472C69.0445 123.301 68.4667 123.994 67.4345 124.532C67.4027 124.548 67.3668 124.556 67.3309 124.556H67.3349ZM62.3933 124.114H67.2791C68.1439 123.652 68.6301 123.082 68.7178 122.416C68.8931 121.105 67.5063 119.798 67.4903 119.786C67.4345 119.734 67.4066 119.654 67.4226 119.579C67.4385 119.503 67.4943 119.439 67.57 119.415C68.3631 119.144 68.8692 118.698 69.0684 118.084C69.5706 116.55 68.0961 114.426 68.0801 114.406C68.0363 114.342 68.0283 114.259 68.0602 114.187C68.0921 114.115 68.1558 114.067 68.2355 114.055C69.0764 113.944 69.6582 113.661 69.9571 113.21C70.1763 112.88 70.2002 112.529 70.1883 112.314L66.5658 113.143C61.9908 116.191 62.2937 122.886 62.3933 124.114Z" fill="#3D4D62"/>
<path d="M70.6062 54.6886C69.052 53.1424 69.1955 51.8552 69.1955 51.8552C69.1955 51.8552 61.7034 49.755 62.608 54.6846C63.146 57.6217 67.175 56.2667 67.175 56.2667C67.175 56.2667 67.2348 61.3398 72.5589 61.5749C77.8313 61.8101 78.8834 56.1671 78.8834 56.1671C76.0858 56.9043 72.1206 56.187 70.6102 54.6886H70.6062Z" fill="white"/>
<path d="M72.8692 61.8018C72.7616 61.8018 72.654 61.8018 72.5425 61.7939C67.824 61.5827 67.0828 57.6613 66.9672 56.5534C66.3137 56.7287 64.6439 57.0715 63.4842 56.39C62.8944 56.0433 62.5238 55.4774 62.3843 54.7202C62.1691 53.5406 62.3963 52.636 63.0578 52.0342C64.8272 50.4202 69.0714 51.5879 69.2507 51.6397C69.3543 51.6676 69.4221 51.7712 69.4101 51.8788C69.4101 51.8908 69.3105 53.0903 70.7571 54.5289C72.2077 55.9716 76.1211 56.661 78.8151 55.9477C78.8868 55.9277 78.9665 55.9477 79.0223 55.9995C79.0781 56.0513 79.102 56.127 79.0901 56.2027C79.0781 56.2585 77.9862 61.8018 72.8613 61.8018H72.8692ZM67.1705 56.0433C67.2143 56.0433 67.2621 56.0553 67.298 56.0831C67.3538 56.123 67.3896 56.1907 67.3936 56.2625C67.3936 56.4617 67.5172 61.1284 72.5624 61.3515C76.9022 61.5468 78.2611 57.6613 78.58 56.4617C75.7425 57.0754 71.9566 56.3422 70.4502 54.8438C69.175 53.5765 68.9877 52.4606 68.9718 52.0223C68.1827 51.827 64.7674 51.0778 63.3607 52.361C62.8187 52.8552 62.6393 53.6203 62.8227 54.6405C62.9382 55.2662 63.2371 55.7285 63.7114 56.0074C64.9707 56.7527 67.0788 56.0592 67.0987 56.0513C67.1226 56.0433 67.1466 56.0393 67.1705 56.0393V56.0433Z" fill="#3D4D62"/>
<path d="M85.5744 51.62C85.5744 51.62 84.6418 54.5212 78.8793 56.1631C78.8793 56.1631 78.3294 63.4918 84.9527 61.4514C88.9817 60.212 86.3475 55.9359 86.3475 55.9359C86.3475 55.9359 91.6597 56.4939 90.787 52.6402C90.0338 49.3086 85.5704 51.62 85.5704 51.62H85.5744Z" fill="white"/>
<path d="M82.829 62.0329C81.8686 62.0329 81.0556 61.7739 80.4021 61.2519C78.4175 59.6697 78.6486 56.2943 78.6566 56.1509C78.6646 56.0592 78.7283 55.9795 78.816 55.9556C84.3713 54.3735 85.3516 51.5839 85.3596 51.556C85.3755 51.5002 85.4154 51.4564 85.4672 51.4285C85.5708 51.3727 88.0695 50.1014 89.7273 50.8705C90.3849 51.1774 90.8153 51.7592 91.0066 52.5961C91.2377 53.6123 91.0783 54.4372 90.5363 55.047C89.556 56.1509 87.5953 56.2146 86.7385 56.1867C87.0932 56.8881 87.7387 58.4662 87.2286 59.8252C86.9019 60.6979 86.1566 61.3156 85.0209 61.6663C84.2238 61.9134 83.4906 62.0329 82.833 62.0329H82.829ZM79.0949 56.3342C79.075 56.9957 79.1029 59.6458 80.681 60.9051C81.6614 61.6862 83.0761 61.7978 84.8894 61.2399C85.8896 60.933 86.5352 60.403 86.8142 59.6658C87.404 58.1036 86.1766 56.0712 86.1646 56.0512C86.1208 55.9795 86.1208 55.8878 86.1646 55.8161C86.2084 55.7444 86.2921 55.7045 86.3758 55.7125C86.4037 55.7125 89.1096 55.9795 90.2056 54.7441C90.6479 54.246 90.7714 53.5565 90.5762 52.6878C90.4168 51.9904 90.0701 51.5121 89.544 51.2651C88.2329 50.6553 86.1686 51.5799 85.7501 51.7791C85.5389 52.3012 84.2677 54.8158 79.0949 56.3302V56.3342Z" fill="#3D4D62"/>
<path d="M148.923 79.9297H106.601C105.875 79.9297 105.246 80.4557 105.034 81.2368L95.0715 118.147C94.9201 118.709 95.0117 119.307 95.3226 119.785C95.6374 120.259 96.1156 120.53 96.6377 120.53H138.96C139.685 120.53 140.315 120.004 140.526 119.223L150.493 82.3128C150.644 81.7469 150.553 81.1491 150.242 80.6749C149.931 80.2007 149.449 79.9297 148.927 79.9297H148.923Z" fill="#3D4D62"/>
<path d="M138.955 120.754H96.6331C96.0354 120.754 95.4854 120.447 95.1307 119.909C94.784 119.379 94.6844 118.717 94.8518 118.091L104.815 81.181C105.054 80.3003 105.771 79.7104 106.596 79.7104H148.918C149.516 79.7104 150.062 80.0173 150.417 80.5553C150.763 81.0813 150.867 81.7429 150.7 82.3725L140.733 119.283C140.498 120.164 139.78 120.754 138.951 120.754H138.955ZM106.6 80.1528C105.978 80.1528 105.432 80.6111 105.245 81.2965L95.2822 118.207C95.1467 118.709 95.2264 119.239 95.5053 119.666C95.7763 120.076 96.1868 120.311 96.6371 120.311H138.959C139.585 120.311 140.127 119.853 140.31 119.167L150.277 82.2609C150.413 81.7548 150.333 81.2248 150.054 80.8024C149.783 80.3919 149.373 80.1568 148.926 80.1568H106.604L106.6 80.1528Z" fill="#3D4D62"/>
<path d="M147.605 79.9297H105.283C104.558 79.9297 103.928 80.4557 103.717 81.2368L93.7541 118.147C93.6027 118.709 93.6943 119.307 94.0052 119.785C94.32 120.259 94.7982 120.53 95.3203 120.53H137.643C138.368 120.53 139.002 120.004 139.209 119.223L149.176 82.3128C149.327 81.7469 149.235 81.1491 148.925 80.6749C148.614 80.2007 148.132 79.9297 147.609 79.9297H147.605Z" fill="white"/>
<path d="M137.638 120.754H95.3158C94.718 120.754 94.168 120.447 93.8134 119.909C93.4666 119.379 93.367 118.717 93.5344 118.091L103.497 81.181C103.736 80.3003 104.454 79.7104 105.279 79.7104H147.601C148.199 79.7104 148.745 80.0173 149.099 80.5553C149.446 81.0813 149.55 81.7429 149.378 82.3725L139.411 119.283C139.176 120.164 138.459 120.754 137.63 120.754H137.638ZM105.283 80.1528C104.661 80.1528 104.115 80.6111 103.928 81.2965L93.9648 118.207C93.8293 118.709 93.909 119.239 94.188 119.666C94.459 120.076 94.8694 120.311 95.3197 120.311H137.642C138.268 120.311 138.81 119.853 138.993 119.167L148.96 82.2609C149.095 81.7548 149.016 81.2248 148.737 80.8024C148.466 80.3919 148.055 80.1568 147.609 80.1568H105.287L105.283 80.1528Z" fill="#3D4D62"/>
<path d="M72.8496 120.531C72.8496 122.631 74.4556 124.337 76.4323 124.337H129.686C131.666 124.337 133.269 122.631 133.269 120.531H72.8496Z" fill="#3D4D62"/>
<path d="M129.686 124.56H76.4328C74.3366 124.56 72.627 122.754 72.627 120.531C72.627 120.407 72.7266 120.308 72.8501 120.308H133.269C133.393 120.308 133.492 120.407 133.492 120.531C133.492 122.751 131.787 124.56 129.686 124.56ZM73.0773 120.754C73.1849 122.627 74.6474 124.117 76.4328 124.117H129.686C131.472 124.117 132.934 122.627 133.042 120.754H73.0773Z" fill="#3D4D62"/>
<path d="M111.264 120.531C111.264 122.631 112.87 124.337 114.846 124.337H136.848C138.825 124.337 140.431 122.631 140.431 120.531H111.26H111.264Z" fill="#78C2B8"/>
<path d="M136.852 124.56H114.85C112.754 124.56 111.044 122.754 111.044 120.531C111.044 120.407 111.144 120.308 111.267 120.308H140.438C140.562 120.308 140.662 120.407 140.662 120.531C140.662 122.751 138.956 124.56 136.856 124.56H136.852ZM111.494 120.754C111.602 122.627 113.064 124.117 114.85 124.117H136.852C138.633 124.117 140.1 122.627 140.207 120.754H111.494Z" fill="#3D4D62"/>
<path d="M135.131 84.2956C135.131 94.3804 126.958 102.554 116.873 102.554C106.788 102.554 98.6143 94.3804 98.6143 84.2956C98.6143 74.2108 106.788 66.0371 116.873 66.0371C126.958 66.0371 135.131 74.2108 135.131 84.2956Z" fill="#3D4D62"/>
<path d="M116.873 102.837C106.647 102.837 98.332 94.5167 98.332 84.2958C98.332 74.0748 106.652 65.7549 116.873 65.7549C127.094 65.7549 135.414 74.0748 135.414 84.2958C135.414 94.5167 127.094 102.837 116.873 102.837ZM116.873 66.3146C106.96 66.3146 98.8917 74.3824 98.8917 84.2958C98.8917 94.2091 106.96 102.277 116.873 102.277C126.786 102.277 134.854 94.2091 134.854 84.2958C134.854 74.3824 126.786 66.3146 116.873 66.3146Z" fill="#3D4D62"/>
<path d="M124.833 79.7031L115.244 89.0018L110.885 84.7751" stroke="white" stroke-width="4.29087" stroke-linecap="round" stroke-linejoin="round"/>
</svg>
