<svg width="24" height="24" viewBox="0 0 24 24" fill="none" xmlns="http://www.w3.org/2000/svg">
<rect width="24" height="24" rx="4" fill="#3B4C60"/>
<path d="M12.9258 9.62336V6.98144C12.9258 6.45593 12.717 5.95194 12.3454 5.58035C11.9738 5.20876 11.4698 5 10.9443 5L8.3024 10.9443V18.2096H15.7526C16.0712 18.2132 16.3803 18.1016 16.6231 17.8952C16.8658 17.6889 17.0258 17.4018 17.0736 17.0868L17.985 11.1425C18.0138 10.9531 18.001 10.7598 17.9476 10.5759C17.8942 10.392 17.8015 10.222 17.6758 10.0775C17.5502 9.93295 17.3946 9.8175 17.2199 9.73909C17.0452 9.66068 16.8556 9.62119 16.6641 9.62336H12.9258ZM8.3024 18.2096H6.32096C5.97062 18.2096 5.63463 18.0704 5.3869 17.8227C5.13917 17.575 5 17.239 5 16.8886V12.2653C5 11.9149 5.13917 11.579 5.3869 11.3312C5.63463 11.0835 5.97062 10.9443 6.32096 10.9443H8.3024" fill="#E5EFF2"/>
<path d="M8.3024 10.9443L10.9443 5C11.4698 5 11.9738 5.20876 12.3454 5.58035C12.717 5.95194 12.9258 6.45593 12.9258 6.98144V9.62336H16.6641C16.8556 9.62119 17.0452 9.66068 17.2199 9.73909C17.3946 9.8175 17.5502 9.93295 17.6758 10.0775C17.8015 10.222 17.8942 10.392 17.9476 10.5759C18.001 10.7598 18.0138 10.9531 17.985 11.1425L17.0736 17.0868C17.0258 17.4018 16.8658 17.6889 16.6231 17.8952C16.3803 18.1016 16.0712 18.2132 15.7526 18.2096H8.3024M8.3024 10.9443V18.2096M8.3024 10.9443H6.32096C5.97062 10.9443 5.63463 11.0835 5.3869 11.3312C5.13917 11.579 5 11.9149 5 12.2653V16.8886C5 17.239 5.13917 17.575 5.3869 17.8227C5.63463 18.0704 5.97062 18.2096 6.32096 18.2096H8.3024" stroke="#3B4C60" stroke-width="1.32096" stroke-linecap="round" stroke-linejoin="round"/>
</svg>
