<svg width="185" height="185" viewBox="0 0 185 185" fill="none" xmlns="http://www.w3.org/2000/svg">
<g clip-path="url(#clip0_496_120)">
<path d="M31.3507 43.3762C30.6239 41.6583 30.1284 39.1146 28.0141 38.1565C25.0078 36.8021 24.7766 40.8324 26.065 43.1449C27.4855 45.6226 29.3025 52.428 29.3025 52.428C29.3025 52.428 27.5185 51.1726 24.6114 50.9744C20.4489 50.6771 19.7221 50.9744 18.9953 52.5271C18.2355 54.0798 19.4248 56.5244 18.1694 57.5155C16.4516 58.8699 17.806 62.0744 17.806 62.0744C17.806 62.0744 17.2775 64.8164 19.0614 67.1289C20.2176 68.6485 21.2748 70.2012 24.0167 70.1021C25.9989 70.036 25.8007 77.3699 29.3355 78.6914C37.4292 81.7306 32.3417 91.4101 35.0837 96.3655L48.8596 88.0735C44.3998 80.4092 37.7266 55.4342 35.2819 52.2298C32.8373 48.9923 33.2337 48.0342 31.3176 43.4092L31.3507 43.3762Z" fill="white"/>
<path d="M35.0179 96.7618L34.8527 96.4645C33.7956 94.5484 33.8617 92.0377 33.9277 89.3948C34.0269 85.1663 34.159 80.7725 29.2697 78.9225C27.1554 78.1296 26.3295 75.4538 25.6358 73.2734C25.1733 71.7868 24.7108 70.3663 24.0831 70.3663C23.951 70.3663 23.8849 70.3663 23.7858 70.3663C21.209 70.3663 20.0858 68.9127 19.0286 67.4921L18.8635 67.2609C17.1786 65.0805 17.4429 62.5698 17.542 62.0413C17.3438 61.4797 16.3197 58.6055 18.0376 57.218C18.5992 56.7555 18.5661 55.8305 18.5001 54.8725C18.467 53.9805 18.401 53.0886 18.7644 52.3288C19.392 51.0404 20.0197 50.5118 22.3652 50.5118C22.9599 50.5118 23.6867 50.5118 24.7108 50.6109C26.6269 50.743 28.0804 51.3377 28.8733 51.7341C28.3447 49.9171 26.9902 45.193 25.867 43.277C24.9751 41.7243 24.8099 39.61 25.4706 38.4538C25.9992 37.5288 26.9902 37.3305 28.2126 37.8591C30.0626 38.685 30.7233 40.568 31.3179 42.2198C31.4501 42.5832 31.5822 42.9466 31.7144 43.2439C32.3751 44.8627 32.7715 46.052 33.0688 47.01C33.6635 48.827 34.0269 49.9502 35.6126 51.9984C36.7688 53.518 38.784 59.5305 41.0635 66.5011C43.7394 74.5948 46.8117 83.7788 49.1902 87.9082L49.3554 88.1725L35.051 96.7948L35.0179 96.7618ZM24.0501 69.7386C25.2063 69.7386 25.6688 71.2252 26.2304 73.0752C26.8581 75.1234 27.651 77.6341 29.4679 78.3279C34.7536 80.31 34.6215 85.1332 34.5224 89.3948C34.4563 91.8064 34.3902 94.1189 35.2161 95.8698L48.4304 87.9082C46.0188 83.6136 43.0456 74.6279 40.4027 66.6663C38.2224 60.0591 36.1411 53.7823 35.051 52.3618C33.3992 50.2145 33.0027 48.9921 32.4081 47.1752C32.1108 46.2171 31.7144 45.0609 31.0536 43.4752C30.9215 43.1448 30.7894 42.7814 30.6572 42.418C30.0956 40.8984 29.501 39.1475 27.8822 38.4207C26.9572 38.0243 26.3295 38.1234 25.9331 38.7511C25.3715 39.7091 25.5697 41.6252 26.3295 42.9466C27.7501 45.4573 29.534 52.0314 29.6001 52.3288L29.8313 53.1546L29.1045 52.6591C29.1045 52.6591 27.3536 51.4368 24.5786 51.2386C23.5876 51.1725 22.8608 51.1395 22.2992 51.1395C20.1849 51.1395 19.7885 51.5359 19.2929 52.593C18.9956 53.2207 19.0286 54.0466 19.0947 54.8395C19.1608 55.9296 19.2269 57.0529 18.401 57.7136C16.9144 58.9029 18.1036 61.8761 18.1367 61.9091V62.0082V62.1073C18.1367 62.1073 17.6411 64.7502 19.326 66.9305L19.4911 67.1618C20.5483 68.5493 21.5394 69.8707 24.017 69.7716L24.0501 69.7386Z" fill="#3D4D62"/>
<path d="M65.0143 103.864L44.3009 70.267C44.3009 70.267 34.8857 76.1804 24.083 81.0036C24.083 81.0036 29.9964 111.595 41.8562 125.8C74.2643 164.584 93.458 123.851 93.458 123.851L96.5964 58.1099C96.5964 58.1099 71.4562 58.6054 65.0143 103.864Z" fill="#78C2B8"/>
<path d="M114.931 55.0708C94.2839 55.0708 81.0366 64.9485 78.8562 74.3306C72.7116 100.759 72.0839 131.218 71.291 185H163.923C163.229 127.683 162.569 94.8458 153.418 72.3154C149.057 61.6449 141.195 55.1038 114.964 55.1038L114.931 55.0708Z" fill="#78C2B8"/>
<path d="M98.3468 65.2452C95.6378 83.547 99.1066 94.9443 99.1066 94.9443C109.182 84.8023 127.418 62.305 119.952 53.5836C114.138 46.7782 100.725 49.1568 98.3468 65.2452Z" fill="white"/>
<path d="M98.9749 95.5391L98.8097 95.0436C98.8097 95.0436 95.341 83.382 98.0499 65.2123C99.7347 53.7489 106.672 49.6855 112.09 49.6855C115.262 49.6855 118.202 51.04 120.217 53.3855C127.782 62.2391 109.877 84.6043 99.3383 95.1757L98.9749 95.5391ZM112.09 50.3132C106.937 50.3132 100.296 54.2445 98.6776 65.3114C96.332 81.1686 98.6776 91.9052 99.3053 94.3498C111.297 82.1596 126.395 61.6114 119.754 53.815C117.871 51.6016 115.096 50.3463 112.123 50.3463L112.09 50.3132Z" fill="#3D4D62"/>
<path d="M115.03 23.6865C109.183 20.0195 93.2263 20.515 90.8477 27.7829C90.22 29.6659 89.9227 31.7472 90.3191 34.9186C90.4513 35.9097 90.6495 36.9999 90.9138 38.2552C92.1031 43.4088 91.112 42.5829 90.6825 46.4811C89.5924 56.0284 98.1816 64.849 103.864 66.3356C114.006 68.9784 124.775 51.3374 124.941 51.007C128.277 43.4749 120.877 27.3865 115.03 23.7195V23.6865Z" fill="white"/>
<path d="M105.978 66.8643C105.218 66.8643 104.491 66.7652 103.797 66.6C97.6528 65.0143 89.3278 55.8304 90.3849 46.4152C90.5171 45.1268 90.7153 44.367 90.8805 43.7063C91.2108 42.4179 91.409 41.6911 90.6162 38.2884C90.3188 37.0331 90.1206 35.9099 89.9885 34.9188C89.6251 32.1108 89.7903 29.9304 90.5501 27.6509C92.1358 22.8277 99.2715 21.1099 104.921 21.1099C109.083 21.1099 112.915 21.9688 115.195 23.3893C121.108 27.0893 128.64 43.3759 125.205 51.0733C125.138 51.2384 115.69 66.8643 105.978 66.8643ZM104.921 21.7375C99.5028 21.7375 92.6313 23.3233 91.1447 27.8492C90.6492 29.4018 90.1867 31.417 90.6162 34.8527C90.7483 35.8438 90.9465 36.9009 91.2108 38.1563C92.0367 41.7241 91.8385 42.484 91.4751 43.8715C91.3099 44.4991 91.1117 45.259 90.9796 46.4813C89.8894 56.2268 98.7429 64.6509 103.93 65.9724C104.59 66.1375 105.284 66.2366 105.978 66.2366C115.294 66.2366 124.577 50.9741 124.643 50.809C127.947 43.3429 120.613 27.5518 114.864 23.9179C112.684 22.5304 108.951 21.7375 104.921 21.7375Z" fill="#3D4D62"/>
<path d="M93.92 51.8993C93.92 51.8993 93.8869 51.7672 93.92 51.7341C94.2503 50.677 95.2084 48.0341 95.2084 48.0011L94.5146 47.7368C94.5146 47.7368 93.5235 50.4457 93.1932 51.5029C93.1271 51.7341 93.1602 51.9984 93.2923 52.2297C93.8209 53.1877 95.9682 53.8484 96.2325 53.9145L96.4307 53.1877C95.6048 52.9565 94.2173 52.3949 93.953 51.8663L93.92 51.8993Z" fill="#3D4D62"/>
<path d="M105.681 57.9446C105.978 58.7375 105.681 59.0348 105.615 59.1339C104.822 60.0259 101.717 59.6625 99.9328 59.233L99.7676 59.9598C100.164 60.0589 102.774 60.6536 104.624 60.3562C105.252 60.2571 105.813 60.0259 106.177 59.6625C106.606 59.167 106.672 58.5393 106.408 57.7134L105.714 57.9777L105.681 57.9446Z" fill="#3D4D62"/>
<path d="M101.849 39.3125C101.222 39.3125 100.858 39.3125 100.561 39.0151L100.032 39.5437C100.561 40.0392 101.188 40.0392 101.816 40.0392C102.972 40.0392 104.261 40.0392 105.913 42.6491L106.54 42.2526C104.657 39.2794 103.005 39.2794 101.816 39.2794L101.849 39.3125Z" fill="#3D4D62"/>
<path d="M90.9803 40.5018L91.5089 40.9973C92.533 39.8741 93.7883 40.5348 93.8544 40.5679L94.1848 39.9071C93.5571 39.5768 92.0705 39.2795 90.9473 40.5018H90.9803Z" fill="#3D4D62"/>
<path d="M102.179 46.1507C101.749 46.3159 101.551 46.7784 101.716 47.2079C101.881 47.6373 102.344 47.8356 102.773 47.6704C103.203 47.5052 103.401 47.0427 103.236 46.6132C103.071 46.1838 102.608 45.9856 102.179 46.1507Z" fill="#3D4D62"/>
<path d="M93.3259 44.2017C92.8964 44.2677 92.5661 44.6972 92.6652 45.1597C92.7312 45.5892 93.1607 45.9195 93.6232 45.8204C94.0527 45.7543 94.383 45.3249 94.2839 44.8954C94.2178 44.4659 93.7884 44.1686 93.3589 44.2347L93.3259 44.2017Z" fill="#3D4D62"/>
<path d="M107.135 46.3821C105.483 45.0607 101.353 42.3848 97.2239 44.9946C96.9265 44.7633 95.539 44.3339 95.0765 44.433C94.614 43.475 93.1274 41.1955 89.3614 40.1383C87.9739 39.7419 86.9828 40.2044 86.6194 41.3607C85.8265 43.9044 88.3042 49.2232 91.2114 50.1151C92.1033 50.3794 92.8962 50.2803 93.5239 49.8178C94.9114 48.8267 95.1756 46.4151 95.2417 45.5562C95.3739 45.5562 96.5301 45.7875 96.7283 46.0187C96.9265 46.9107 98.4462 53.1875 104.161 54.0134C104.756 54.0794 105.285 54.1125 105.78 54.0134C106.507 53.8812 107.102 53.5839 107.531 53.0883C108.555 51.9651 108.522 50.1482 108.39 48.9919C108.324 48.5625 108.555 48.133 108.952 47.9017L118.036 42.8803L117.772 41.2946L108.258 46.4812C107.861 46.6794 107.432 46.6464 107.068 46.3821H107.135ZM94.4489 45.2589C94.4489 46.0848 94.1515 48.3642 93.0614 49.1241C92.6319 49.4214 92.1364 49.4875 91.5087 49.2892C89.031 48.5294 86.8176 43.7062 87.4783 41.5589C87.5774 41.2616 87.7426 40.8982 88.2381 40.7991C88.4694 40.766 88.7667 40.7991 89.1301 40.8982C93.3917 42.1205 94.4158 44.9616 94.4489 45.0937C94.4489 45.0937 94.4489 45.1928 94.4489 45.2589ZM106.969 52.5267C106.441 53.1214 105.549 53.3526 104.327 53.1875C98.8426 52.4276 97.5873 45.8535 97.5873 45.7875C97.5873 45.7875 97.5873 45.7875 97.5873 45.7544C102.311 42.6821 107.069 47.4062 107.267 47.6044C107.333 47.6705 107.399 47.9678 107.432 48.133C107.432 48.133 108.225 51.1723 106.969 52.5598V52.5267Z" fill="#3D4D62"/>
<path d="M135.743 15.0643C135.743 15.0643 139.212 8.72147 130.722 7.79647C130.722 7.79647 130.821 2.1804 124.313 4.75718C124.313 4.75718 116.219 -6.27675 110.306 5.18665C110.306 5.18665 105.284 -2.60978 103.468 6.07861C103.468 6.07861 92.83 -0.231211 93.5568 11.5295C93.5568 11.5295 84.472 7.7304 88.2381 18.7643C88.2381 18.7643 78.7568 14.4697 84.9014 22.3322C84.9014 22.3322 76.9068 27.5518 85.3639 30.9875C85.3639 30.9875 82.0934 36.5045 87.6104 35.4143C87.6104 35.4143 87.1809 40.3697 90.5836 38.4536C90.5836 38.4536 89.7907 35.15 90.6497 33.0027C90.6497 33.0027 94.4157 35.3152 96.6291 30.2277C96.6291 30.2277 97.1247 36.1081 102.543 33.234C102.543 33.234 102.08 35.7777 104.326 35.3483C104.326 35.3483 104.987 40.9313 108.324 38.6849C108.324 38.6849 111.033 41.7241 112.486 39.742C112.486 39.742 109.744 44.4331 115.36 46.217C115.36 46.217 114.072 52.0643 120.25 51.0402C120.25 51.0402 123.917 55.0375 126.163 50.1813C126.163 50.1813 133.365 54.1125 135.38 46.8777C135.38 46.8777 142.945 44.9947 139.212 39.9402C139.212 39.9402 145.621 35.4143 139.609 31.1197C139.609 31.1197 146.117 28.1795 140.005 24.3143C140.005 24.3143 146.249 16.617 135.743 15.1304V15.0643Z" fill="#3D4D62"/>
<path d="M71.6211 142.318C71.1256 133.431 74.0988 100.429 74.1318 100.098L75.0899 100.197C75.0899 100.528 72.0836 133.497 72.5792 142.285L71.6211 142.351V142.318Z" fill="#3D4D62"/>
<path d="M151.271 118.136C143.177 112.982 141.955 98.1493 141.889 97.5216L142.847 97.4556C142.847 97.4556 144.102 112.421 151.799 117.343L151.271 118.136Z" fill="#3D4D62"/>
<path d="M72.679 168.878H33.0361V185H72.679V168.878Z" fill="#3D4D62"/>
<path d="M85.8927 185H19.8213C19.8213 183.183 21.3079 181.696 23.1249 181.696H82.5891C84.4061 181.696 85.8927 183.183 85.8927 185Z" fill="#3D4D62"/>
<path d="M3.79883 98.6118H101.882C103.798 98.6118 105.351 100.164 105.351 102.081V168.78C105.351 170.696 103.798 172.248 101.882 172.248H3.79883C1.88276 172.248 0.330078 170.696 0.330078 168.78V102.081C0.330078 100.164 1.88276 98.6118 3.79883 98.6118Z" fill="white"/>
<path d="M101.915 98.2812H3.79911C1.68482 98.2812 0 99.9991 0 102.08V168.779C0 170.894 1.71786 172.579 3.79911 172.579H101.882C103.996 172.579 105.681 170.861 105.681 168.779V102.08C105.681 99.9661 103.963 98.2812 101.882 98.2812H101.915ZM105.054 168.812C105.054 170.563 103.633 171.951 101.915 171.951H3.79911C2.04821 171.951 0.660714 170.53 0.660714 168.812V102.113C0.660714 100.362 2.08125 98.975 3.79911 98.975H101.882C103.633 98.975 105.021 100.396 105.021 102.113V168.812H105.054Z" fill="#3D4D62"/>
<path d="M99.1074 104.888H6.60742V162.701H99.1074V104.888Z" fill="#78C2B8"/>
<path d="M81.433 125.073C81.433 141.657 62.1071 148.529 52.8571 153.121C43.6071 148.562 24.2812 141.69 24.2812 125.106V92.1368L52.8571 82.6226L81.433 92.1368V125.106V125.073Z" fill="white"/>
<path d="M52.8574 153.451C52.8574 153.451 52.7583 153.451 52.7253 153.418C51.7012 152.889 50.5119 152.361 49.2565 151.766C39.1806 147.075 23.9512 140.005 23.9512 125.073V92.1036C23.9512 92.1036 24.0503 91.8393 24.1824 91.8063L52.7583 82.292C52.7583 82.292 52.8905 82.292 52.9565 82.292L81.5324 91.8063C81.5324 91.8063 81.7637 91.9715 81.7637 92.1036V125.073C81.7637 140.005 66.5342 147.075 56.4583 151.766C55.203 152.361 54.0467 152.889 52.9896 153.385C52.9565 153.385 52.8905 153.418 52.8574 153.418V153.451ZM24.6119 92.3679V125.073C24.6119 139.576 39.6101 146.546 49.5539 151.171C50.7431 151.733 51.8664 152.262 52.8905 152.757C53.8815 152.262 55.0047 151.733 56.2271 151.204C66.1708 146.579 81.169 139.642 81.169 125.106V92.4009L52.9235 82.9857L24.678 92.4009L24.6119 92.3679Z" fill="#3D4D62"/>
<path d="M52.8567 133.398C61.9793 133.398 69.3746 126.003 69.3746 116.88C69.3746 107.758 61.9793 100.362 52.8567 100.362C43.7342 100.362 36.3389 107.758 36.3389 116.88C36.3389 126.003 43.7342 133.398 52.8567 133.398Z" fill="#78C2B8"/>
<path d="M57.2835 113.94C57.2835 111.231 54.8389 109.084 52.0308 109.579C50.2469 109.91 48.7933 111.33 48.496 113.114C48.1326 115.096 49.0906 116.847 50.6103 117.739L48.4299 124.28H57.3165L55.1362 117.739C56.4246 116.979 57.3165 115.559 57.3165 113.94H57.2835Z" fill="#3D4D62"/>
<path d="M129.4 117.079C122.661 111.43 124.412 105.351 117.838 105.913C111.264 106.474 106.606 105.648 105.813 107.036C105.053 108.423 103.566 110.108 102.509 112.355C101.452 114.634 102.509 115.658 102.608 117.706C102.674 119.722 104.095 120.746 104.921 120.151C105.747 119.556 105.978 117.277 105.978 117.277C105.978 117.277 106.87 120.316 107.531 122.034C108.191 123.752 109.315 124.875 109.612 125.073C109.909 125.272 111.429 125.833 111.429 125.833C111.429 125.833 114.567 130.888 116.682 129.764C118.862 128.608 115.327 125.602 115.327 125.602C114.832 123.884 114.171 122.728 114.171 122.728C118.036 120.614 119.291 123.223 123.19 129.368C127.088 135.513 128.178 130.755 131.845 131.714C135.512 132.672 143.936 134.72 143.936 134.72C155.961 129.137 154.474 119.457 154.474 119.457C154.474 119.457 136.14 122.728 129.367 117.079H129.4Z" fill="white"/>
<path d="M144.002 135.05H143.903C143.903 135.05 135.413 132.969 131.812 132.011C131.515 131.945 131.185 131.879 130.887 131.879C130.094 131.879 129.434 132.143 128.806 132.407C128.211 132.638 127.617 132.87 126.989 132.87C125.668 132.87 124.478 131.879 122.992 129.533L122.199 128.278C119.787 124.446 118.433 122.298 116.583 122.298C116.021 122.298 115.393 122.463 114.667 122.827C114.898 123.256 115.327 124.181 115.691 125.371C116.12 125.767 117.937 127.419 117.805 128.806C117.772 129.137 117.574 129.632 116.946 129.996C116.682 130.128 116.418 130.194 116.12 130.194C114.072 130.194 111.726 126.692 111.297 126.064C110.901 125.899 109.81 125.503 109.513 125.305C109.117 125.04 107.993 123.851 107.3 122.1C106.903 121.076 106.441 119.622 106.143 118.565C105.978 119.259 105.681 120.019 105.185 120.349C104.987 120.514 104.723 120.58 104.492 120.58C103.501 120.58 102.443 119.49 102.377 117.673C102.377 117.013 102.212 116.451 102.08 115.922C101.816 114.832 101.551 113.775 102.311 112.189C102.972 110.736 103.798 109.547 104.525 108.489C104.921 107.895 105.318 107.333 105.615 106.838C106.176 105.813 108.126 105.813 111.363 105.78C113.147 105.78 115.393 105.78 117.871 105.549C121.868 105.219 122.992 107.3 124.445 110.009C125.502 111.991 126.824 114.436 129.632 116.781C132.209 118.929 136.801 120.019 143.309 120.019C149.156 120.019 154.442 119.094 154.475 119.094L154.805 119.028V119.358C154.805 119.358 156.259 129.368 144.135 134.951H144.035L144.002 135.05ZM130.854 131.251C131.218 131.251 131.581 131.284 131.944 131.383C135.347 132.275 142.945 134.125 143.936 134.356C154.276 129.5 154.343 121.472 154.21 119.788C152.955 119.986 148.33 120.68 143.276 120.68C136.635 120.68 131.911 119.523 129.202 117.277C126.295 114.832 124.941 112.322 123.851 110.306C122.397 107.597 121.439 105.88 117.871 106.177C115.36 106.375 113.114 106.408 111.297 106.408C108.621 106.408 106.474 106.408 106.077 107.135C105.78 107.663 105.384 108.225 104.954 108.853C104.227 109.877 103.435 111.066 102.774 112.454C102.113 113.841 102.344 114.733 102.609 115.79C102.741 116.352 102.873 116.947 102.906 117.673C102.972 119.523 104.161 120.283 104.723 119.887C105.251 119.523 105.582 118.07 105.648 117.244L105.813 115.625L106.276 117.178C106.276 117.178 107.168 120.25 107.795 121.935C108.423 123.554 109.447 124.644 109.744 124.809C109.943 124.941 110.934 125.338 111.495 125.536H111.594L111.66 125.668C112.354 126.758 114.435 129.599 115.988 129.599C116.186 129.599 116.351 129.566 116.517 129.467C116.847 129.302 117.012 129.071 117.045 128.773C117.144 127.782 115.658 126.296 115.096 125.833L115.03 125.767V125.668C114.535 124.016 113.874 122.893 113.874 122.893L113.709 122.596L114.006 122.43C114.964 121.902 115.757 121.671 116.484 121.671C118.697 121.671 120.118 123.884 122.661 127.947L123.454 129.203C125.172 131.912 126.229 132.242 126.923 132.242C127.451 132.242 127.947 132.044 128.509 131.813C129.169 131.548 129.929 131.251 130.821 131.251H130.854Z" fill="#3D4D62"/>
<path d="M146.612 62.5037C146.612 62.5037 134.257 76.0814 136.999 92.0707L144.167 107.763C147.174 113.214 150.576 117.145 150.576 117.145L144.432 118.433C144.432 118.433 143.209 138.816 142.35 141.294C142.35 141.294 155.367 144.366 164.418 143.54C180.969 141.988 188.072 135.414 183.711 117.079C178.888 96.8609 168.019 74.6609 146.579 62.4707L146.612 62.5037Z" fill="#78C2B8"/>
<path d="M157.976 144.432C147.273 144.432 142.384 141.889 142.152 141.757L142.615 140.931C142.615 140.931 149.321 144.432 163.857 143.243L163.923 144.201C161.776 144.366 159.793 144.432 157.976 144.432Z" fill="#3D4D62"/>
</g>
<defs>
<clipPath id="clip0_496_120">
<rect width="185" height="185" fill="white"/>
</clipPath>
</defs>
</svg>
