<svg width="24" height="24" viewBox="0 0 24 24" fill="none" xmlns="http://www.w3.org/2000/svg">
<rect width="24" height="24" rx="4" transform="matrix(1 0 0 -1 0 24)" fill="#E5EFF2"/>
<path d="M7.07031 7.92627V10.675H9.81904" stroke="#3B4C60" stroke-width="1.64958" stroke-linecap="round" stroke-linejoin="round"/>
<path d="M17.1491 16.5383V13.7896H14.4004" stroke="#3B4C60" stroke-width="1.64958" stroke-linecap="round" stroke-linejoin="round"/>
<path d="M16.6456 9.74765C16.4132 9.09107 16.0183 8.50404 15.4977 8.04134C14.9772 7.57865 14.3479 7.25537 13.6685 7.10166C12.9892 6.94796 12.2821 6.96885 11.613 7.16237C10.9439 7.3559 10.3348 7.71576 9.84245 8.20837L7.71677 10.2058M17.1489 13.7895L15.0232 15.7869C14.5309 16.2795 13.9217 16.6393 13.2527 16.8329C12.5836 17.0264 11.8765 17.0473 11.1971 16.8936C10.5178 16.7399 9.88853 16.4166 9.36795 15.9539C8.84737 15.4912 8.45248 14.9042 8.22014 14.2476" stroke="#3B4C60" stroke-width="1.64958" stroke-linecap="round" stroke-linejoin="round"/>
</svg>
