<svg width="31" height="31" viewBox="0 0 31 31" fill="none" xmlns="http://www.w3.org/2000/svg">
<rect width="31" height="31" rx="15.5" fill="#EDEAE9"/>
<mask id="mask0_476_6427" style="mask-type:alpha" maskUnits="userSpaceOnUse" x="0" y="0" width="31" height="31">
<rect width="31" height="31" rx="15.5" fill="#FFE8E5"/>
</mask>
<g mask="url(#mask0_476_6427)">
<path d="M25.5754 30.9997V27.8997C25.5754 26.2554 25.0242 24.6784 24.0432 23.5156C23.0621 22.3529 21.7316 21.6997 20.3441 21.6997H9.88164C8.49423 21.6997 7.16364 22.3529 6.18259 23.5156C5.20154 24.6784 4.65039 26.2554 4.65039 27.8997V30.9997" fill="#AEAEAE"/>
<path d="M15.1129 20.1501C18.7511 20.1501 21.7004 17.2008 21.7004 13.5626C21.7004 9.92442 18.7511 6.9751 15.1129 6.9751C11.4747 6.9751 8.52539 9.92442 8.52539 13.5626C8.52539 17.2008 11.4747 20.1501 15.1129 20.1501Z" fill="#AEAEAE"/>
</g>
</svg>
